<?xml version="1.0" encoding="utf-8"?>
<!-- Generator: Adobe Illustrator 26.0.1, SVG Export Plug-In . SVG Version: 6.00 Build 0)  -->
<svg version="1.1" id="logo" xmlns="http://www.w3.org/2000/svg" xmlns:xlink="http://www.w3.org/1999/xlink" x="0px" y="0px"
	 viewBox="0 0 3604.5 1167.2" style="enable-background:new 0 0 3604.5 1167.2;" xml:space="preserve">
<style type="text/css">
	.st0{fill:#1D1D1D;}
</style>
<path id="wordmark_00000016054106151641370140000001268993640126823297_" class="st0" d="M3388.8,928.6h-166.5
	c-9.9-0.4-19.7-2.2-29.1-5.5l-13.8,62.2l4.2,2.3c10.4-12.5,17.2-26,26-38s10.9-14,23.4-14h54.9v197.7c0,14.3-7.3,17.7-30.4,18.7v7
	h95.3v-7c-24.4,0-31.2-4.4-31.2-18.7V936.7h55.7c12.2,0,15.6,5,23.4,14c9.5,12.2,18.1,25,26,38.2l4.7-2.3l-12.5-62.5
	C3409.1,927.1,3399,928.7,3388.8,928.6z M359.1,839.9c17.2,1.8,38.8,0,38.8,23.2c-6.7,41.2-17.3,81.7-31.5,121l-31,102.5l-61.9-178
	c-5.5-14.7-10.1-29.7-13.8-45c0-22.4,22.9-22.9,40.9-23.7v-10.1H164.2v10.2c11-1.1,22,1.6,31.2,7.5c8.8,8.5,15,19.2,18.2,31
	l15.4,42.9l-59.3,168.6L87.4,862.3c-1.2-2.8-2.1-5.7-2.9-8.6c0-12.5,16.4-13.5,36.4-13.8v-10.1H5.2v10.2c7.3,0.2,14.2,3.1,19.5,8.1
	c7,11.3,12.1,23.7,15.1,36.7l106.9,282.5h8.3l78-229.2l78.1,229.2h8.6l80-256.8c7-23.9,14.8-64.5,43.7-69.2V831h-84.3V839.9z
	 M469.6,936.7c18.5,0,30.4,1.6,30.4,18.7v179c0,16.9-12,18.7-30.4,18.7v7h95.2v-7c-19,0-31-1.8-31-18.7v-180c0-17.2,12-18.7,31-18.7
	v-7h-95.2V936.7z M778.7,936.7c20.3,2.1,29.4,4.2,29.4,21.3v153L642.7,928.9h-49.5v7.8c12,0,20,9.6,29.1,19.3v177.4
	c-1.3,16.9-13,16.9-28.9,18.7v7h68.9v-7c-22.4,0-30.7-7.3-30.7-18.7V964.8l182.1,197h4.9v-205c0-11.2,7.5-17.4,30.4-21.1v-7h-70.5
	V936.7z M1041.2,1136c-9.7,11.2-24,17.2-38.8,16.1H965c-12.2,0-22.9,0-22.9-16.4v-88.5h22.6c32.5,0,47.1,7.6,50.5,45h5.2V996h-5.2
	c-7.8,37.7-21.1,41.9-54.9,42.2h-18.2V936.7h52c20.6-0.7,40.2,9.1,52,26c5.4,6.7,10.4,13.8,15.1,21.1l7-1.6l-16.4-53.8H881.2v8.3
	c15.1,0,26,1.6,26,18.7v179c0,16.9-10.2,18.7-26,18.7v7h182.1l13.5-59.8l-5.7-1.6C1062.6,1112.3,1052.6,1124.8,1041.2,1136z
	 M3092.7,936.7c20.3,2.1,29.4,4.2,29.4,21.3v153l-165.5-182.1H2907v7.8c12,0,20,9.6,29.1,19.3v177.4c0,16.9-13,16.9-28.9,18.7v7
	h69.2v-7c-22.6,0-31-7.3-31-18.7V964.8l182.1,197h4.9v-205c0-11.2,7.6-17.4,30.4-21.1v-7h-68.7L3092.7,936.7z M2566.1,936.7
	c17.4,0,29.4,1.6,29.4,18.7v83.5h-122.3v-84.6c0-17.2,12.2-18.7,31.7-18.7v-7h-90.5v8.1c12.7,0,26,1.6,26,18.7v179
	c0,16.9-12,18.7-26,18.7v7h87.4v-7c-20,0-28.1-1.8-28.1-18.7V1047h122.8v86.4c0,16.9-12,18.7-29.4,18.7v7h88.2v-7
	c-16.1,0-26-1.8-26-18.7v-179c0-17.2,12-18.7,26-18.7v-7h-89L2566.1,936.7z M2117.3,1133.4c-15.2-29.9-34.4-57.6-57.2-82.2
	c31.2-10.4,52-26,52-61.1c0-47.3-45.3-62.7-85.3-62.7h-91.1v9.4c15.3,0,23.2,1.6,23.2,18.7v179c0,16.9-6,18.7-24.5,18.7v7h87.2v-7
	c-20.3,0-28.4-1.8-28.4-18.7v-78c14.6-0.8,28.9,4.1,39.8,13.8c23.1,28.2,43.5,58.5,60.9,90.5h55.4v-7
	C2135.3,1154.7,2122.4,1146.5,2117.3,1133.4L2117.3,1133.4z M2024.2,1046.5H1994v-92.1c0-17.4,8.3-20,26-20
	c30.9-1.9,57.6,21.6,59.5,52.6c1.9,30.9-21.6,57.6-52.6,59.5C2026,1046.5,2025.1,1046.5,2024.2,1046.5L2024.2,1046.5z
	 M2284.4,1156.8c-24.7-0.5-47.4-13.8-59.8-35.1c-14.5-21.7-21.9-47.3-21.1-73.4c-0.7-22.8,3.5-45.5,12.2-66.6
	c12.5-28.3,39.7-47.2,70.5-49.2c44.5,1.6,80.1,37.7,81.2,82.2h6v-78h-5.2l-10.7,14.3c-20.8-15.1-45.6-23.6-71.3-24.5
	c-64.2-2.2-118,48-120.2,112.2c-0.1,2.8-0.1,5.7,0,8.5c-4.4,60,40.7,112.3,100.7,116.7c5.9,0.4,11.8,0.4,17.7-0.1
	c26.8-0.4,52.8-8.9,74.7-24.4l9.4,15.6h7v-74.4h-6.2C2364.3,1123.8,2327.8,1156.6,2284.4,1156.8L2284.4,1156.8z M1448.2,1099.8
	l-126.5-270.1H1240v10.2c18.2,1.8,36.4,1.8,37.7,22.4v260.2c0,24.2-17.2,26-42.4,26v10.2h99.4v-10.2c-26,0-44-6.5-44-26V875
	l135,284.1h8.6l124.1-286.2v250.8c0,20.8-6.8,24.2-40.6,26v10.2h124.1v-10.2c-22.4,0-35.4-2.3-35.4-26V870.9c0-26,10.4-29.1,35.4-31
	v-10.1h-75.4L1448.2,1099.8z M1852.2,1136c-9.7,11.2-24,17.2-38.8,16.1h-37.2c-12.5,0-23.2,0-23.2-16.4v-88.5h22.6
	c32.5,0,47.1,7.6,50.5,45h5.5V996h-5.5c-7.5,37.7-21.1,41.9-54.6,42.2h-18.5V936.7h52c20.6-0.7,40.2,9.1,52,26
	c5.4,6.7,10.4,13.8,15.1,21.1l7-1.6l-16.4-53.8h-170.6v8.3c15.1,0,26,1.6,26,18.7v179c0,16.9-9.9,18.7-26,18.7v7h182.1l13.3-59.8
	l-5.7-1.6C1873.5,1112.3,1863.6,1124.8,1852.2,1136z M2865.9,1121.4l-78.1-199.3c-7.1,10.1-15.9,18.9-26,26l6,9.9l-68.2,177.7
	c-3.6,8.9-11.8,15.1-21.3,16.1v7h60.4v-7c-9.4,0-26,0-26-14.3c0-8.8,19.3-54.1,22.6-66.3h79.9c8.9,22,16.6,44.4,23.2,67.1
	c0,13.5-18.2,13.5-28.1,13.5v7h87.2v-7C2877.3,1149.5,2873.1,1140.4,2865.9,1121.4z M2735.8,1062.6l34.9-94.7l37.7,94.7H2735.8z
	 M3530.3,1027.2c-23.4-7.3-45.5-14-45.5-43.2c-3-25.5,15.2-48.7,40.8-51.8c2.7-0.3,5.4-0.4,8.2-0.2c14.4,0.3,27.9,7.1,36.7,18.5
	c10.7,16.1,18,34.3,21.3,53.3h6v-67.1h-4.4l-10.1,8.8c-15.1-12.6-34.2-19.4-53.9-19.2c-22.5-0.9-44.1,8.7-58.5,26
	c-8.6,11.5-13.2,25.5-13,39.8c-1.1,15.2,3.5,30.2,13,42.2c13.7,12.7,30.5,21.7,48.6,26c26,9.4,55.7,13.3,55.7,47.1
	c0.5,26.4-20.5,48.3-47,48.8c-2.3,0-4.6-0.1-6.9-0.4c-20.3,1.1-39.6-8.8-50.5-26c-7.2-12.4-11.8-26.1-13.3-40.3h-6.8v70h4.4
	l12.7-12.5l3.1,1.8c16.2,9.9,34.8,15.3,53.8,15.4c42.9,0,79.6-18.5,79.6-65.8S3566.8,1038.1,3530.3,1027.2z"/>
<path id="wordmark" class="st0" d="M3601.4,531.1c0-82-64-112.9-130.1-134.3l-13.8-4.2c-45.8-13.8-89-27.6-89-84.3
	s34.6-100.2,95-100.2c2.4-0.1,4.9-0.1,7.3,0c25.3,2.7,48.5,15.3,64.5,35.1c22.9,26,32.8,71.8,41.9,104.1h11.7V214.2h-9.1l-19.5,16.9
	c-25.4-21-56.7-33.6-89.5-35.9h-15.9c-71.7-5.3-134.1,48.5-139.4,120.1c-0.2,3.3-0.4,6.6-0.4,10c0,86.4,45,109.3,120.2,134
	c11.4,4.2,23.7,8.1,35.4,12c38.5,13.3,73.6,29.7,73.6,80.1c1.3,44.5-29.9,83.3-73.6,91.6c-10.3,2.3-20.9,3.4-31.5,3.4
	c-81.7,0-116.3-63-124.9-132.2h-13v136.3h7.8l26-24.2c33.2,21.7,72,33.2,111.6,33.3h26C3543.4,652,3601.4,614.6,3601.4,531.1z
	 M886.4,530.5c-16.6,27.3-36.4,52.4-59.1,74.9c-19,21.9-47.1,33.6-76,31.5h-73.6c-24.2,0-45-2.6-45-32V431.7h44.5
	c63.2,0,92.1,15.1,98.6,88.2h10.4V331.8h-10.9c-15.1,73.9-41.1,81.7-107.2,82.5h-35.4V213.4h99.4c41.7-1.5,81.1,18.8,104.1,53.6
	c10.5,13.2,20.4,26.9,29.4,41.1l13.8-3.1l-32-104.1H513.6v13.8c29.7,0,52,3.4,52,36.7v348.9c0,33.3-19.5,36.7-52,36.7v13.5h357.8
	l26-117.1L886.4,530.5z M1594.1,637c-39.8,0-55.4-3.4-55.4-36.4V446.8c28.4-2,56.4,7.4,78,26c44.9,55.5,84.7,114.9,118.6,177.7
	h108.5v-13.8c-26.5,2.2-51.5-12.3-62.7-36.4c-29.7-58.6-67.3-112.8-111.9-161c60.9-20.3,104.1-52,104.1-119.4
	c0-92.9-88.2-123.1-166.8-123.1c-60.1,0-120.2,2.6-178.5,2.6v13.7c30.2,0,45.8,3.4,45.8,36.7v350.7c2.1,33-11.7,36.4-48.4,36.4v13.5
	h169.9L1594.1,637z M1538.7,250.1c0-34.1,16.4-39.3,49.7-39.3c68.4,0,112.4,41.1,112.4,108.5c5.3,55.8-35.6,105.3-91.4,110.7
	c-4.2,0.4-8.5,0.5-12.7,0.4c-19.8,1.3-39.3,2.6-58.8,2.6L1538.7,250.1z M2464.7,659.8c189.7,0,234.2-154.3,234.2-229.5
	c7-123.5-87.5-229.3-211.1-236.2c-6.3-0.4-12.6-0.4-18.9-0.3c-64.5,0-224.8,42.4-224.8,239.1
	C2243.2,513.4,2289.6,659.8,2464.7,659.8z M2472.7,208.2c57.5,0,156.1,60.1,156.1,222.2c0,96.8-52,216.2-163.7,216.2
	c-96.5,0-151.4-97.3-151.4-210.5C2313.2,276.9,2394.2,208.2,2472.7,208.2L2472.7,208.2z M46.8,616.1
	c47.5,30.9,102.8,47.5,159.5,47.6c119.7,0,222.5-52,222.5-183.9c0-125.1-104.1-167-206.6-198c-65.3-19.5-127-39.3-127-120.5
	S143.9,17.7,231.6,17.7c40.3,1.1,78,20.2,102.8,52c32.8,36.5,46.6,104.1,59.8,149.4h16.9v-193h-13l-28.6,26
	c-42.3-34.6-95.5-53-150.1-52C109,0.1,19.3,74,19.3,187.9c0,123.1,64.5,156.1,172,191.2c70,26,156.1,37.5,156.1,131.6
	c0,46.8-26,135.6-150.4,135.6C80.4,646.3,30.7,556.6,18.7,457.7H0v192.8h11.2L46.8,616.1z M3184.3,254.5c0-21.6,14.6-33.8,59.6-41.1
	v-13.8h-134.5v13.8c39.8,3.9,57.5,8.6,57.5,41.9v299.5l-323.7-355.1h-97.3v13.8c23.4,0,39,19,56.7,38v347.1c-0.1,0.7-0.1,1.4,0,2.1
	c-2.6,33-26,33-57,36.4v13.5h135.3v-13.8c-43.7,0-60.1-14.3-60.1-36.4V270.4l354.4,385.6h9.6L3184.3,254.5z M2185,531.1
	c0-87.7-73.1-116.8-144.4-138.7c-45.8-13.5-89-26-89-84.3s34.1-99.9,95.5-99.9c28.1,0.6,54.5,13.8,71.8,35.9
	c22.9,26,32.8,71.8,41.9,104.1h12v-134h-9.4l-19.5,16.9c-29.3-24.1-66.1-37.3-104.1-37.2c-72.4-4.8-135,50.1-139.7,122.5
	c-0.2,2.5-0.3,5.1-0.3,7.6c0,86.1,45,109,120.2,134c49.2,18.2,109.3,26,109.3,92.1c0,32.8-18.5,94.7-104.1,94.7
	c-81.7,0-116.3-62.7-124.6-131.9h-13.3v137.6h6.8l26-24.2c33.2,21.7,72,33.2,111.6,33.3C2113.2,659.8,2185,624.5,2185,531.1z
	 M1208.5,637v13.5h170.7v-13.8c-35.4-5.2-43.2-22.9-57.5-60.1l-153-390.3c-14.1,20.3-31.7,37.9-52,52l11.7,19.5L994.2,605.4
	c-6.6,17.8-23,30.1-41.9,31.5v13.5h118.4v-13.8c-18.2-2.6-52-2.6-52-28.1c0-16.9,38-105.9,44.5-130.1h156.1
	c8.3,28.6,45,112.4,45,130.1C1263.4,637,1228.1,637,1208.5,637z M1069.3,461.9l67.9-185l73.9,185H1069.3z"/>
</svg>
