<?xml version="1.0" encoding="utf-8"?>
<!-- Generator: Adobe Illustrator 26.0.1, SVG Export Plug-In . SVG Version: 6.00 Build 0)  -->
<svg version="1.1" id="logo" xmlns="http://www.w3.org/2000/svg" xmlns:xlink="http://www.w3.org/1999/xlink" x="0px" y="0px"
	 viewBox="0 0 893.4 307" style="enable-background:new 0 0 893.4 307;" xml:space="preserve">
<style type="text/css">
	.st0{fill:#95012F;}
	.st1{fill-rule:evenodd;clip-rule:evenodd;fill:url(#SVGID_1_);fill-opacity:0.75;}
	
		.st2{fill-rule:evenodd;clip-rule:evenodd;fill:url(#SVGID_00000145050207463246832040000013747329511474039481_);fill-opacity:0.56;}
	
		.st3{fill-rule:evenodd;clip-rule:evenodd;fill:url(#SVGID_00000101818119842558097150000011574227086227558034_);fill-opacity:0.75;}
	
		.st4{fill-rule:evenodd;clip-rule:evenodd;fill:url(#SVGID_00000029029168466786726370000003708886077623800249_);fill-opacity:0.56;}
	.st5{fill-rule:evenodd;clip-rule:evenodd;fill:url(#SVGID_00000085225869686953324010000012771436476808401551_);}
	.st6{fill-rule:evenodd;clip-rule:evenodd;fill:url(#SVGID_00000110432567909281548510000013601059868558465721_);}
	.st7{fill-rule:evenodd;clip-rule:evenodd;fill:url(#SVGID_00000140016076620471653330000016542083132985701283_);}
	.st8{fill-rule:evenodd;clip-rule:evenodd;fill:url(#SVGID_00000052104303144151047230000006100573097896839578_);}
	.st9{fill:#CBCBCB;}
	.st10{fill:#1D1D1D;}
	.st11{fill:#F8F8F8;}
	.st12{fill-rule:evenodd;clip-rule:evenodd;fill:#95012F;}
	.st13{fill-rule:evenodd;clip-rule:evenodd;fill:url(#SVGID_00000044161416831358518170000000831650667563127722_);}
	
		.st14{fill-rule:evenodd;clip-rule:evenodd;fill:url(#SVGID_00000023975226786295703590000008225026563611430307_);fill-opacity:0.61;}
	
		.st15{fill-rule:evenodd;clip-rule:evenodd;fill:url(#SVGID_00000043436825569149717630000010247238346689866385_);fill-opacity:0.51;}
	
		.st16{fill-rule:evenodd;clip-rule:evenodd;fill:url(#SVGID_00000073714833741732914270000000346166267645587120_);fill-opacity:0.85;}
</style>
<g id="icon">
	<g id="base">
		<path class="st0" d="M740.2,307c84.6,0,153.2-68.7,153.2-153.5S824.8,0,740.2,0S587,68.7,587,153.5S655.6,307,740.2,307z"/>
		
			<radialGradient id="SVGID_1_" cx="-197.3511" cy="-808.2238" r="1" gradientTransform="matrix(-102.61 -120.36 120.32 -102.57 77740.5234 -106498.3906)" gradientUnits="userSpaceOnUse">
			<stop  offset="0.97" style="stop-color:#FFFFFF;stop-opacity:0"/>
			<stop  offset="1" style="stop-color:#FFCCCC"/>
		</radialGradient>
		<path class="st1" d="M623.7,253.1c-54.9-64.5-47.2-161.4,17.2-216.4C705-18.2,801.6-10.6,856.5,53.6c0.1,0.1,0.2,0.2,0.3,0.3
			c54.9,64.5,47.2,161.4-17.2,216.4c-64.2,54.9-160.7,47.3-215.6-16.8C623.9,253.3,623.8,253.2,623.7,253.1z M630.5,247.2
			c-51.7-60.6-44.5-151.6,16-203.4c60.6-51.7,151.6-44.5,203.4,16c51.7,60.6,44.5,151.6-16,203.4c-0.1,0.1-0.1,0.1-0.2,0.2
			C773,314.7,682.3,307.5,630.5,247.2L630.5,247.2z"/>
		
			<radialGradient id="SVGID_00000032645683209756381930000007930656713076484230_" cx="-197.9282" cy="-808.8519" r="1" gradientTransform="matrix(-98.01 -115.42 113.85 -96.67 73423.7891 -100882.8047)" gradientUnits="userSpaceOnUse">
			<stop  offset="0" style="stop-color:#000000"/>
			<stop  offset="0.94" style="stop-color:#000000;stop-opacity:0.61"/>
			<stop  offset="0.97" style="stop-color:#000000;stop-opacity:0"/>
		</radialGradient>
		
			<path style="fill-rule:evenodd;clip-rule:evenodd;fill:url(#SVGID_00000032645683209756381930000007930656713076484230_);fill-opacity:0.56;" d="
			M623.7,253.1c-54.9-64.5-47.2-161.4,17.2-216.4C705-18.2,801.6-10.6,856.5,53.6c0.1,0.1,0.2,0.2,0.3,0.3
			c54.9,64.5,47.2,161.4-17.2,216.4c-64.2,54.9-160.7,47.3-215.6-16.8C623.9,253.3,623.8,253.2,623.7,253.1z M630.5,247.2
			c-51.7-60.6-44.5-151.6,16-203.4c60.6-51.7,151.6-44.5,203.4,16c51.7,60.6,44.5,151.6-16,203.4c-0.1,0.1-0.1,0.1-0.2,0.2
			C773,314.7,682.3,307.5,630.5,247.2L630.5,247.2z"/>
		
			<radialGradient id="SVGID_00000039115900558913724230000014619899412635167422_" cx="-171.8352" cy="-786.9698" r="1" gradientTransform="matrix(93.12 127.88 -127.79 93.06 -83829.7578 95353.7891)" gradientUnits="userSpaceOnUse">
			<stop  offset="0.97" style="stop-color:#000000;stop-opacity:0"/>
			<stop  offset="1" style="stop-color:#000000"/>
		</radialGradient>
		
			<path style="fill-rule:evenodd;clip-rule:evenodd;fill:url(#SVGID_00000039115900558913724230000014619899412635167422_);fill-opacity:0.75;" d="
			M864,63.1c49.8,68.5,34.7,164.5-33.6,214.4c-68.2,49.8-163.9,34.9-213.7-33.3c-0.1-0.1-0.2-0.3-0.3-0.4
			C566.6,175.3,581.7,79.3,650,29.4c68.2-49.8,163.9-34.9,213.7,33.4C863.8,62.9,863.9,63,864,63.1z M856.7,68.5
			c46.9,64.5,32.7,154.8-31.7,201.8c-64.2,46.9-154.2,32.8-201.1-31.4c-0.1-0.1-0.2-0.2-0.3-0.3C576.8,174,591,83.7,655.4,36.7
			C719.6-10.1,809.6,4,856.5,68.2C856.5,68.3,856.6,68.4,856.7,68.5z"/>
		
			<radialGradient id="SVGID_00000044171232851039835760000015778998193684224670_" cx="-171.2292" cy="-786.4077" r="1" gradientTransform="matrix(88.91 122.6 -120.89 87.67 -79096.9219 90085.6016)" gradientUnits="userSpaceOnUse">
			<stop  offset="0" style="stop-color:#FFFFFF"/>
			<stop  offset="0.94" style="stop-color:#FFFFFF;stop-opacity:0.61"/>
			<stop  offset="0.97" style="stop-color:#FFFFFF;stop-opacity:0"/>
		</radialGradient>
		
			<path style="fill-rule:evenodd;clip-rule:evenodd;fill:url(#SVGID_00000044171232851039835760000015778998193684224670_);fill-opacity:0.56;" d="
			M864,63.1c49.8,68.5,34.7,164.5-33.6,214.4c-68.2,49.8-163.9,34.9-213.7-33.3c-0.1-0.1-0.2-0.3-0.3-0.4
			C566.6,175.3,581.7,79.3,650,29.4c68.2-49.8,163.9-34.9,213.7,33.4C863.8,62.9,863.9,63,864,63.1z M856.7,68.5
			c46.9,64.5,32.7,154.8-31.7,201.8c-64.2,46.9-154.2,32.8-201.1-31.4c-0.1-0.1-0.2-0.2-0.3-0.3C576.8,174,591,83.7,655.4,36.7
			C719.6-10.1,809.6,4,856.5,68.2C856.5,68.3,856.6,68.4,856.7,68.5z"/>
		
			<radialGradient id="SVGID_00000167390156508093864250000009506347467638644390_" cx="-175.2041" cy="-782.2227" r="1" gradientTransform="matrix(120.92 84.22 -84.28 121.01 -44004.3984 109565.7031)" gradientUnits="userSpaceOnUse">
			<stop  offset="0.95" style="stop-color:#000000;stop-opacity:0"/>
			<stop  offset="1" style="stop-color:#000000;stop-opacity:0.87"/>
		</radialGradient>
		<path style="fill-rule:evenodd;clip-rule:evenodd;fill:url(#SVGID_00000167390156508093864250000009506347467638644390_);" d="
			M881.8,153.5c0,78.4-63.4,141.9-141.5,141.9s-141.5-63.5-141.5-141.9S662,11.6,740.2,11.6S881.8,75.2,881.8,153.5z M868.4,153.5
			c0,71-57.4,128.5-128.2,128.5S612,224.5,612,153.5S669.4,25,740.2,25S868.4,82.5,868.4,153.5L868.4,153.5z"/>
		
			<radialGradient id="SVGID_00000058573800763400976750000005247201632716712379_" cx="-194.9494" cy="-812.2321" r="1" gradientTransform="matrix(-119.05 -82.91 82.98 -119.14 44931.3711 -112781.1016)" gradientUnits="userSpaceOnUse">
			<stop  offset="0.97" style="stop-color:#FFFFFF;stop-opacity:0"/>
			<stop  offset="1" style="stop-color:#FFFFFF;stop-opacity:0.62"/>
		</radialGradient>
		<path style="fill-rule:evenodd;clip-rule:evenodd;fill:url(#SVGID_00000058573800763400976750000005247201632716712379_);" d="
			M881.8,153.5c0,78.4-63.4,141.9-141.5,141.9s-141.5-63.5-141.5-141.9S662,11.6,740.2,11.6S881.8,75.2,881.8,153.5z M868.4,153.5
			c0,71-57.4,128.5-128.2,128.5S612,224.5,612,153.5S669.4,25,740.2,25S868.4,82.5,868.4,153.5L868.4,153.5z"/>
		
			<radialGradient id="SVGID_00000067234232992135389290000013482556375847431099_" cx="-174.1291" cy="-780.4575" r="1" gradientTransform="matrix(108.64 75.08 -75.14 108.73 -38979.7148 98085.5859)" gradientUnits="userSpaceOnUse">
			<stop  offset="0.94" style="stop-color:#FFFFFF;stop-opacity:0.56"/>
			<stop  offset="1" style="stop-color:#FFFFFF;stop-opacity:0"/>
		</radialGradient>
		<path style="fill-rule:evenodd;clip-rule:evenodd;fill:url(#SVGID_00000067234232992135389290000013482556375847431099_);" d="
			M881.8,153.5c0,78.4-63.4,141.9-141.5,141.9s-141.5-63.5-141.5-141.9S662,11.6,740.2,11.6S881.8,75.2,881.8,153.5z M868.4,153.5
			c0,71-57.4,128.5-128.2,128.5S612,224.5,612,153.5S669.4,25,740.2,25S868.4,82.5,868.4,153.5L868.4,153.5z"/>
		
			<radialGradient id="SVGID_00000054973364807977074120000006040565298285763762_" cx="-196.2273" cy="-814.166" r="1" gradientTransform="matrix(-105.52 -73.49 73.55 -105.6 39910.9648 -100250.1719)" gradientUnits="userSpaceOnUse">
			<stop  offset="0.93" style="stop-color:#000000"/>
			<stop  offset="1" style="stop-color:#000000;stop-opacity:0"/>
		</radialGradient>
		<path style="fill-rule:evenodd;clip-rule:evenodd;fill:url(#SVGID_00000054973364807977074120000006040565298285763762_);" d="
			M881.8,153.5c0,78.4-63.4,141.9-141.5,141.9s-141.5-63.5-141.5-141.9S662,11.6,740.2,11.6S881.8,75.2,881.8,153.5z M868.4,153.5
			c0,71-57.4,128.5-128.2,128.5S612,224.5,612,153.5S669.4,25,740.2,25S868.4,82.5,868.4,153.5L868.4,153.5z"/>
	</g>
	<path id="gate" class="st9" d="M746.3,89.8c-0.4,0-0.9,0.1-1.2,0.4l0.1-2.1h2.1c0.4,0,0.6,0,0.8-0.5c0.1-0.5,0.2-0.9,0.2-1.4H748
		c0,0.3-0.2,0.4-0.6,0.4h-1.9c-0.5,0-0.7,0.1-0.7,0.9l-0.2,3l0.3,0.2c0.3-0.2,0.6-0.4,0.9-0.4c0.8,0,1.3,1,1.3,2.3s-0.5,2.2-1.3,2.2
		c-0.5,0-0.8-0.3-0.8-0.5s0-0.1,0.1-0.2s0.3-0.2,0.3-0.3c0.1-0.1,0.1-0.3,0.1-0.5c0-0.4-0.2-0.9-0.7-0.9s-0.7,0.4-0.7,0.9
		c0,0.4,0.1,0.7,0.3,1c0.2,0.2,0.4,0.4,0.6,0.6c0.3,0.1,0.6,0.2,0.8,0.2c1.4,0,2.5-1,2.6-2.4c0-0.1,0-0.2,0-0.3
		c0.2-1.3-0.8-2.5-2.1-2.7C746.5,89.8,746.4,89.8,746.3,89.8z M741.5,86.4c-1.3,0-2.2,2.1-2.2,4.4c0,2.6,1.1,4.3,2.3,4.3
		s2.2-1.6,2.2-4.3S742.6,86.4,741.5,86.4z M742.3,93.4c0,0.3-0.1,0.7-0.2,1c-0.1,0.1-0.1,0.2-0.2,0.2c-0.1,0.1-0.2,0.1-0.3,0.1
		s-0.2,0-0.3-0.1s-0.2-0.1-0.2-0.2c-0.2-0.6-0.3-1.2-0.3-1.8c0-0.7,0-1.5,0-2.4c0-1,0-1.6,0.1-2.3c0-0.3,0.1-0.7,0.3-1
		c0.1-0.1,0.1-0.2,0.2-0.2c0.1-0.1,0.2-0.1,0.3-0.1s0.2,0,0.3,0.1c0.1,0,0.2,0.1,0.2,0.2c0.2,0.3,0.2,0.6,0.2,0.9
		c0.1,1,0.1,2.2,0.1,3S742.4,92.4,742.3,93.4L742.3,93.4z M732.8,86.5c-0.8,0.2-1.6,0.3-2.5,0.2V87h1.1v7.7h-1.1V95h3.5v-0.3h-1
		V86.5z M737,90.6c1.1-0.3,1.7-1.5,1.4-2.6s-1.5-1.7-2.6-1.4c-0.9,0.3-1.5,1.1-1.5,2.1c0,0.9,0.5,1.7,1.4,2c-1,0.3-1.6,1.2-1.6,2.2
		c0,0.3,0,0.6,0.2,0.9c0.1,0.3,0.3,0.5,0.5,0.8c0.2,0.2,0.5,0.4,0.8,0.5s0.6,0.2,0.9,0.2c0.3,0,0.6,0,0.9-0.2
		c0.3-0.1,0.5-0.3,0.8-0.5c0.2-0.2,0.4-0.5,0.5-0.8c0.3-0.8,0.2-1.6-0.3-2.3C737.9,91,737.5,90.7,737,90.6z M735.6,88.6
		c0-0.8,0-1.8,0.7-1.8c0.2,0,0.5,0,0.7,0.6c0.1,0.4,0.1,0.7,0.1,1.1c0,1,0,1.9-0.7,1.9S735.6,89.3,735.6,88.6z M736.4,94.8
		c-0.8,0-0.9-1.2-0.9-2s0-2,0.9-2s0.9,1.2,0.9,2S737.2,94.8,736.4,94.8L736.4,94.8z M737.4,106.5v-1.2H732l-0.7,1.2
		c-7,11.6-17.9,20.4-30.8,24.7l-1.2,0.4v57.1c0.3-0.3,0.7-0.5,1.2-0.6v-54.7l1.7,0.9v53.9c0.9,0.3,1.7,0.9,2.1,1.7V180l2.1-0.6v15.4
		c0.2,0.5,0.3,1.1,0.5,1.7v-17.3l2.5-0.7v23.6l-1.2-0.6c0,0.2,0.1,0.4,0.1,0.6l0.9,0.4l-0.7,0.2c0.2,0.7,0.3,1.4,0.5,2.1l0.5-0.1
		v2.1c0,0.2,0.1,0.3,0.1,0.5l0.4,1.8c1,4.4,1.6,7.4,1.9,9.6l25.5-7L737.4,106.5L737.4,106.5L737.4,106.5z M704.4,177.7v-1.8l2.4-0.7
		l2.3,1.1L704.4,177.7z M704.4,175.4V175l2.1-0.6v0.5L704.4,175.4z M709.5,176l-2.5-1.2v-0.6l2.5-0.7V176z M709.5,171.3l-5.1,1.4
		v-2.1l2.4-0.7L709.5,171.3v-0.2V171.3z M704.4,170.2v-26l2.1-0.6v26.1L704.4,170.2z M709.5,170.8l-2.5-1.2v-26.2l2.5-0.7V170.8z
		 M709.5,140.5l-5.1,1.4v-2.1l2.4-0.7L709.5,140.5v-0.2V140.5z M704.4,139.4v-2.8l2.1-0.6v2.8L704.4,139.4z M709.5,140l-2.5-1.2
		v-2.9l2.5-0.7V140z M703.5,133.5L703.5,133.5l-2.3-1.1c13.3-4.5,24.6-13.7,31.7-25.8h2.1C728,119,716.8,128.6,703.5,133.5
		L703.5,133.5z M731,205v-1l2-0.5l1.3,0.7L731,205z M732.6,206.7v2.7l-1.7,0.4v-2.6L732.6,206.7z M731,203.5v-4.7l1.7-0.4v4.7
		L731,203.5z M731,196.6v-1l2-0.5l1.3,0.7L731,196.6z M731,195.1v-22.5l1.7-0.4v22.5L731,195.1z M731,170.3v-0.9l2-0.5l1.1,0.6
		L731,170.3z M731,169v-1.4l1.7-0.4v1.4L731,169z M731,165.4v-1.2l2-0.5l1.5,0.8L731,165.4z M731,163.7v-26.9l1.7-0.5v26.9
		L731,163.7z M731,134.6v-1.2l2-0.5l1.5,0.8L731,134.6z M731,132.9v-3.7l1.7-0.5v3.7L731,132.9z M731,127v-1.2l2-0.5l1.6,0.8
		L731,127z M731,125.3v-9c0.6-0.7,1.1-1.4,1.7-2.2v10.7L731,125.3z M724.5,206.7v-1.3l2.3-0.6l1.6,0.8L724.5,206.7z M726.5,208.4
		v2.4l-2,0.5V209L726.5,208.4z M724.5,205v-4.4l2-0.6v4.4L724.5,205z M724.5,198.4v-1.3l2.3-0.6l1.6,0.8L724.5,198.4z M724.5,196.6
		v-22.3l2-0.6V196L724.5,196.6z M724.5,172.1V171l2.3-0.6l1.4,0.7L724.5,172.1z M724.5,170.5v-1.1l2-0.6v1.2L724.5,170.5z
		 M724.5,167.2v-1.4l2.3-0.6l1.8,0.9L724.5,167.2z M724.5,165.3v-26.7l2-0.6v26.7L724.5,165.3z M724.5,136.4V135l2.3-0.6l1.8,0.9
		L724.5,136.4z M724.5,134.5V131l2-0.6v3.5L724.5,134.5z M724.5,128.8v-1.5l2.3-0.6l1.9,1L724.5,128.8z M724.5,126.8v-3.7
		c0.7-0.7,1.4-1.3,2-1.9v5.1L724.5,126.8z M718.1,208.5V207l1.8-0.5l1.9,0.9L718.1,208.5z M719.6,210.3v2.2l-1.5,0.4v-2.2
		L719.6,210.3z M718.1,206.6v-4.2l1.5-0.4v4.2L718.1,206.6z M718.1,200.1v-1.5l1.8-0.5l1.9,0.9L718.1,200.1z M718.1,198.1v-22
		l1.5-0.4v22.1L718.1,198.1z M718.1,173.8v-1.3l1.8-0.5l1.7,0.8L718.1,173.8z M718.1,172v-0.9l1.5-0.4v1L718.1,172z M718.1,168.9
		v-1.6l1.8-0.5l2.1,1L718.1,168.9z M718.1,166.8v-26.4l1.5-0.4v26.5L718.1,166.8z M718.1,138.1v-1.6l1.8-0.5l2.1,1.1L718.1,138.1z
		 M718.1,136v-3.2l1.5-0.4v3.3L718.1,136z M718.1,130.6v-1.7l1.8-0.5l2.2,1.1L718.1,130.6z M718.1,128.4L718.1,128.4
		c0.5-0.5,1-0.8,1.5-1.2v0.8L718.1,128.4z M714.3,130.6l1.2,0.6l-1.9,0.5V131L714.3,130.6L714.3,130.6z M711.6,210.3v-1.4l1.8-0.5
		l1.8,0.9L711.6,210.3z M713.1,212.1v2.3l-1.5,0.4v-2.3L713.1,212.1z M711.6,208.4v-4.2l1.5-0.4v4.3L711.6,208.4z M711.6,201.9v-1.4
		l1.8-0.5l1.8,0.9L711.6,201.9z M711.6,200v-22.1l1.5-0.4v22.1L711.6,200z M711.6,175.7v-1.3l1.8-0.5l1.6,0.8L711.6,175.7z
		 M711.6,173.9v-1l1.5-0.4v1L711.6,173.9z M711.6,170.7v-1.6l1.8-0.5l2,1L711.6,170.7z M711.6,168.7v-26.5l1.5-0.4v26.5L711.6,168.7
		z M711.6,139.9v-1.6l1.8-0.5l2,1L711.6,139.9z M713.1,134.2v3.3l-1.5,0.4v-3.3L713.1,134.2z M711.6,132.4v-0.2
		c0.5-0.3,1-0.5,1.5-0.8v0.6L711.6,132.4z M711.6,216.6v-1.3l1.8-0.5l1.7,0.9L711.6,216.6z M715.9,215.4L715.9,215.4l-2.3-1.1V212
		l2.3-0.6V215.4z M715.9,209.1l-2.3-1.1v-4.4l2.3-0.6V209.1z M715.9,200.7l-2.3-1.1v-22.3l2.3-0.6V200.7z M715.9,174.5l-0.2,0.1
		l-2.1-1v-1.1l2.3-0.6V174.5z M715.9,169.3l-2.3-1.1v-26.7l2.3-0.6V169.3z M715.9,138.6l-2.3-1.1V134l2.3-0.6V138.6z M715.9,130.9
		l-1.1-0.5l1.1-0.7V130.9z M718,214.8v-1.4l1.8-0.5l1.8,0.9L718,214.8z M722.3,213.6l-2.3-1.1v-2.4l2.3-0.6V213.6z M722.3,207.2
		l-2.3-1.1v-4.4l2.3-0.6V207.2z M722.3,198.8l-2.3-1.1v-22.2l2.3-0.6V198.8z M722.3,172.7L722.3,172.7l-2.3-1v-1.1l2.3-0.6V172.7z
		 M722.3,167.5l-2.3-1.1v-26.6l2.3-0.6V167.5z M722.3,136.7l-2.3-1.1v-3.4l2.3-0.6V136.7z M722.3,129.1L720,128v-1.2
		c0.8-0.6,1.5-1.2,2.3-1.8V129.1z M724.5,213v-1.2l2.3-0.6l1.5,0.8L724.5,213z M728.8,211.7l-1.8-0.8v-2.5l1.8-0.5V211.7z
		 M728.8,205.3l-1.8-0.8v-4.6l1.8-0.5V205.3z M728.8,196.9L727,196v-22.4l1.8-0.5V196.9z M728.8,170.8L727,170v-1.3l1.8-0.5V170.8z
		 M728.8,165.5l-1.8-0.8v-26.8l1.8-0.5V165.5z M728.8,134.8L727,134v-3.6l1.8-0.5V134.8z M728.8,127.1l-1.8-0.8v-5.6
		c0.6-0.6,1.2-1.3,1.8-1.9V127.1z M730.9,211.3v-0.9l1.9-0.6l1.2,0.6L730.9,211.3z M735.2,210.1l-0.5,0.1l-1.7-0.8v-2.8l2.2-0.6
		V210.1z M735.2,203.8l-0.4,0.1l-1.8-0.8v-4.8l2.2-0.6V203.8z M735.2,195.4l-0.3,0.1l-1.8-0.9V172l2.2-0.6L735.2,195.4z
		 M735.2,169.1l-0.6,0.2l-1.6-0.8V167l2.2-0.6L735.2,169.1L735.2,169.1z M735.2,164.2H735l-2-0.9v-27l2.2-0.6V164.2z M735.2,133.4
		L735.2,133.4l-2.1-0.9v-3.8l2.2-0.6L735.2,133.4z M735.2,125.9L735.2,125.9l-2.1-1v-11.4c0.8-1,1.5-2.1,2.2-3.2L735.2,125.9z
		 M806.5,154.7v-6.9h7.4c0-0.7-0.1-1.4-0.2-2.1h-15v-6.9h14c-0.1-0.7-0.3-1.4-0.5-2.1h-5.7v-7h3.8c-0.2-0.7-0.5-1.4-0.8-2.1H782
		c0.1-0.3,0.2-0.6,0.4-1c0.1-0.2,0.1-0.4,0.1-0.7c0-0.4-0.1-0.9-0.3-1.3h26c-0.2-0.5-0.5-1.1-0.7-1.6h-26.2
		c-0.2-0.3-0.5-0.6-0.7-0.9h26.5c-0.3-0.6-0.5-1.1-0.8-1.6h-27.2c-0.3-0.3-0.5-0.5-0.8-0.8H806c-0.3-0.6-0.6-1.1-0.9-1.7H777v-1.1
		h27.5c-0.3-0.6-0.6-1.1-1-1.6h-5.6c-10.4-15.2-26.3-25.8-44.3-29.6l0.7-3.2c-9.8-2-20-2.1-29.8-0.1l0.7,3.2
		c-18.3,3.6-34.4,14.3-44.9,29.7h-3.8c-0.3,0.6-0.7,1.1-1,1.6h26.9v1.1h-27.5l-0.9,1.7h27l-0.8,0.8h-26.6c-0.3,0.6-0.5,1.1-0.8,1.7
		h25.9c-0.3,0.3-0.5,0.6-0.7,0.9h-25.6c-0.2,0.6-0.5,1.1-0.7,1.7h25.4c-0.2,0.4-0.3,0.8-0.3,1.3c0,0.2,0,0.5,0.1,0.7
		c0.2,0.4,0.3,0.8,0.4,1h-26.8c-0.3,0.7-0.5,1.4-0.8,2.1h3.1v7h-5.1c-0.2,0.7-0.3,1.4-0.5,2.1h13.3v6.9h-14.3
		c-0.1,0.7-0.1,1.4-0.2,2.1h6.7v6.9h-6.9c0.1,3.8,0.4,7.5,1.1,11.2h5.8v6.9h-4.3c0.2,0.7,0.4,1.4,0.6,2.1h11.5v6.9h-9.1l0.9,2.1h0.3
		v0.7c0.5,1.1,1.1,2.2,1.6,3.3v-4h13.7v6.9h-12.1c0.4,0.7,0.9,1.4,1.3,2.1h3.2v4.7c0.5,0.7,1.1,1.4,1.6,2.1V193h14.5v6.9H682
		c0.6,0.7,1.2,1.4,1.8,2.1h4v4.2c0.5,0.5,1.1,1.1,1.7,1.6V202h7v6.9H691c0.8,0.7,1.7,1.4,2.5,2.1h3.3v2.5c0.5,0.4,1.1,0.8,1.6,1.2
		v-84.9c0.4-0.5,0.6-1,0.7-1.6c-0.1-0.8-0.3-1.7-0.8-2.4v-0.1c0-0.9,2.5-3.9,5.4-6.6l0.3-0.2V115h-3.1c7.7-7.3,17.3-12.3,27.7-14.3
		l0.4,1.8c3.3-0.7,6.7-1,10.1-1c3.6,0,7.2,0.4,10.7,1.1l0.4-1.8c10.2,2.1,19.6,7,27.1,14.2h-1.9v3.8l0.3,0.2
		c2.9,2.6,5.4,5.6,5.4,6.6v0.1c-0.4,0.7-0.7,1.6-0.8,2.4c0,0.6,0.3,1.2,0.7,1.6V215c0.6-0.4,1.1-0.7,1.7-1.1v-3h3.9
		c0.9-0.7,1.7-1.4,2.5-2.1h-6.5v-6.9h7v6.4c0.6-0.5,1.1-1,1.7-1.5v-4.9h4.7c1-1.1,1.9-2.3,2.9-3.5v-5.6h3.9c0.5-0.7,0.9-1.4,1.3-2.1
		h-12.8v-6.9H805v5.2c0.6-1,1.1-2.1,1.7-3.2v-2h1c0.3-0.7,0.6-1.4,0.9-2.1h-9.7v-6.9h12.2c0.2-0.7,0.4-1.4,0.6-2.1h-5v-6.9h6.5
		c0.3-1.5,0.5-3,0.6-4.5v-4.5h0.4c0-0.7,0-1.4,0.1-2.1L806.5,154.7z M674.5,136.6v-7h13.7v7H674.5z M674.5,147.8h13.7v6.9h-13.7
		V147.8z M667.4,163.7v-6.9h13.3v6.9H667.4z M674.5,172.8v-6.9h13.7v6.9H674.5z M696.8,190.8h-7v-6.9h7V190.8z M696.8,181.8h-14.5
		v-6.9h14.5V181.8z M696.8,172.8h-7v-6.9h7V172.8z M696.8,163.8h-14.5v-6.9h14.5V163.8z M696.8,154.8h-7v-6.9h7V154.8z M696.8,145.8
		h-14.5v-6.9h14.5V145.8z M696.8,136.8h-7v-7h7V136.8z M753.1,87.8c17,3.5,32,13.3,42.1,27.5h-3.9c-9.6-12.6-23.4-21.3-38.9-24.6
		L753.1,87.8z M752,93c14.3,3,27.2,10.8,36.5,22.2H787c-9-10.8-21.5-18.2-35.3-21.1L752,93z M683,115.2
		c10.2-14.3,25.5-24.2,42.8-27.6l0.6,2.9c-15.7,3.1-29.7,11.8-39.5,24.5L683,115.2z M689.8,115.2c9.4-11.5,22.5-19.4,37.1-22.3
		l0.2,1.1c-14,2.7-26.7,10.2-35.9,21.2H689.8z M695.9,115.2h-2.1c8.8-10,20.7-16.8,33.8-19.3l0.3,1.5
		C715.6,99.8,704.4,106.1,695.9,115.2L695.9,115.2z M750.2,90.3c-0.2,0.7-0.3,1.5-0.5,2.2c-0.1,0.4-0.2,0.8-0.3,1.1
		c-0.1,0.6-0.3,1.3-0.4,1.9s-0.2,1-0.3,1.5c-0.3,1.3-0.5,2.3-0.7,3.1c-2.9-0.5-5.9-0.8-8.9-0.8c-2.8,0-5.5,0.3-8.3,0.7
		c-0.2-0.7-0.4-1.8-0.7-3.1c-0.1-0.5-0.2-1-0.3-1.5s-0.3-1.2-0.4-1.9c-0.1-0.4-0.2-0.8-0.2-1.1c-0.2-0.7-0.3-1.5-0.5-2.2l-0.7-3.1
		c-0.2-0.8-0.3-1.5-0.5-2.1c-0.1-0.3-0.1-0.6-0.2-0.9c3.9-0.7,7.8-1,11.8-1c4.2,0,8.3,0.4,12.4,1.2c0,0.2-0.1,0.6-0.2,0.9
		c-0.1,0.6-0.3,1.3-0.5,2.1S750.4,89.3,750.2,90.3L750.2,90.3z M751,97.4l0.3-1.5c12.8,2.6,24.5,9.4,33.2,19.2h-2.1
		C774,106.1,763,99.9,751,97.4z M804.9,147.8v6.9h-13.7v-6.9H804.9z M791.1,129.6h13.7v7h-13.7V129.6z M782.5,129.6h7v7h-7V129.6z
		 M782.5,138.7H797v6.9h-14.5V138.7z M782.5,147.7h7v6.9h-7V147.7z M782.5,156.8H797v6.9h-14.5V156.8z M782.5,165.8h7v6.9h-7V165.8z
		 M782.5,183.8h7v6.9h-7V183.8z M797,192.8v6.9h-14.5V193L797,192.8z M797,181.7h-14.5v-6.9H797V181.7z M804.9,172.7h-13.7v-6.9
		h13.7V172.7z M812,163.7h-13.3v-6.9H812V163.7z M778.8,131.2c-12.9-4.3-23.8-13-30.8-24.7c-0.2-0.4-0.4-0.8-0.7-1.2H742v1.2l0,0
		l0,0v105.2l25.5,7.1c0.3-2.2,0.9-5.2,1.9-9.6l0.4-1.8c0-0.2,0.1-0.3,0.1-0.5v-2.1l0.5,0.1c0.2-0.7,0.3-1.4,0.5-2.1l-0.7-0.2
		l0.9-0.4c0-0.2,0.1-0.4,0.1-0.6l-1.2,0.6v-23.6l2.5,0.7v17.3c0.2-0.6,0.3-1.1,0.5-1.7v-15.4l2.1,0.6v9.9c0.5-0.8,1.2-1.4,2.1-1.7
		v-53.8l1.7-0.9v54.7c0.4,0.1,0.8,0.3,1.2,0.6v-57.1C779.6,131.5,779.2,131.3,778.8,131.2z M744.1,110.2c0.7,1.1,1.4,2.2,2.1,3.2
		v11.4l-2.1,1l0,0V110.2z M744.1,128l2.1,0.6v3.8l-2,1h-0.1V128z M744.1,135.6l2.1,0.6v27l-2,1H744L744.1,135.6z M744.1,166.4
		l2.1,0.6v1.5l-1.6,0.8l-0.6-0.2L744.1,166.4z M744.1,171.3l2.1,0.6v22.6l-1.8,0.9l-0.3-0.1V171.3z M744.1,197.6l2.1,0.6v4.8
		l-1.8,0.8l-0.3-0.1V197.6z M744.1,210.1V206l2.1,0.6v2.8l-1.7,0.8L744.1,210.1z M748.4,211.3l-3.2-0.9l1.2-0.6l2,0.6V211.3z
		 M748.4,209.8l-1.7-0.4v-2.7l1.7,0.5V209.8z M748.4,204.9l-3.3-0.9l1.3-0.7l1.9,0.5L748.4,204.9L748.4,204.9z M748.4,203.4
		l-1.7-0.4v-4.7l1.7,0.5V203.4z M748.4,196.6l-3.3-0.9l1.3-0.7l1.9,0.5L748.4,196.6L748.4,196.6z M748.4,195l-1.7-0.4v-22.5l1.7,0.4
		V195z M748.4,170.3l-3.1-0.9l1.1-0.6l1.9,0.5L748.4,170.3z M748.4,168.9l-1.7-0.4v-1.4l1.7,0.5V168.9z M748.4,165.3l-3.5-1l1.5-0.8
		l1.9,0.5L748.4,165.3z M748.4,163.7l-1.7-0.4v-26.9l1.7,0.5V163.7z M748.4,134.6l-3.5-1l1.5-0.8l1.9,0.5L748.4,134.6z M748.4,132.9
		l-1.7-0.4v-3.7l1.7,0.5V132.9z M748.4,127l-3.6-1l1.6-0.8l1.9,0.5L748.4,127L748.4,127z M748.4,125.3l-1.7-0.4v-10.7
		c0.5,0.7,1.1,1.4,1.7,2.1V125.3z M754.8,213l-3.8-1l1.5-0.8l2.3,0.6V213z M750.5,211.6v-3.9l1.8,0.5v2.6L750.5,211.6z M754.8,211.3
		l-2-0.5v-2.4l2,0.6V211.3z M754.8,206.7l-4-1.1l1.6-0.8l2.3,0.6L754.8,206.7z M750.5,205.3v-5.9l1.8,0.5v4.6L750.5,205.3z
		 M754.8,205l-2-0.5V200l2,0.6V205z M754.8,198.3l-4-1.1l1.6-0.8l2.3,0.6L754.8,198.3z M750.5,196.9v-23.7l1.8,0.5v22.4L750.5,196.9
		z M754.8,196.6l-2-0.5v-22.3l2,0.6V196.6z M754.8,172.1l-3.8-1l1.4-0.7l2.3,0.6L754.8,172.1L754.8,172.1z M750.5,170.8v-2.6
		l1.8,0.5v1.3L750.5,170.8z M754.8,170.5l-2-0.5v-1.2l2,0.6V170.5z M754.8,167.2l-4.2-1.1l1.8-0.9l2.3,0.6L754.8,167.2z
		 M750.5,165.5v-28.1l1.8,0.5v26.8L750.5,165.5z M754.8,165.2l-2-0.5V138l2,0.6V165.2z M754.8,136.4l-4.2-1.1l1.8-0.9l2.3,0.6v1.4
		H754.8z M750.5,134.8v-4.9l1.8,0.5v3.6L750.5,134.8z M754.8,134.5l-2-0.5v-3.5l2,0.6V134.5z M754.8,128.8l-4.2-1.2l1.9-1l2.3,0.6
		V128.8z M750.5,127.1v-8.3c0.6,0.7,1.2,1.3,1.8,1.9v5.6L750.5,127.1z M754.8,126.8l-2-0.5v-5.1c0.7,0.7,1.3,1.3,2,1.9V126.8z
		 M757,213.6v-4.1l2.3,0.6v2.4L757,213.6L757,213.6z M759.3,175.6v22.2l-2.3,1.1V175L759.3,175.6z M757,172.7V170l2.3,0.6v1.1
		L757,172.7L757,172.7z M761.3,214.8l-3.6-1l1.8-0.9l1.8,0.5V214.8z M761.3,212.9l-1.5-0.4v-2.2l1.5,0.4V212.9z M761.3,208.5l-3.7-1
		l1.9-0.9l1.8,0.5V208.5z M757,207.3v-6.1l2.3,0.6v4.4L757,207.3z M761.3,206.6l-1.5-0.4V202l1.5,0.4V206.6z M761.3,200.1l-3.7-1
		l1.9-1l1.8,0.5V200.1z M761.3,198.1l-1.5-0.4v-22.1l1.5,0.4V198.1z M761.3,173.9l-3.5-1l1.7-0.8l1.8,0.5V173.9z M761.3,172.1
		l-1.5-0.4v-1l1.5,0.4V172.1z M761.3,168.9l-3.9-1l2.1-1l1.8,0.5L761.3,168.9z M757,167.5v-28.3l2.3,0.6v26.6L757,167.5z
		 M761.3,166.8l-1.5-0.4V140l1.5,0.4V166.8z M761.3,138.1l-3.9-1.1l2.1-1l1.8,0.5L761.3,138.1L761.3,138.1z M757,136.7v-5.1l2.3,0.6
		v3.4L757,136.7z M761.3,136l-1.5-0.4v-3.3l1.5,0.4V136z M761.3,130.6l-4-1.1l2.2-1.1l1.8,0.5V130.6z M757,129.1V125
		c0.8,0.6,1.5,1.2,2.3,1.8v1.2L757,129.1z M761.3,128.4l-1.5-0.4v-0.8c0.5,0.4,1,0.8,1.5,1.1V128.4z M763.4,215.4v-4.1l2.3,0.6v2.4
		L763.4,215.4L763.4,215.4z M763.4,130.9v-1.2l1.1,0.7L763.4,130.9z M765,130.7l0.7,0.4v0.7l-1.9-0.5L765,130.7z M765.7,134v3.4
		l-2.4,1.1v-5.2L765.7,134z M765.7,177.3v22.3l-2.4,1.1v-24L765.7,177.3z M763.4,174.5v-2.7l2.3,0.6v1.1l-2.1,1L763.4,174.5z
		 M767.7,216.7l-3.5-1l1.7-0.9l1.8,0.5V216.7z M767.7,214.8l-1.5-0.4v-2.3l1.5,0.4V214.8z M767.7,210.3l-3.6-1l1.8-0.9l1.8,0.5
		V210.3z M763.4,209.1V203l2.3,0.6v4.4L763.4,209.1z M767.7,208.4l-1.5-0.4v-4.3l1.5,0.4V208.4z M767.7,201.9l-3.6-1l1.8-0.9
		l1.8,0.5V201.9z M767.7,200l-1.5-0.4v-22.1l1.5,0.4V200z M767.7,175.7l-3.4-1l1.6-0.8l1.8,0.5L767.7,175.7L767.7,175.7z
		 M767.7,173.9l-1.5-0.4v-1l1.5,0.4V173.9z M767.7,170.8l-3.8-1.1l2-1l1.8,0.5V170.8z M763.4,169.4V141l2.3,0.6v26.6L763.4,169.4z
		 M767.7,168.7l-1.5-0.4v-26.5l1.5,0.4V168.7z M767.7,140l-3.8-1.1l2-1l1.8,0.5V140z M767.7,137.9l-1.5-0.4v-3.3l1.5,0.4V137.9z
		 M767.7,132.4l-1.5-0.4v-0.6c0.5,0.3,1,0.5,1.5,0.8V132.4z M774.9,177.7l-4.7-1.3l2.3-1.1l2.4,0.7V177.7z M769.8,176.1v-2.5
		l2.6,0.7v0.6L769.8,176.1z M774.9,175.5l-2.1-0.6v-0.5l2.1,0.6V175.5z M774.9,172.8l-5.1-1.4v-0.1l0.1,0.1l2.6-1.3l2.4,0.7V172.8z
		 M769.8,170.8v-28l2.5,0.7v26.2L769.8,170.8z M774.9,170.2l-2.1-0.5v-26l2.1,0.6V170.2z M774.9,142l-5.1-1.4v-0.2l0.1,0.1l2.6-1.3
		l2.4,0.7V142z M769.8,140v-4.8l2.5,0.7v2.9L769.8,140z M774.9,139.4l-2.1-0.6V136l2.1,0.6V139.4z M775.9,133.5L775.9,133.5
		c-13.5-5-24.6-14.5-31.6-27h2.1c7.1,12.2,18.4,21.3,31.7,25.8L775.9,133.5z M709.1,207.5c-2.9-12.8-4.3-19.2-7.9-19.1
		c-0.7,0-1.3,0.3-1.7,0.8c-0.5,0.6-0.7,1.4-0.7,2.2V215c4,2.7,8.4,5,12.8,6.9c0-2.1-0.6-5.7-2.2-12.6L709.1,207.5z M779.8,189.2
		c-0.2-0.2-0.5-0.4-0.8-0.6c-0.3-0.1-0.6-0.2-0.9-0.2c-3.6-0.2-5,6.3-7.9,19.1l-0.4,1.8c-1.6,7.2-2.2,10.8-2.1,12.9
		c4.5-1.8,8.8-4.1,12.8-6.7v-24C780.6,190.6,780.3,189.8,779.8,189.2z"/>
	<g id="wine">
		<path class="st10" d="M641.9,145.9v0.6l-21.6,7.4c0,0.9,0.1,1.8,0.3,2.6l22,8.5c4.4,1.7,6.4,2.5,6.7,4.5l0.1,1h0.6l0.5-10.6h-0.6
			l-0.4,2v0.1c-0.2,0.8-0.5,1.8-1.5,1.8c-1.5-0.3-2.9-0.6-4.3-1.1l-1.3-0.2l-14.9-5.1v-0.6l22.7-7.5c0-0.7-0.1-1.3-0.3-2l-21.5-8.3
			v-0.6l18.4-4.6l0.2-0.1c0.7-0.2,1.5-0.3,2.3-0.4c0.9,0,1.1,0.8,1.3,2.2l0.2,1.7h0.6l0.7-13.2h-0.6l-0.3,1.1
			c-0.6,1.8-1.6,2.1-3.8,2.7l-26.2,7.5c0,0.9,0.1,1.8,0.3,2.6L641.9,145.9z"/>
		<path class="st10" d="M630,186.3l16.6-4.9c0.6-0.2,1.2-0.3,1.8-0.4c1.1,0,1.5,0.6,2,1.8c0.1,0.3,0.4,1.1,0.6,1.1h0.1
			c0.1,0,0.1,0,0.1-0.1s0.1-0.2-0.1-0.5l-0.1-0.2c0-0.2-0.1-0.3-0.2-0.4c-0.9-2.6-1-3-1.3-4c-0.2-0.9-0.4-1.5-0.6-2.3l-0.3-1
			c-0.2-0.7-0.2-1-0.3-1.2c0-0.1-0.1-0.2-0.1-0.3l-0.1-0.2c-0.1-0.3-0.2-0.5-0.3-0.5h-0.1c-0.1,0-0.3,0.1,0,1.3
			c0.5,2-0.2,2.6-2.4,3.2l-16.6,4.9c-0.6,0.2-1.2,0.3-1.8,0.4c-1.1,0-1.5-0.7-1.9-1.8c-0.1-0.3-0.4-1.1-0.6-1.1h-0.1
			c-0.1,0-0.1,0-0.2,0.1c0,0,0,0.1,0.1,0.5l0.1,0.2c0,0.2,0.1,0.3,0.2,0.4l0.5,1.6c0.4,1.1,0.6,1.7,0.8,2.5c0.3,1,0.6,2.3,0.9,3.2
			c0.2,0.7,0.2,1,0.3,1.2c0,0.1,0.1,0.2,0.1,0.4l0.1,0.2c0.1,0.5,0.2,0.5,0.3,0.5h0.1c0.1-0.1,0.3-0.1,0-1.3
			C627.1,187.5,627.8,186.9,630,186.3z"/>
		<path class="st10" d="M664.6,210.3c0.2,0.3,0.7,1,0.9,1h0.1c0.1,0,0.1-0.1,0.1-0.1c0-0.1-0.1-0.3-0.1-0.4c-0.1-0.2-0.3-0.6-0.7-1
			s-0.9-1.4-1.5-2.4s-1.1-1.9-1.4-2.7c-0.1-0.2-0.3-0.4-0.4-0.7c0-0.1-0.1-0.1-0.1-0.2c-0.2-0.4-0.4-0.5-0.5-0.5h-0.1
			c-0.1,0.1-0.2,0.3,0.5,1.6c1,2,0.3,2.6-3.4,4.9l-11.6,6.9l8.4-22.4c0.5-1.2,0.5-1.2,0.2-1.7l-1.4-2.4l-1.8-3.4
			c-0.4-0.6-0.5-0.7-0.6-0.7h-0.1c-0.1,0.1-0.2,0.1,0.4,1.3c1.1,1.9,0.6,2.6-2.1,4.1l-11.8,6.8c-2.8,1.6-4.1,2.4-5,2.4
			c-0.8,0-1.2-0.5-1.7-1.2c-0.3-0.5-0.7-0.9-1.1-1.3h0.2c-0.1,0.1-0.1,0.2,0,0.5s0.5,0.8,0.9,1.3c0.6,0.8,1.2,1.7,1.7,2.6
			c0.4,0.6,0.7,1.3,1.1,2.1l0.1,0.2l0.5,1.1c0.2,0.3,0.4,0.4,0.5,0.4h0.1c0.2-0.1,0.1-0.4,0-0.5c-1.6-3.4-1.3-3.8,4-6.9l12.9-7.7
			l-10,27.5c-0.2,0.8-0.3,1.2-0.2,1.4s0.2,0.2,0.3,0.2c0.2,0,0.5-0.1,0.7-0.3l18.4-10.8c0.5-0.4,1.2-0.6,1.8-0.7
			C663.5,208.9,663.9,209.4,664.6,210.3z"/>
		<path class="st10" d="M680.4,225.3c-0.6-0.5-1.2-1.1-1.9-1.8l-8.8-8.5c-0.1-0.1-0.3-0.3-0.6-0.6c-0.2-0.3-0.5-0.5-0.8-0.8
			l-0.1-0.1l0,0c-0.1-0.2-0.3-0.3-0.4-0.5c-0.3-0.3-0.4-0.3-0.4-0.3c-0.1,0-0.1,0-0.1,0.1c-0.1,0.1-0.2,0.2,0.6,1.1
			c1.4,1.5,1.1,2.4-0.5,4l-12,12.5c-0.9,0.9-1.6,1.5-2.3,1.5c-0.6-0.1-1.2-0.4-1.7-0.8c-0.2-0.2-0.8-0.7-1-0.7c0,0,0,0-0.1,0.1
			s-0.2,0.2,0.2,0.6c0.2,0.2,0.3,0.3,0.5,0.4c0.3,0.3,0.5,0.5,0.8,0.8c0.2,0.2,0.5,0.4,0.7,0.6l10.6,10.3c0.5,0.5,0.8,0.8,1,0.8
			s0.5-0.3,1-0.8l0.2-0.2c0.6-0.5,1.2-1,1.8-1.5c0.4-0.3,0.8-0.6,1.2-0.9c0.1-0.1,0.1-0.1,0.1-0.2v-0.1c0-0.1-0.1-0.1-0.2-0.1
			c-0.1,0-0.2,0-0.3,0c-1.3,0.5-2.6,0.7-3.9,0.8c-1.8,0-3.1-0.9-4.8-2.5c-1.2-1.2-2-2.1-2.1-3s0.5-1.8,1.4-2.8l5-5.1
			c0.2-0.3,0.6-0.6,1-0.6c0.5,0,1,0.4,2.2,1.6c2.8,2.7,3,3.8,1.6,6.4c-0.4,0.7-0.2,0.8-0.1,0.9l0,0h0.1c0.1,0,0.1,0,0.2-0.1
			c0.1,0,0.1-0.1,0.1-0.1l2-2.4l0.2-0.1c0.2-0.1,0.4-0.3,0.7-0.6l0.6-0.6l0.7-0.6l0.6-0.6l0.8-0.7c0.1-0.1,0.2-0.2,0.2-0.2l-0.1-0.1
			c0,0,0,0-0.1-0.1h-0.1c-0.1,0-0.3,0.1-0.4,0.1c-0.7,0.4-1.6,0.7-2.4,0.7c-1.3,0-2.5-0.9-4.5-2.9c-0.9-0.9-1.2-1.3-1.2-1.8
			s0.3-0.9,0.8-1.3l4.3-4.4c0.8-0.8,1.4-1.4,2-1.4s1.1,0.4,1.9,1.2c1.3,1.2,2.4,2.6,3.3,4.1c0.7,1.5,0.7,2.1,0,4.5
			c-0.1,0.3-0.2,0.6,0,0.7h0.1c0,0,0.1,0,0.3-0.2l2.6-2.7c0.2-0.2,0.4-0.4,0.5-0.6c0-0.1-0.1-0.1-0.1-0.2
			C680.9,225.7,680.6,225.5,680.4,225.3z"/>
		<path class="st10" d="M727.7,243.2c0-0.1,0-0.1,0-0.2c0,0-0.1-0.2-0.5-0.3l-0.7-0.2c-0.5-0.1-0.9-0.3-1.4-0.5l-4.4-1.7
			c-0.4-0.2-0.8-0.3-1.2-0.3s-0.8,0.3-1.5,1l-14.6,16.2l-1.2-21.9c-0.1-1.7-0.1-1.7-0.9-2c-0.5-0.2-1.2-0.4-2-0.7
			c-0.7-0.2-1.6-0.5-2.4-0.8l-0.1-0.1c-1-0.4-1.5-0.6-2.1-0.8c-0.3-0.1-0.6-0.2-0.8-0.4c-0.2-0.1-0.4-0.1-0.7-0.2
			c-0.1,0-0.2,0-0.3,0.2v0.1v0.1c0.2,0.4,1.1,0.7,1.5,0.8c2.3,0.9,2.4,1.2,1.7,3.4c-0.5,1.2-1.1,3-2,5.1l-0.1,0.3
			c-0.2,0.6-0.2,0.6-0.5,1.1s-0.6,1.3-1.5,3.4l-2,4.6l-0.7,1.6l-0.8,1.9l-0.8,1.9l-0.1,0.1c-0.8,1.7-1.3,2.4-2.6,2.4
			c-0.4,0-0.8-0.1-1.1-0.1c-0.5-0.1-0.9-0.2-1.4-0.2c-0.2,0-0.2,0-0.3,0.2s0,0.2,0,0.2s0.1,0.2,0.5,0.3s1.2,0.4,2,0.6
			c1.2,0.4,2.1,0.6,2.8,0.9c0.5,0.2,1.5,0.6,2.7,1.1c0.3,0.1,0.6,0.2,0.9,0.3l0.3,0.1c0.2,0.1,0.5,0.1,0.8,0.2
			c0.2,0,0.3-0.1,0.3-0.2c0.1-0.2,0.2-0.4-1.3-1c-2.9-1.1-2.7-2.1-0.3-9c1.2-3.3,2.5-6.5,5.9-14.3l0.6,0.1l1.6,25.1
			c0,1,0.2,1.2,0.4,1.2h0.2c0.2,0,0.5-0.3,1.2-1l17-18.8l0.5,0.3l-6.6,19.7c-0.7,1.9-1.3,3-2.6,3c-0.4,0-0.8-0.1-1.2-0.2
			c-0.5-0.2-1-0.3-1.5-0.3c-0.2,0-0.2,0-0.3,0.3s0,0.2,0,0.2c0.1,0.1,0.3,0.3,0.5,0.3c0.1,0,0.9,0.3,1.6,0.5l0.2,0.1
			c1.3,0.4,2.6,0.9,3.9,1.3c0.9,0.3,2.1,0.8,3.4,1.3l0.6,0.2c0.4,0.2,0.8,0.3,1.2,0.5c0.2,0.1,0.4,0.1,0.6,0.1
			c0.2,0,0.3-0.1,0.3-0.2V270c0-0.1-0.2-0.3-1-0.6c-2.2-0.9-2.2-1.5-1.2-4.6l6.2-19.3l0.2-0.6c0.5-1.3,0.9-2.2,2-2.2
			c0.5,0,1,0.1,1.5,0.3S727.1,243.3,727.7,243.2C727.6,243.4,727.6,243.4,727.7,243.2z"/>
		<path class="st10" d="M747.7,265.9c-0.1,0-0.2,0-0.4,0.3c-2.2,3.8-3.4,4.6-6.9,4.6h-0.6c-1.7,0-2.9-0.2-3.6-0.8s-0.9-1.6-0.9-3
			l0.2-7.2c0-1.2,0.3-1.5,1.9-1.5c0.3,0,0.7,0,1.1,0c3.9,0.1,4.8,0.7,5.5,3.6c0.2,0.8,0.4,0.8,0.5,0.8h0.1c0,0,0,0,0.1,0l0.1-0.1
			c0-0.1,0-0.1,0-0.2l-0.1-3.1v-0.2c0-0.2,0-0.5,0.1-0.9l0.1-0.9l0.1-0.9l0.1-0.9l0.1-1c0-0.1,0-0.2,0-0.2h-0.1c0,0-0.2,0-0.3,0.4
			c-1,2.6-2,3.2-5.4,3.2H738c-2-0.1-2.5-0.2-2.5-2l0.2-6.1c0-2.2,0.3-2.8,2.3-2.8h0.4c1.8,0,3.5,0.3,5.2,0.8c1.5,0.6,2,1.1,3,3.3
			c0.1,0.3,0.3,0.6,0.5,0.6s0.2,0,0.2-0.4l0.1-3.8c0-0.3,0-0.6,0-0.8c-0.1,0-0.1,0-0.2,0h-0.3c-0.2,0-0.4,0-0.6,0h-2.7l-12.2-0.4
			c-0.3,0-0.6,0-0.9-0.1c-0.3,0-0.7-0.1-1-0.1h-0.1c-0.2,0-0.4,0-0.6-0.1h-0.1c-0.5,0-0.5,0.1-0.5,0.2s0,0.3,1.2,0.4
			c2,0.1,2.4,1,2.3,3.3l-0.4,17.4c0,2.3-0.4,3.1-2.5,3.2c-1.2,0-1.2,0.2-1.2,0.3c0,0.1,0,0.1,0,0.2c0,0,0.1,0.1,0.5,0.1h0.2
			c0.2,0,0.4,0,0.5,0c0.2,0,0.4,0,0.6,0h0.5c0.2,0,0.5,0,0.6,0h0.3l14.8,0.4h0.6c0.8,0,0.8,0,0.9-1.4v-0.3c0.1-1,0.2-1.7,0.3-2.3
			c0.1-0.5,0.2-1,0.3-1.4c0-0.1,0-0.2-0.1-0.2H747.7z"/>
		<path class="st10" d="M777.9,265.4c-1.2,0-1.7-0.5-3.1-2.1l-5.5-5.9c-0.6-0.8-1.4-1.4-2.4-1.7l-0.8-0.3l0.8-0.3
			c3.6-1.6,4.9-3.8,4.2-6.9c-0.7-2.9-2.9-4.5-6.3-4.5c-0.9,0-1.9,0.1-2.8,0.3c-0.4,0.1-1.7,0.4-3,0.8l-0.6,0.1
			c-1.1,0.3-2.1,0.5-3.2,0.8h-0.1c-1,0.2-1.8,0.4-2.9,0.6l-1.2,0.2l-0.4,0.1l-0.2,0.1c-0.4,0.1-0.5,0.2-0.5,0.2c0,0.1,0,0.1,0,0.2
			c0,0.1,0,0.2,0.4,0.2c0.3,0,0.6,0,0.8-0.1c0.3,0,0.6-0.1,0.8-0.1c1.4,0,1.8,0.9,2.2,2.7l3.8,16.9c0.5,2.2,0.3,3.1-1.7,3.7
			c-1.2,0.4-1.2,0.5-1.1,0.6s0,0.2,0.2,0.2c0.1,0,0.3,0,0.4,0l0.3-0.1c0.1,0,0.3-0.1,0.4-0.1l2-0.5c1-0.3,1.5-0.4,2.1-0.5
			s1.6-0.3,2.7-0.5l0.6-0.1l1.2-0.2c0.1,0,0.2,0,0.3-0.1h0.2c0.5-0.1,0.5-0.2,0.5-0.4s0-0.2-0.4-0.2c-0.3,0-0.6,0-0.9,0.1
			c-0.3,0.1-0.6,0.1-0.9,0.1c-1.4,0-1.8-0.9-2.2-2.7l-1.6-7.2c-0.1-0.3-0.1-0.7,0-1c0.1-0.1,0.2-0.2,0.4-0.3
			c0.1-0.1,0.3-0.1,0.5-0.1c0.4-0.1,0.9-0.2,1.4-0.2c0.9,0,1.4,0.4,2.3,1.5l7,7.9c0.6,0.7,0.8,0.8,1.1,0.8c0.1,0,0.2,0,0.3,0
			l2.6-0.7h0.1c0.2,0,0.5-0.1,0.7-0.1c0.8-0.2,1.4-0.3,1.8-0.3s0.4-0.1,0.5-0.1c0.2,0,0.4,0,0.6-0.1c0.1,0,0.2,0,0.2-0.1
			s0-0.1,0-0.2s-0.1-0.1-0.2-0.1c-0.1,0-0.1,0-0.2,0C778.8,265.5,778.4,265.5,777.9,265.4z M762.3,256.4c-0.5,0.1-1.1,0.3-1.6,0.3
			c-0.9,0-1-0.6-1.2-1.5l-1.5-6.7c-0.5-2.1-0.3-3,1.7-3.4c0.6-0.1,1.1-0.2,1.7-0.2c2.9,0,5,1.8,5.7,4.9
			C767.9,253.3,766.3,255.5,762.3,256.4L762.3,256.4z"/>
		<path class="st10" d="M800.9,248.9c0-0.1-0.1-0.2-0.2-0.2h-0.1c-0.2,0.1-0.3,0.2-0.3,0.9c-0.3,4.6-1.6,7-4.7,8.5
			c-1.2,0.6-2.6,0.9-4,0.9c-4.4,0-8.7-3-11-7.7c-1.4-2.8-1.8-6.1-1-9.2c0.8-2.9,2.8-5.2,5.4-6.5c1.1-0.6,2.4-1,3.7-1
			c1.7,0.1,3.4,0.7,4.9,1.6c0.2,0.1,0.5,0.2,0.8,0.3c0.1,0,0.2,0,0.2-0.1c0.2-0.1,0.2-0.1,0.1-0.3l-0.1-0.1l-1.6-2.4
			c-0.4-0.6-0.6-0.8-1-0.8c-0.2,0-0.4,0-0.7,0.1c-2.1,0.5-4.2,1.2-6.2,2.1c-8,3.9-11.8,11.9-8.8,18.3c1.6,3.3,5.4,6,9.6,6.6
			c0.7,0.1,1.5,0.2,2.2,0.2c2.6,0,5.2-0.7,7.5-1.8c2.3-1.1,4.4-2.7,6.1-4.6c0.6-0.8,0.6-1.1,0.4-1.7L800.9,248.9z"/>
		<path class="st10" d="M831.1,230.7c-0.4,0.1-0.7,0.4-1,0.6c-0.5,0.5-1.1,0.7-1.7,0.8c-0.8,0-1.4-0.6-2.3-1.5l-11.7-12.9
			c-1.5-1.7-1.8-2.5-0.3-4c0.8-0.9,0.8-1,0.7-1.1l-0.1-0.1c0,0-0.2,0-0.5,0.3l-0.5,0.5l-0.8,0.8l-0.6,0.6c-0.6,0.6-1,1-1.6,1.5
			c-1.1,1-1.5,1.4-2.6,2.3l-0.9,0.8l-0.5,0.4c-0.4,0.4-0.3,0.5-0.2,0.6s0.1,0.1,0.1,0.1c0.4-0.1,0.7-0.4,1-0.6
			c0.4-0.4,1-0.7,1.7-0.8c0.8,0,1.4,0.6,2.3,1.5l3.9,4.3c0.4,0.5,0.7,0.8,0.6,1.1s-0.4,0.8-1,1.3l-6.7,6.1c-0.6,0.5-0.9,0.8-1.2,0.8
			s-0.6-0.3-1.1-0.8l-3.9-4.3c-1.5-1.7-1.8-2.5-0.4-4c0.8-0.9,0.7-1,0.7-1.1l-0.1-0.1c0,0-0.2,0-0.5,0.3l-0.2,0.2
			c-0.1,0.1-0.2,0.2-0.2,0.2l0,0l0,0c-2,2-2.2,2.1-3.2,3.1c-0.6,0.5-1.6,1.4-2.4,2.1l-1,0.8c-0.1,0.1-0.2,0.1-0.2,0.2l-0.2,0.2
			c-0.3,0.3-0.3,0.4-0.3,0.4c0,0.1,0,0.1,0.1,0.1l0.1,0.1c0.2,0,0.8-0.5,1-0.6c0.4-0.4,1-0.7,1.7-0.8c0.8,0,1.4,0.6,2.3,1.6
			l11.6,12.9c1.5,1.7,1.8,2.5,0.4,4c-0.9,0.9-0.8,1-0.7,1.1s0.1,0.1,0.1,0.1s0.2,0,0.4-0.3c0.1-0.1,0.3-0.3,0.6-0.6l0.7-0.7l0.7-0.6
			c0.6-0.5,1-1,1.5-1.4c1.1-1,1.5-1.4,2.6-2.3l0.9-0.8c0.2-0.2,0.4-0.3,0.4-0.4c0.4-0.4,0.3-0.4,0.2-0.6s-0.1-0.1-0.1-0.1
			c-0.2,0-0.8,0.5-1,0.6c-0.4,0.4-1,0.7-1.7,0.8c-0.8,0-1.4-0.6-2.3-1.5l-5.4-5.8c-0.3-0.3-0.6-0.6-0.5-1.1s0.4-0.6,1-1.2l6.7-6.1
			c0.6-0.5,0.9-0.8,1.2-0.8c0.4,0.1,0.7,0.3,0.9,0.6l5.3,5.9c1.5,1.7,1.8,2.5,0.4,4c-0.8,0.9-0.8,1-0.7,1.1s0.1,0.1,0.1,0.1
			s0.2,0,0.5-0.3l0.2-0.2c0.1-0.1,0.2-0.2,0.2-0.2v-0.1l0,0c1.9-1.9,2.2-2.1,3.1-3l0.1-0.1c0.5-0.5,1.1-0.9,1.7-1.5l0.8-0.7
			c0.6-0.5,0.8-0.7,1-0.8c0.1-0.1,0.2-0.1,0.2-0.2l0.2-0.2c0.3-0.3,0.3-0.4,0.3-0.4C831.2,230.8,831.2,230.8,831.1,230.7
			L831.1,230.7z"/>
		<path class="st10" d="M847.1,207.1c-0.1,0-0.1,0-0.2,0c-0.1,0-0.1,0.1-0.1,0.1c-0.9,1-1.4,1.6-2.7,1.6c-1.2-0.1-2.4-0.2-3.5-0.5
			l-16.5-3.1c-1.2-0.2-2.3-0.5-3.3-0.7c-0.6-0.2-1.2-0.3-1.8-0.4c-0.2,0-0.2,0-0.3,0.1s-0.2,0.2,0.8,1.5c0.1,0.1,0.2,0.3,0.5,0.8
			s0.5,0.8,0.8,1.2l1.2,1.9l1.2,1.8c2.1,3,2.5,3.7,3.7,5.4l0.8,1.2c2.5,3.7,3.4,5.1,4.2,6.6c1.1,1.9,1.1,2.4,0.2,4
			c-0.5,0.8-0.3,0.9-0.3,1c0.1,0,0.1,0.1,0.2,0.1c0.1,0,0.2-0.1,0.3-0.2c0.2-0.2,0.3-0.4,0.4-0.7c0.5-0.8,1-1.6,1.6-2.5
			c0.4-0.5,0.9-1.2,1.4-1.9l0.3-0.5l0.7-0.9l0.2-0.4c0.2-0.2,0.3-0.4,0.3-0.7c0-0.1,0-0.1-0.1-0.1c0,0-0.1,0-0.1-0.1
			c-0.1,0-0.4,0.2-0.9,0.9c-0.7,1-1.2,1.4-1.8,1.4c-0.2,0-0.5-0.1-0.7-0.2c-0.5-0.4-0.9-0.9-1.3-1.4l-2.8-3.6c-0.7-1-0.7-1.1,0-2.3
			l2.9-4.3c0.5-0.7,0.7-1.1,1.3-1.1c0.3,0,0.7,0.1,1,0.2l5.1,1.2c0.4,0.1,0.9,0.3,1.3,0.5c0.1,0.1,0.2,0.1,0.3,0.2
			c0.1,0.1,0.1,0.2,0.2,0.3c0.1,0.6-0.1,1.2-0.5,1.6c-0.6,1.1-0.4,1.2-0.3,1.3h0.1c0,0,0.2,0,0.4-0.4c0.1-0.2,0.2-0.3,0.3-0.5
			c1.5-2.5,1.5-2.6,2.3-3.8s1.9-2.7,2.5-3.4c0.1-0.2,0.2-0.3,0.3-0.5c0.1-0.1,0.1-0.2,0.2-0.2C847,207.5,847.1,207.3,847.1,207.1
			L847.1,207.1C847.3,207,847.2,207,847.1,207.1L847.1,207.1z M831.6,212.3l-2.3,3.4c-0.4,0.6-0.6,0.9-1,0.9c-0.1,0-0.3,0-0.4-0.1
			c-0.2-0.2-0.5-0.4-0.6-0.7l-4.7-6.7l8.3,1.6c0.7,0.2,0.8,0.2,0.9,0.3C832.2,211.4,831.9,211.9,831.6,212.3z"/>
		<path class="st10" d="M856.4,181.4l-20.1-7.1c-2-0.7-2.4-1.3-1.8-3.3c0.3-1.4,0.2-1.4,0-1.5h-0.1c-0.1,0-0.3,0.3-0.3,0.4
			s-0.2,0.7-0.3,1.1c-0.3,1-0.6,1.9-0.9,2.7c-0.4,1.1-0.8,2.1-1.1,2.8c-0.1,0.2-0.2,0.5-0.3,0.7s-0.1,0.2-0.1,0.2
			c-0.1,0.2-0.1,0.4-0.1,0.6c0,0.1,0,0.1,0.2,0.2s0.4-0.5,0.8-1.4s0.9-1.6,1.9-1.6c1.4,0.2,2.7,0.5,4,1l12.8,4.4l-22.5,8.1
			c-1.2,0.4-1.2,0.4-1.4,0.9l-0.9,2.6l-1.4,3.5c-0.3,0.8-0.2,0.9-0.1,0.9h0.1c0.1,0,0.3-0.1,0.6-1.1s0.7-1.8,1.8-1.8
			c0.9,0.1,1.8,0.3,2.6,0.7l12.8,4.6c5.1,1.8,5.8,2.1,5.2,4.4c-0.2,0.6-0.2,1.1-0.3,1.7h0.1h0.1c0.1,0,0.2-0.1,0.3-0.4
			c0.2-0.5,0.3-1,0.4-1.5c0.2-1,0.5-2,0.9-3c0.3-0.7,0.6-1.4,0.9-2.2l0.1-0.1l0.5-1.2c0.2-0.6,0-0.7,0-0.7h-0.1
			c-0.1,0-0.2,0.1-0.3,0.4c-0.8,1.7-1.2,2.8-2.8,2.8c-1.7-0.2-3.5-0.7-5.1-1.4l-14.2-4.9l27.4-10.2c0.7-0.3,1.1-0.5,1.2-0.8
			S857.2,181.7,856.4,181.4z"/>
		<path class="st10" d="M856.5,155l-18.8-0.9c-0.6,0-1-0.1-1.2-0.3s-0.3-1-0.2-2.7v-0.4c0.2-3.7,1.2-4.9,4.5-5.4
			c0.6-0.1,0.6-0.2,0.6-0.3s0-0.3-0.9-0.4l-5-0.5L835,144h-0.3c-0.2,0-0.6,0-0.6,0.3s0,0.2,0.3,0.3c0.6,0.2,1,0.7,1.1,1.2
			c0.2,1.4,0.2,2.7,0.1,4.1l-0.6,13.8c-0.1,1.2-0.3,1.9-1.5,2.1c-0.3,0-0.3,0.1-0.3,0.1v0.1c0,0,0,0.2,0.5,0.4l5.7,2
			c0.2,0.1,0.4,0.1,0.6,0.1c0,0,0.1,0,0.1-0.1v-0.1v-0.1c0-0.2,0-0.3-0.6-0.7c-1.3-0.9-2.3-1.9-3.1-3.2c-0.5-1-0.7-2.3-0.6-5
			c0-0.8,0.3-1.3,1.3-1.3h0.2l19,0.9c2.3,0.1,3,0.5,3.1,2.6c0,1.2,0.2,1.2,0.3,1.2s0.2,0,0.3-0.6c0-0.2,0-0.7,0-1.7s0-2.4,0-3
			c0-1,0.1-2.1,0.3-3.5c0.1-1.2,0.1-1.6,0.2-1.8c0-0.2,0-0.4-0.1-0.6c0,0-0.1,0-0.2,0s-0.3,0-0.4,1.2c-0.2,1.8-0.8,2.3-2.6,2.3
			C856.8,155.1,856.6,155,856.5,155z"/>
		<path class="st10" d="M838.2,138.4c-2.2,0-3.9-1.6-4.3-4.2c-0.5-2.8,0.3-4.3,3.1-5.8c1.2-0.6,1.2-0.7,1.1-1s0-0.2-0.1-0.2h-0.1
			c-0.2,0-0.5,0-0.7,0.1l-1.3,0.2l-0.7,0.2l-0.4,0.1c-1,0.2-1.3,0.3-1.4,0.4c-0.3,0.4-0.4,3.5,0,5.7c0.7,4.2,3.4,6.8,6.8,6.8
			c0.4,0,0.8,0,1.2-0.1c3.2-0.6,4.6-2.5,5.8-7.8c1.1-4.7,2.5-6.8,5.2-7.2c0.3,0,0.5-0.1,0.8-0.1c2.5,0.1,4.6,1.9,5,4.4
			c0.6,3.3-1.6,6.7-5.2,8.2c-0.1,0-0.4,0.2-0.4,0.3s0,0.2,0.3,0.2h0.2c0.8-0.1,2.7-0.3,3.7-0.5s1.4-0.4,1.5-0.7
			c0.7-2.2,0.8-4.5,0.4-6.7c-0.8-4.5-4-7.6-7.9-7.6c-0.5,0-0.9,0-1.4,0.1c-3.3,0.6-5.2,3-6.2,7.9c-1,5.1-1.9,6.5-4.3,7
			C838.8,138.4,838.5,138.4,838.2,138.4z"/>
		<path class="st11" d="M641.3,145.6v0.6l-21.6,7.4c0,0.9,0.1,1.8,0.3,2.6l22,8.5c4.4,1.7,6.4,2.5,6.7,4.5l0.1,1h0.6l0.5-10.6h-0.6
			l-0.4,2v0.1c-0.2,0.8-0.5,1.8-1.5,1.8c-1.5-0.3-2.9-0.6-4.3-1.1l-1.1-0.3l-14.9-5.1v-0.6l22.7-7.5c0-0.7-0.1-1.4-0.3-2.1
			l-21.5-8.3v-0.6l18.4-4.5h0.2c0.7-0.2,1.5-0.3,2.3-0.4c0.9,0,1.1,0.8,1.3,2.2l0.2,1.7h0.6l0.7-13.2h-0.6l-0.3,1.1
			c-0.6,1.8-1.6,2.1-3.8,2.7l-26.2,7.5c0,0.9,0.1,1.8,0.3,2.6L641.3,145.6z"/>
		<path class="st11" d="M629.4,186l16.6-4.9c0.6-0.2,1.2-0.3,1.8-0.4c1.1,0,1.5,0.6,2,1.8c0.1,0.3,0.4,1.1,0.6,1.1h0.1
			c0.1,0,0.1,0,0.1-0.1c0,0,0.1-0.2-0.1-0.5l-0.1-0.2c0-0.1-0.1-0.3-0.2-0.4c-0.9-2.6-1-3-1.3-4c-0.2-0.9-0.4-1.5-0.6-2.3l-0.3-1
			c-0.2-0.7-0.2-1-0.3-1.2c0-0.1-0.1-0.2-0.1-0.3l-0.1-0.2c-0.1-0.3-0.2-0.5-0.3-0.5h-0.1c-0.1,0-0.3,0.1,0,1.3
			c0.5,2-0.2,2.6-2.4,3.2l-16.6,4.9c-0.6,0.2-1.2,0.3-1.8,0.4c-1.1,0-1.5-0.7-1.9-1.8c-0.1-0.3-0.4-1.1-0.6-1.1h-0.1
			c-0.1,0-0.1,0-0.2,0.1c0,0,0,0.1,0.1,0.5l0.1,0.2c0,0.2,0.1,0.3,0.2,0.4l0.5,1.6c0.4,1.1,0.6,1.7,0.8,2.5c0.3,1,0.6,2.3,0.9,3.2
			c0.2,0.7,0.2,1,0.3,1.2s0,0.2,0.1,0.4l0.1,0.2c0.1,0.5,0.2,0.5,0.3,0.5h0.1c0.1-0.1,0.3-0.1,0-1.3
			C626.5,187.2,627.2,186.6,629.4,186z"/>
		<path class="st11" d="M664,210c0.2,0.3,0.7,1,0.9,1h0.1c0.1-0.1,0.1-0.1,0.1-0.1c0-0.1-0.1-0.3-0.1-0.4c-0.1-0.2-0.3-0.6-0.7-1
			s-0.9-1.4-1.5-2.4s-1.1-2-1.4-2.7c-0.1-0.2-0.3-0.5-0.3-0.7l-0.1-0.2c-0.2-0.4-0.4-0.5-0.5-0.5h-0.1c-0.1,0.1-0.2,0.3,0.5,1.6
			c1,2,0.3,2.6-3.4,4.9l-11.6,6.9l8.4-22.4c0.5-1.2,0.5-1.2,0.2-1.7l-1.4-2.4l-1.8-3.3c-0.4-0.6-0.5-0.7-0.6-0.7h-0.1
			c-0.1,0.1-0.3,0.1,0.4,1.3c1.1,1.9,0.6,2.6-2.1,4.1l-11.7,6.8c-2.8,1.6-4.1,2.4-5,2.4c-0.8,0-1.2-0.5-1.7-1.2
			c-0.3-0.5-0.7-0.9-1.1-1.3l-0.1,0.1c-0.1,0.1-0.1,0.2,0,0.5c0.3,0.5,0.6,0.9,0.9,1.3c0.6,0.8,1.2,1.7,1.7,2.6
			c0.4,0.6,0.7,1.3,1.1,2.1l0.1,0.2l0.5,1.1c0.2,0.3,0.4,0.4,0.5,0.4h0.1c0.2-0.1,0.1-0.4,0-0.5c-1.7-3.4-1.3-3.8,4-6.9l12.9-7.7
			l-10,27.5c-0.2,0.8-0.3,1.2-0.2,1.4s0.2,0.2,0.3,0.2c0.2,0,0.5-0.1,0.7-0.3l18.4-10.7c0.5-0.4,1.2-0.6,1.8-0.7
			C662.8,208.6,663.4,209.1,664,210z"/>
		<path class="st11" d="M679.7,224.9c-0.6-0.5-1.2-1.1-2-1.8l-8.8-8.5c-0.1-0.1-0.3-0.3-0.6-0.6s-0.5-0.5-0.8-0.8l-0.1-0.1l0,0
			c-0.1-0.2-0.3-0.3-0.4-0.5c-0.3-0.3-0.4-0.3-0.4-0.3c-0.1,0-0.1,0-0.1,0.1c-0.1,0.1-0.2,0.2,0.6,1.1c1.4,1.5,1.1,2.4-0.5,4
			l-12,12.5c-0.9,0.9-1.6,1.5-2.3,1.5c-0.6-0.1-1.2-0.4-1.7-0.8c-0.2-0.2-0.8-0.7-1-0.7c0,0,0,0-0.1,0.1s-0.2,0.2,0.2,0.6
			c0.2,0.2,0.3,0.3,0.5,0.4c0.3,0.3,0.5,0.5,0.8,0.8c0.2,0.2,0.5,0.4,0.7,0.6l10.6,10.3c0.5,0.5,0.8,0.8,1,0.8s0.5-0.3,1-0.8
			l0.2-0.2c0.6-0.5,1.2-1,1.8-1.4c0.4-0.3,0.8-0.6,1.2-0.9c0.1-0.1,0.1-0.1,0.1-0.2V240c0-0.1-0.1-0.1-0.2-0.1c-0.1,0-0.2,0-0.3,0
			c-1.3,0.5-2.6,0.7-3.9,0.8c-1.8,0-3.1-0.9-4.8-2.5c-1.2-1.2-2-2.1-2.2-3.1s0.5-1.8,1.4-2.8l5-5.1c0.3-0.3,0.6-0.6,1-0.6
			s1,0.4,2.2,1.6c2.8,2.7,3,3.8,1.6,6.4c-0.4,0.7-0.2,0.8-0.1,0.9l0,0l0,0c0.1,0,0.1,0,0.2-0.1c0.1,0,0.1-0.1,0.1-0.1l2-2.3l0.2-0.1
			c0.2-0.1,0.4-0.3,0.7-0.6l0.6-0.6l0.7-0.6l0.6-0.6l0.8-0.7c0.1-0.1,0.1-0.1,0.2-0.2c0,0,0-0.1-0.1-0.1s0,0-0.1,0c0,0,0,0-0.1,0
			s-0.3,0.1-0.4,0.1c-0.7,0.4-1.6,0.7-2.4,0.7c-1.3,0-2.5-0.9-4.5-2.9c-0.9-0.8-1.2-1.3-1.2-1.8s0.3-0.9,0.8-1.3l4.3-4.4
			c0.8-0.8,1.4-1.4,2-1.4s1.1,0.4,1.9,1.2c1.3,1.2,2.4,2.6,3.3,4.1c0.7,1.5,0.7,2.1,0,4.5c-0.1,0.3-0.2,0.6,0,0.7h0.1
			c0,0,0.1,0,0.3-0.2l2.6-2.7c0.2-0.2,0.4-0.4,0.5-0.6c0-0.1-0.1-0.1-0.1-0.2C680.3,225.4,680,225.2,679.7,224.9z"/>
		<path class="st11" d="M727.1,242.9c0-0.1,0-0.1,0-0.2c0-0.1-0.1-0.2-0.5-0.3l-0.7-0.2c-0.5-0.1-0.9-0.3-1.4-0.5l-4.4-1.7
			c-0.4-0.2-0.8-0.3-1.2-0.3s-0.8,0.3-1.5,1l-14.6,16.2l-1.2-21.9c-0.1-1.7-0.1-1.7-0.9-2c-0.5-0.2-1.2-0.4-2-0.7
			c-0.7-0.2-1.6-0.5-2.4-0.8h-0.1c-1-0.4-1.5-0.6-2.1-0.8c-0.3-0.2-0.7-0.3-0.8-0.3c-0.2-0.1-0.4-0.1-0.7-0.2c-0.1,0-0.2,0-0.3,0.2
			v0.1v0.1c0.2,0.4,1.1,0.7,1.5,0.8c2.3,0.9,2.4,1.2,1.7,3.4c-0.4,1.2-1.1,3-2,5.1l-0.1,0.3c-0.2,0.6-0.2,0.6-0.5,1.1
			s-0.6,1.3-1.5,3.4l-2,4.6l-0.7,1.6l-0.8,2l-0.8,1.9L687,255c-0.8,1.7-1.3,2.4-2.6,2.4c-0.4,0-0.8-0.1-1.1-0.1
			c-0.5-0.1-0.9-0.2-1.4-0.2c-0.2,0-0.3,0-0.3,0.2s0,0.2,0,0.2s0.1,0.2,0.5,0.3s1.2,0.4,2,0.6c1.2,0.4,2.1,0.6,2.8,0.9
			c0.5,0.2,1.5,0.6,2.7,1.1c0.3,0.1,0.6,0.2,0.9,0.4l0.3,0.1c0.2,0.1,0.5,0.1,0.8,0.2c0.2,0,0.3-0.1,0.3-0.2c0.1-0.2,0.2-0.4-1.3-1
			c-2.9-1.1-2.7-2.1-0.2-9c1.2-3.3,2.5-6.5,5.9-14.3l0.6,0.1l1.6,25.1c0,1,0.2,1.1,0.4,1.2h0.2c0.2,0,0.5-0.3,1.2-1l17-18.8l0.5,0.3
			L711,263c-0.7,1.9-1.3,3-2.6,3c-0.4,0-0.8-0.1-1.2-0.2c-0.5-0.2-1-0.3-1.5-0.3c-0.2,0-0.2,0-0.3,0.3s0,0.2,0,0.2
			c0.1,0.1,0.3,0.3,0.5,0.3l1.6,0.5l0.2,0.1c1.3,0.4,2.6,0.9,3.9,1.3c0.9,0.3,2.1,0.8,3.4,1.3l0.6,0.2c0.4,0.2,0.8,0.3,1.2,0.5
			c0.2,0.1,0.4,0.1,0.6,0.1c0.2,0,0.3-0.1,0.3-0.2c0,0,0,0,0-0.1c0,0,0,0,0-0.1s-0.2-0.3-1-0.6c-2.2-0.9-2.2-1.5-1.2-4.6l6.2-19.4
			l0.2-0.6c0.5-1.3,0.9-2.2,2-2.2c0.5,0,1,0.1,1.5,0.3s1,0.3,1.5,0.3C727,243.1,727,243.1,727.1,242.9z"/>
		<path class="st11" d="M747.1,265.6c-0.1,0-0.2,0-0.4,0.3c-2.2,3.8-3.4,4.6-6.9,4.6h-0.6c-1.7,0-2.9-0.2-3.6-0.8s-0.9-1.6-0.9-3
			l0.2-7.2c0-1.2,0.3-1.5,1.9-1.5c0.3,0,0.7,0,1.1,0c3.9,0.1,4.8,0.7,5.5,3.6c0.2,0.8,0.4,0.8,0.5,0.8h0.1h0.1l0.1-0.1
			c0-0.1,0-0.1,0-0.2L744,259v-0.2c0-0.2,0-0.5,0.1-0.9l0.1-0.9l0.1-0.9l0.1-0.9l0.1-1c0-0.1,0-0.2,0-0.2h-0.1c0,0-0.2,0-0.3,0.4
			c-1,2.6-2,3.2-5.4,3.2h-1.1c-2-0.1-2.5-0.2-2.5-2l0.2-6.1c0-2.2,0.3-2.8,2.3-2.8h0.5c1.8,0,3.5,0.3,5.2,0.8c1.5,0.6,2,1.1,3,3.3
			c0.1,0.3,0.3,0.6,0.5,0.6s0.2,0,0.2-0.4l0.1-3.8c0-0.3,0-0.6,0-0.8c-0.1,0-0.1,0-0.2,0h-0.3c-0.2,0-0.4,0-0.6,0h-3l-12.2-0.3
			c-0.3,0-0.6,0-0.9-0.1c-0.4,0-0.7-0.1-1.1-0.1h-0.1c-0.2,0-0.4,0-0.6,0H728c-0.5,0-0.5,0.1-0.5,0.2s0,0.3,1.2,0.4
			c2,0.1,2.4,1,2.3,3.3l-0.4,17.4c-0.1,2.3-0.4,3.1-2.5,3.1c-1.2,0.1-1.2,0.2-1.2,0.4c0,0.1,0,0.1,0,0.2c0,0,0.1,0.1,0.5,0.1h0.2
			c0.1,0,0.3,0,0.5,0s0.4,0,0.6,0h0.6c0.2,0,0.5,0,0.6,0h0.3l14.8,0.4h0.6c0.8,0,0.8,0,0.9-1.4v-0.3c0.1-1,0.2-1.7,0.3-2.3
			c0.1-0.5,0.2-0.9,0.3-1.4c0-0.1,0-0.2-0.1-0.2C747.2,265.6,747.2,265.6,747.1,265.6z"/>
		<path class="st11" d="M777.3,265.1c-1.2,0-1.7-0.5-3.1-2.1l-5.5-5.9c-0.6-0.8-1.5-1.4-2.4-1.7l-0.8-0.2l0.8-0.4
			c3.6-1.6,4.9-3.8,4.2-6.9c-0.7-2.9-2.9-4.5-6.3-4.5c-0.9,0-1.9,0.1-2.8,0.3c-0.4,0.1-1.7,0.4-3,0.8l-0.6,0.1
			c-1.1,0.3-2.1,0.5-3.2,0.8h-0.1c-1,0.2-1.8,0.4-2.9,0.6l-1.2,0.2l-0.4,0.1l-0.2,0.1c-0.4,0.1-0.5,0.2-0.5,0.2c0,0.1,0,0.1,0,0.2
			c0,0.1,0,0.2,0.4,0.2c0.3,0,0.6,0,0.8-0.1c0.3,0,0.6-0.1,0.8-0.1c1.4,0,1.8,0.9,2.2,2.7l3.7,16.9c0.5,2.2,0.3,3.1-1.7,3.7
			c-1.2,0.3-1.2,0.5-1.1,0.6s0,0.2,0.2,0.2c0.1,0,0.3,0,0.4,0l0.3-0.1c0.1,0,0.3-0.1,0.4-0.1l2-0.5c1-0.3,1.5-0.4,2.1-0.5
			s1.6-0.3,2.7-0.5l0.6-0.1l1.2-0.2c0.1,0,0.2,0,0.3-0.1h0.2c0.5-0.1,0.5-0.2,0.5-0.4s0-0.2-0.4-0.2c-0.3,0-0.6,0-0.9,0.1
			c-0.3,0.1-0.6,0.1-0.9,0.1c-1.4,0-1.8-0.9-2.2-2.7l-1.6-7.2c-0.1-0.3-0.1-0.7,0-1c0.1-0.1,0.2-0.2,0.4-0.3
			c0.1-0.1,0.3-0.1,0.5-0.1c0.4-0.1,0.9-0.2,1.4-0.2c0.9,0,1.4,0.4,2.3,1.5l7,7.9c0.6,0.7,0.8,0.8,1.1,0.8c0.1,0,0.2,0,0.3,0
			l2.7-0.7h0.1c0.2,0,0.5-0.1,0.7-0.1l1.8-0.3l0.5-0.1c0.2,0,0.4,0,0.6-0.1c0.1,0,0.2-0.1,0.2-0.1c0-0.1,0-0.1,0-0.2
			s-0.1-0.1-0.2-0.1c-0.1,0-0.1,0-0.2,0C778.1,265.1,777.7,265.1,777.3,265.1z M761.7,256.1c-0.5,0.1-1.1,0.3-1.6,0.3
			c-0.9,0-1-0.6-1.2-1.5l-1.5-6.7c-0.5-2.1-0.3-3,1.7-3.4c0.6-0.1,1.1-0.2,1.7-0.2c2.9,0,5,1.8,5.7,4.9
			C767.3,253,765.7,255.2,761.7,256.1L761.7,256.1z"/>
		<path class="st11" d="M800.3,248.6c0-0.1-0.1-0.2-0.2-0.2H800c-0.2,0.1-0.3,0.2-0.3,0.9c-0.3,4.6-1.6,7-4.7,8.5
			c-1.2,0.6-2.6,0.9-4,0.9c-4.4,0-8.7-3-11-7.7c-1.4-2.8-1.8-6.1-1-9.1c0.8-2.9,2.8-5.2,5.4-6.5c1.1-0.6,2.4-1,3.7-1
			c1.7,0.1,3.4,0.7,4.9,1.6c0.2,0.1,0.5,0.2,0.8,0.3c0.1,0,0.2,0,0.2-0.1c0.2-0.1,0.2-0.1,0.1-0.3l-0.1-0.1l-1.6-2.4
			c-0.4-0.6-0.6-0.8-1-0.8c-0.2,0-0.4,0-0.7,0.1c-2.1,0.5-4.2,1.2-6.2,2.1c-8,3.9-11.8,11.9-8.8,18.3c2,3.6,5.5,6,9.6,6.6
			c0.7,0.1,1.5,0.2,2.2,0.2c2.6,0,5.2-0.7,7.5-1.8c2.3-1.1,4.4-2.6,6.1-4.6c0.6-0.8,0.6-1.1,0.4-1.7L800.3,248.6z"/>
		<path class="st11" d="M830.5,230.4c-0.4,0.1-0.7,0.4-1,0.6c-0.4,0.5-1,0.7-1.7,0.8c-0.8,0-1.4-0.6-2.3-1.5l-11.6-12.9
			c-1.5-1.7-1.8-2.5-0.3-4c0.8-0.9,0.8-1,0.7-1.1s-0.1-0.1-0.1-0.1s-0.2,0-0.5,0.3l-0.5,0.5l-0.8,0.8l-0.6,0.6
			c-0.6,0.6-1.1,1-1.6,1.5c-1.1,1-1.5,1.4-2.6,2.2c-0.4,0.3-0.7,0.6-0.9,0.8s-0.4,0.3-0.5,0.4c-0.4,0.4-0.4,0.4-0.2,0.6
			s0.1,0.1,0.1,0.1c0.4-0.1,0.7-0.4,1-0.6c0.4-0.4,1-0.7,1.7-0.8c0.8,0,1.4,0.6,2.3,1.5l3.9,4.3c0.4,0.4,0.7,0.8,0.6,1.1
			s-0.4,0.8-1,1.3l-6.8,6.1c-0.6,0.5-0.9,0.8-1.2,0.8s-0.6-0.3-1.1-0.8l-3.9-4.3c-1.5-1.7-1.8-2.5-0.4-4c0.8-0.9,0.7-1,0.7-1.1
			l-0.1-0.1c0,0-0.2,0-0.4,0.3L801,224c-0.1,0.1-0.2,0.2-0.2,0.2l0,0l0,0c-2,2-2.1,2.1-3.2,3.1c-0.6,0.5-1.6,1.4-2.4,2.1l-1,0.8
			c-0.1,0.1-0.2,0.1-0.2,0.2l-0.2,0.2c-0.3,0.3-0.3,0.4-0.3,0.4c0,0.1,0,0.1,0.1,0.1l0.1,0.1c0.2,0,0.8-0.5,1-0.6
			c0.4-0.4,1-0.7,1.7-0.8c0.8,0,1.4,0.6,2.3,1.6l11.6,12.9c1.5,1.7,1.8,2.5,0.4,4c-0.9,0.9-0.8,1-0.7,1.1s0.1,0.1,0.1,0.1
			s0.2,0,0.4-0.3c0.1-0.1,0.3-0.3,0.6-0.6l0.7-0.7l0.7-0.6c0.6-0.5,1-1,1.5-1.4c1.1-1,1.5-1.4,2.6-2.3l0.9-0.8
			c0.2-0.1,0.3-0.2,0.4-0.4c0.4-0.4,0.4-0.4,0.2-0.6s-0.1-0.1-0.1-0.1c-0.2,0-0.8,0.5-1,0.6c-0.4,0.4-1,0.7-1.7,0.8
			c-0.8,0-1.4-0.6-2.3-1.5l-5.3-5.9c-0.3-0.3-0.6-0.6-0.5-1.1s0.4-0.6,1-1.2l6.7-6.1c0.6-0.5,0.9-0.8,1.2-0.8
			c0.4,0.1,0.7,0.3,0.9,0.6l5.3,5.9c1.5,1.7,1.8,2.5,0.4,4c-0.9,0.9-0.8,1-0.7,1.1s0.1,0.1,0.1,0.1s0.2,0,0.5-0.3l0.2-0.2
			c0.1-0.1,0.2-0.2,0.2-0.2l0,0l0,0c1.9-1.9,2.2-2.1,3.1-3l0.1-0.1c0.5-0.5,1.1-0.9,1.7-1.5l0.8-0.7c0.6-0.5,0.8-0.7,1-0.8
			c0.1-0.1,0.2-0.1,0.2-0.2l0.2-0.2c0.3-0.3,0.3-0.4,0.3-0.4C830.6,230.6,830.5,230.5,830.5,230.4L830.5,230.4z"/>
		<path class="st11" d="M846.5,206.8c-0.1,0-0.1,0-0.2,0c-0.1,0-0.1,0.1-0.1,0.1c-0.9,1-1.4,1.6-2.7,1.6c-1.2-0.1-2.4-0.2-3.5-0.5
			l-16.5-3.1c-1.2-0.2-2.3-0.5-3.3-0.7c-0.6-0.2-1.2-0.3-1.8-0.4c-0.2,0-0.2,0-0.3,0.1s-0.2,0.2,0.8,1.5c0.2,0.2,0.4,0.5,0.5,0.8
			c0.2,0.3,0.5,0.8,0.8,1.2l1.2,1.8l1.3,1.8c2.1,3,2.5,3.7,3.7,5.4l0.8,1.2c2.5,3.7,3.4,5.1,4.2,6.6c1.1,1.9,1.1,2.4,0.2,4
			c-0.5,0.8-0.3,0.9-0.3,1c0.1,0,0.1,0.1,0.2,0.1c0.1,0,0.2-0.1,0.3-0.2c0.2-0.2,0.3-0.4,0.4-0.7c0.5-0.8,1-1.6,1.6-2.5
			c0.4-0.5,0.9-1.2,1.4-1.9l0.3-0.5l0.7-0.9l0.2-0.4c0.2-0.2,0.3-0.4,0.3-0.7c0-0.1,0-0.1-0.1-0.1h-0.1c-0.1,0-0.4,0.2-0.9,0.9
			c-0.7,1-1.2,1.4-1.8,1.4c-0.2,0-0.5-0.1-0.7-0.2c-0.5-0.4-0.9-0.9-1.3-1.4l-2.8-3.6c-0.7-1-0.7-1.1,0-2.3l2.9-4.3
			c0.5-0.7,0.7-1.1,1.3-1.1c0.3,0,0.7,0.1,1,0.2l5.1,1.2c0.4,0.1,0.9,0.3,1.3,0.5c0.1,0.1,0.2,0.1,0.3,0.2c0.1,0.1,0.1,0.2,0.2,0.3
			c0.1,0.6-0.1,1.2-0.5,1.6c-0.6,1.1-0.4,1.2-0.3,1.3h0.1c0,0,0.2,0,0.4-0.4c0.1-0.2,0.2-0.3,0.3-0.5c0.7-1.3,1.5-2.6,2.3-3.8
			s1.9-2.7,2.5-3.4c0.1-0.2,0.2-0.3,0.3-0.5c0.1-0.1,0.1-0.2,0.2-0.2c0.1-0.1,0.2-0.3,0.2-0.5v-0.1
			C846.7,206.8,846.7,206.8,846.5,206.8C846.6,206.8,846.6,206.8,846.5,206.8z M831,212l-2.3,3.4c-0.4,0.6-0.6,0.9-1,0.9
			c-0.1,0-0.3,0-0.4-0.1c-0.2-0.2-0.5-0.4-0.6-0.7l-4.7-6.7l8.3,1.6c0.7,0.2,0.8,0.2,0.9,0.3C831.6,211.1,831.3,211.6,831,212z"/>
		<path class="st11" d="M855.8,181.1l-20.1-7.1c-2-0.7-2.4-1.3-1.8-3.3c0.3-1.4,0.2-1.4,0-1.5h-0.1c-0.2,0-0.3,0.3-0.3,0.4
			s-0.2,0.7-0.3,1.1c-0.3,1-0.6,1.9-0.9,2.7c-0.4,1.1-0.8,2.1-1.1,2.8c-0.1,0.2-0.2,0.5-0.3,0.7l-0.1,0.2c-0.1,0.2-0.1,0.4-0.1,0.6
			c0,0.1,0,0.1,0.2,0.2s0.4-0.5,0.8-1.4s0.8-1.6,1.9-1.6c1.4,0.1,2.7,0.5,4,1l12.8,4.4l-22.5,8.1c-1.2,0.4-1.2,0.4-1.4,0.9l-0.9,2.6
			l-1.4,3.5c-0.3,0.8-0.2,0.9-0.1,0.9h0.1c0.1,0,0.3-0.1,0.6-1.1s0.7-1.8,1.8-1.8c0.9,0.1,1.8,0.3,2.6,0.7l12.8,4.6
			c5.1,1.8,5.8,2.1,5.2,4.4c-0.2,0.5-0.2,1.1-0.3,1.7h0.1h0.1c0.1,0,0.2-0.1,0.3-0.4c0.2-0.5,0.3-1,0.4-1.5c0.2-1,0.5-2,0.9-3
			c0.3-0.7,0.5-1.4,0.9-2.2v-0.1c0.2-0.5,0.4-1,0.5-1.2c0.2-0.6,0-0.7,0-0.7H850c-0.1,0-0.2,0.1-0.3,0.4c-0.8,1.8-1.2,2.8-2.8,2.8
			c-1.7-0.2-3.5-0.7-5.1-1.4l-14.2-4.9l27.4-10.2c0.7-0.3,1.1-0.5,1.2-0.8S856.6,181.4,855.8,181.1z"/>
		<path class="st11" d="M855.9,154.7l-18.8-0.9c-0.6,0-1,0-1.2-0.3s-0.3-1-0.2-2.7v-0.4c0.2-3.7,1.2-4.9,4.5-5.4
			c0.6-0.1,0.6-0.2,0.6-0.3s0-0.3-0.9-0.4l-5-0.5l-0.5-0.1H834c-0.2,0-0.6,0-0.6,0.2s0,0.2,0.3,0.3s0.5,0.3,0.7,0.5s0.3,0.5,0.4,0.8
			c0.2,1.4,0.2,2.7,0.1,4.1l-0.6,13.8c-0.1,1.2-0.3,1.9-1.5,2.1c-0.3,0.1-0.3,0.1-0.3,0.1v0.1c0,0.1,0,0.2,0.5,0.4l5.7,2
			c0.2,0.1,0.4,0.1,0.6,0.1c0,0,0.1,0,0.1-0.1V168v-0.1c0-0.2,0-0.3-0.6-0.7c-1.3-0.9-2.3-2-3.1-3.2c-0.5-1-0.7-2.3-0.6-5
			c0-0.8,0.3-1.3,1.3-1.3h0.2l19,0.9c2.3,0.1,3,0.5,3.1,2.6c0,1.2,0.2,1.2,0.3,1.2s0.2,0,0.3-0.6c0-0.3,0-0.7,0-1.7s0-2.4,0-3
			c0-1,0.1-2.1,0.3-3.5c0.1-1.2,0.1-1.6,0.2-1.8c0-0.2,0-0.4-0.1-0.6c-0.1,0-0.1,0-0.2,0c-0.1,0-0.3,0-0.4,1.2
			c-0.2,1.8-0.8,2.3-2.6,2.3C856.2,154.8,856,154.7,855.9,154.7z"/>
		<path class="st11" d="M837.7,138.1c-2.2,0-3.9-1.6-4.3-4.2c-0.5-2.8,0.4-4.3,3.1-5.8c1.2-0.6,1.2-0.7,1.1-0.9s0-0.2-0.1-0.2h-0.1
			c-0.2,0-0.5,0-0.7,0.1l-1.2,0.2l-0.7,0.2l-0.4,0.1c-1,0.2-1.3,0.3-1.4,0.4c-0.3,0.4-0.4,3.5,0,5.7c0.7,4.2,3.4,6.8,6.8,6.8
			c0.4,0,0.8,0,1.2-0.1c3.2-0.6,4.6-2.5,5.8-7.8c1.1-4.7,2.5-6.8,5.2-7.2c0.3,0,0.5-0.1,0.8-0.1c2.5,0.1,4.6,1.9,5,4.4
			c0.6,3.3-1.6,6.7-5.2,8.2c-0.1,0-0.4,0.2-0.4,0.3s0,0.2,0.3,0.2h0.1c0.8-0.1,2.7-0.3,3.7-0.5c1.2-0.2,1.4-0.4,1.6-0.7
			c0.7-2.2,0.8-4.5,0.4-6.7c-0.8-4.5-4-7.6-7.9-7.6c-0.5,0-0.9,0-1.4,0.1c-3.3,0.6-5.2,3-6.2,7.9c-1,5.1-1.9,6.5-4.4,7
			C838.2,138.1,837.9,138.1,837.7,138.1z"/>
		<path class="st9" d="M641.3,145.9v0.6l-21.6,7.4c0,0.9,0.1,1.8,0.3,2.6l22,8.5c4.4,1.7,6.4,2.5,6.7,4.5l0.1,1h0.6l0.5-10.6h-0.6
			l-0.4,2v0.1c-0.2,0.8-0.5,1.8-1.5,1.8c-1.5-0.3-2.9-0.6-4.3-1.1l-1.1-0.3l-14.9-5.1v-0.6l22.7-7.5c0-0.7-0.1-1.3-0.3-2l-21.5-8.3
			v-0.6l18.4-4.6l0.2-0.1c0.7-0.2,1.5-0.3,2.3-0.4c0.9,0,1.1,0.8,1.3,2.2l0.2,1.7h0.6l0.7-13.2H651l-0.3,1.1
			c-0.6,1.8-1.6,2.1-3.8,2.7l-26.2,7.5c0,0.9,0.1,1.8,0.3,2.6L641.3,145.9z"/>
		<path class="st9" d="M629.4,186.3l16.6-4.9c0.6-0.2,1.2-0.3,1.8-0.4c1.1,0,1.5,0.6,2,1.8c0.1,0.3,0.4,1.1,0.6,1.1h0.1
			c0,0,0.1,0,0.1-0.1s0.1-0.2-0.1-0.5l-0.1-0.2c0-0.2-0.1-0.3-0.2-0.4c-0.9-2.6-1-3-1.3-4c-0.2-0.9-0.4-1.5-0.6-2.3l-0.3-1
			c-0.2-0.7-0.2-1-0.3-1.2c0-0.1-0.1-0.2-0.1-0.3l-0.1-0.2c-0.1-0.3-0.2-0.5-0.3-0.5h-0.1c-0.1,0-0.3,0.1,0,1.3
			c0.5,2-0.2,2.6-2.4,3.2l-16.6,4.9c-0.6,0.2-1.2,0.3-1.8,0.4c-1.1,0-1.5-0.7-1.9-1.8c-0.1-0.3-0.4-1.1-0.6-1.1h-0.1
			c-0.1,0-0.1,0-0.2,0.1c0,0,0,0.1,0.1,0.5l0.1,0.2c0,0.2,0.1,0.3,0.2,0.4l0.5,1.6c0.4,1.1,0.6,1.7,0.8,2.5c0.3,1,0.6,2.3,0.9,3.2
			c0.2,0.7,0.2,1,0.3,1.2s0,0.2,0.1,0.4l0.1,0.2c0.1,0.5,0.2,0.5,0.3,0.5h0.1c0.1-0.1,0.3-0.1,0-1.3
			C626.5,187.5,627.2,186.9,629.4,186.3z"/>
		<path class="st9" d="M664,210.3c0.2,0.3,0.7,1,0.9,1h0.1c0.1,0,0.1-0.1,0.1-0.1c0-0.1-0.1-0.3-0.1-0.4c-0.1-0.2-0.3-0.6-0.7-1
			s-0.9-1.4-1.5-2.4s-1.1-1.9-1.4-2.7c-0.1-0.2-0.3-0.5-0.3-0.7l-0.1-0.2c-0.2-0.4-0.4-0.5-0.5-0.5h-0.1c-0.1,0.1-0.2,0.3,0.5,1.6
			c1,2,0.3,2.6-3.4,4.9l-11.6,6.9l8.4-22.4c0.5-1.2,0.5-1.2,0.2-1.7l-1.4-2.4l-1.8-3.3c-0.4-0.6-0.5-0.7-0.6-0.7h-0.1
			c-0.1,0.1-0.3,0.1,0.4,1.3c1.1,1.9,0.6,2.6-2.1,4.1l-11.7,6.8c-2.8,1.6-4.1,2.4-5,2.4c-0.8,0-1.2-0.5-1.7-1.2
			c-0.3-0.5-0.7-0.9-1.1-1.3h-0.1c-0.1,0.1-0.1,0.2,0,0.5s0.5,0.8,0.9,1.3c0.6,0.8,1.2,1.7,1.7,2.6c0.4,0.6,0.7,1.3,1.1,2.1l0.1,0.2
			l0.5,1.1c0.2,0.3,0.4,0.4,0.5,0.4h0.1c0.2-0.1,0.1-0.4,0-0.5c-1.7-3.4-1.3-3.8,4-6.9l12.9-7.7l-10,27.5c-0.2,0.8-0.3,1.2-0.2,1.4
			s0.2,0.2,0.3,0.2c0.2,0,0.5-0.1,0.7-0.3l18.4-10.8c0.5-0.4,1.2-0.6,1.8-0.7C662.8,208.9,663.4,209.4,664,210.3z"/>
		<path class="st9" d="M679.7,225.3c-0.6-0.5-1.2-1.1-2-1.8L669,215c-0.1-0.1-0.3-0.3-0.6-0.6c-0.2-0.3-0.5-0.5-0.8-0.8l-0.1-0.1
			l0,0c-0.1-0.2-0.3-0.3-0.4-0.5c-0.3-0.3-0.4-0.3-0.4-0.3c-0.1,0-0.1,0-0.1,0.1c-0.1,0.1-0.2,0.2,0.6,1.1c1.4,1.5,1.1,2.4-0.5,4
			l-12,12.5c-0.9,0.9-1.6,1.5-2.3,1.5c-0.6-0.1-1.2-0.4-1.7-0.8c-0.2-0.2-0.8-0.7-1-0.7c0,0,0,0-0.1,0.1s-0.2,0.2,0.2,0.6
			c0.2,0.2,0.3,0.3,0.5,0.4c0.3,0.3,0.5,0.5,0.8,0.8c0.2,0.2,0.5,0.4,0.7,0.6l10.6,10.3c0.5,0.5,0.8,0.8,1,0.8s0.5-0.3,1-0.8
			l0.2-0.2c0.6-0.5,1.2-1,1.8-1.5c0.4-0.3,0.8-0.6,1.2-0.9c0.1-0.1,0.1-0.1,0.1-0.2v-0.1c0-0.1-0.1-0.1-0.2-0.1c-0.1,0-0.2,0-0.3,0
			c-1.3,0.5-2.6,0.7-3.9,0.8c-1.8,0-3.1-0.9-4.8-2.5c-1.2-1.2-2-2.1-2.2-3s0.5-1.8,1.4-2.8l5-5.1c0.3-0.3,0.6-0.6,1-0.6
			s1,0.4,2.2,1.6c2.8,2.7,3,3.8,1.6,6.4c-0.4,0.7-0.2,0.8-0.1,0.9l0,0l0,0c0.1,0,0.1,0,0.2-0.1c0.1,0,0.1-0.1,0.1-0.1l2-2.4l0.2-0.1
			c0.2-0.1,0.4-0.3,0.7-0.6l0.6-0.6l0.7-0.6l0.6-0.6l0.8-0.7c0.1-0.1,0.1-0.1,0.2-0.2c0,0,0-0.1-0.1-0.1s0,0-0.1-0.1h0.1
			c-0.1,0-0.3,0.1-0.4,0.1c-0.7,0.4-1.6,0.7-2.4,0.7c-1.3,0-2.5-0.9-4.5-2.9c-0.9-0.9-1.2-1.3-1.2-1.8s0.3-0.9,0.8-1.3l4.3-4.4
			c0.8-0.8,1.4-1.4,2-1.4s1.1,0.4,1.9,1.2c1.3,1.2,2.4,2.6,3.3,4.1c0.7,1.5,0.7,2.1,0,4.5c-0.1,0.3-0.2,0.6,0,0.7h0.1
			c0,0,0.1,0,0.3-0.2l2.6-2.7c0.2-0.2,0.4-0.4,0.5-0.6c0-0.1-0.1-0.1-0.1-0.2L679.7,225.3z"/>
		<path class="st9" d="M727.1,243.2c0-0.1,0-0.1,0-0.2c0,0-0.1-0.2-0.5-0.3l-0.7-0.2c-0.5-0.1-0.9-0.3-1.4-0.5l-4.4-1.7
			c-0.4-0.2-0.8-0.3-1.2-0.3s-0.8,0.3-1.5,1l-14.6,16.2l-1.2-21.9c-0.1-1.7-0.1-1.7-0.9-2c-0.5-0.2-1.2-0.4-2-0.7
			c-0.7-0.2-1.6-0.5-2.4-0.8l-0.1-0.1c-1-0.4-1.5-0.6-2.1-0.8c-0.3-0.1-0.6-0.2-0.8-0.4c-0.2-0.1-0.4-0.1-0.7-0.2
			c-0.1,0-0.2,0-0.3,0.2v0.1v0.1c0.2,0.4,1.1,0.7,1.5,0.8c2.3,0.9,2.4,1.2,1.7,3.4c-0.4,1.2-1.1,3-2,5.1l-0.1,0.3
			c-0.2,0.6-0.2,0.6-0.5,1.1s-0.6,1.3-1.5,3.4l-2,4.6l-0.7,1.6l-0.8,1.9l-0.8,1.9l-0.1,0.1c-0.8,1.7-1.3,2.4-2.6,2.4
			c-0.4,0-0.8-0.1-1.1-0.1c-0.5-0.1-0.9-0.2-1.4-0.2c-0.2,0-0.3,0-0.3,0.2s0,0.2,0,0.2s0.1,0.2,0.5,0.3s1.2,0.4,2,0.6
			c1.2,0.4,2.1,0.6,2.8,0.9c0.5,0.2,1.5,0.6,2.7,1.1c0.3,0.1,0.6,0.2,0.9,0.3l0.3,0.1c0.2,0.1,0.5,0.1,0.8,0.2
			c0.2,0,0.3-0.1,0.3-0.2c0.1-0.2,0.2-0.4-1.3-1c-2.9-1.1-2.7-2.1-0.2-9c1.2-3.3,2.5-6.5,5.9-14.3l0.6,0.1l1.6,25.1
			c0,1,0.2,1.2,0.4,1.2h0.2c0.2,0,0.5-0.3,1.2-1l17-18.8l0.5,0.3l-6.5,19.7c-0.7,1.9-1.3,3-2.6,3c-0.4,0-0.8-0.1-1.2-0.2
			c-0.5-0.2-1-0.3-1.5-0.3c-0.2,0-0.2,0-0.3,0.3s0,0.2,0,0.2c0.1,0.1,0.3,0.3,0.5,0.3c0.1,0,0.9,0.3,1.6,0.5l0.2,0.1
			c1.3,0.4,2.6,0.9,3.9,1.3c0.9,0.3,2.1,0.8,3.4,1.3l0.6,0.2c0.4,0.2,0.8,0.3,1.2,0.5c0.2,0.1,0.4,0.1,0.6,0.1
			c0.2,0,0.3-0.1,0.3-0.2V270c0-0.1-0.2-0.3-1-0.6c-2.2-0.9-2.2-1.5-1.2-4.6l6.2-19.3l0.2-0.6c0.5-1.3,0.9-2.2,2-2.2
			c0.5,0,1,0.1,1.5,0.3s1,0.3,1.5,0.3C727,243.4,727,243.4,727.1,243.2z"/>
		<path class="st9" d="M747.1,265.9c-0.1,0-0.2,0-0.4,0.3c-2.2,3.8-3.4,4.6-6.9,4.6h-0.6c-1.7,0-2.9-0.2-3.6-0.8s-0.9-1.6-0.9-3
			l0.2-7.2c0-1.2,0.3-1.5,1.9-1.5c0.3,0,0.7,0,1.1,0c3.9,0.1,4.8,0.7,5.5,3.6c0.2,0.8,0.4,0.8,0.5,0.8h0.1h0.1l0.1-0.1
			c0-0.1,0-0.1,0-0.2l-0.1-3.1v-0.2c0-0.2,0-0.5,0.1-0.9l0.1-0.9l0.1-0.9l0.1-0.9l0.1-1c0-0.1,0-0.2,0-0.2h-0.1c0,0-0.2,0-0.3,0.4
			c-1,2.6-2,3.2-5.4,3.2h-1.1c-2-0.1-2.5-0.2-2.5-2l0.2-6.1c0-2.2,0.3-2.8,2.3-2.8h0.5c1.8,0,3.5,0.3,5.2,0.8c1.5,0.6,2,1.1,3,3.3
			c0.1,0.3,0.3,0.6,0.5,0.6s0.2,0,0.2-0.4l0.1-3.8c0-0.3,0-0.6,0-0.8c-0.1,0-0.1,0-0.2,0h-0.3c-0.2,0-0.4,0-0.6,0H743l-12.2-0.3
			c-0.3,0-0.6,0-0.9-0.1c-0.4,0-0.7-0.1-1.1-0.1h-0.1c-0.2,0-0.4,0-0.6-0.1H728c-0.5,0-0.5,0.1-0.5,0.2s0,0.3,1.2,0.4
			c2,0.1,2.4,1,2.3,3.3l-0.4,17.4c-0.1,2.3-0.4,3.1-2.5,3.2c-1.2,0-1.2,0.2-1.2,0.3c0,0.1,0,0.1,0,0.2c0,0,0.1,0.1,0.5,0.1h0.2
			c0.2,0,0.4,0,0.5,0c0.2,0,0.4,0,0.6,0h0.6c0.2,0,0.5,0,0.6,0h0.3l14.8,0.4h0.6c0.8,0,0.8,0,0.9-1.4V270c0.1-1,0.2-1.7,0.3-2.3
			c0.1-0.5,0.2-1,0.3-1.4c0-0.1,0-0.2-0.1-0.2L747.1,265.9z"/>
		<path class="st9" d="M777.3,265.4c-1.2,0-1.7-0.5-3.1-2.1l-5.5-5.9c-0.6-0.8-1.5-1.4-2.4-1.7l-0.8-0.3l0.8-0.3
			c3.6-1.6,4.9-3.8,4.2-6.9c-0.7-2.9-2.9-4.5-6.3-4.5c-0.9,0-1.9,0.1-2.8,0.3c-0.4,0.1-1.7,0.4-3,0.8l-0.6,0.1
			c-1.1,0.3-2.1,0.5-3.2,0.8h-0.1c-1,0.2-1.8,0.4-2.9,0.6l-1.2,0.2l-0.4,0.1l-0.2,0.1c-0.4,0.1-0.5,0.2-0.5,0.2c0,0.1,0,0.1,0,0.2
			c0,0.1,0,0.2,0.4,0.2c0.3,0,0.6,0,0.8-0.1c0.3,0,0.6-0.1,0.8-0.1c1.4,0,1.8,0.9,2.2,2.7l3.7,17c0.5,2.2,0.3,3.1-1.7,3.7
			c-1.2,0.4-1.2,0.5-1.1,0.6s0,0.2,0.2,0.2c0.1,0,0.3,0,0.4,0l0.3-0.1c0.1,0,0.3-0.1,0.4-0.1l2-0.5c1-0.3,1.5-0.4,2.1-0.5
			s1.6-0.3,2.7-0.5l0.6-0.1l1.2-0.2c0.1,0,0.2,0,0.3-0.1h0.2c0.5-0.1,0.5-0.2,0.5-0.4s0-0.2-0.4-0.2c-0.3,0-0.6,0-0.9,0.1
			c-0.3,0.1-0.6,0.1-0.9,0.1c-1.4,0-1.8-0.9-2.2-2.7l-1.6-7.2c-0.1-0.3-0.1-0.7,0-1c0.1-0.1,0.2-0.2,0.4-0.3
			c0.1-0.1,0.3-0.1,0.5-0.1c0.4-0.1,0.9-0.2,1.4-0.2c0.9,0,1.4,0.4,2.3,1.5l7,7.9c0.6,0.7,0.8,0.8,1.1,0.8c0.1,0,0.2,0,0.3,0
			l2.7-0.7h0.1c0.2,0,0.5-0.1,0.7-0.1c0.8-0.2,1.4-0.3,1.8-0.3s0.4-0.1,0.5-0.1c0.2,0,0.4,0,0.6-0.1c0.1,0,0.2,0,0.2-0.1
			s0-0.1,0-0.2s-0.1-0.1-0.2-0.1c-0.1,0-0.1,0-0.2,0C778.2,265.5,777.7,265.5,777.3,265.4z M761.7,256.4c-0.5,0.1-1.1,0.3-1.6,0.3
			c-0.9,0-1-0.6-1.2-1.5l-1.5-6.7c-0.5-2.1-0.3-3,1.7-3.4c0.6-0.1,1.1-0.2,1.7-0.2c2.9,0,5,1.8,5.7,4.9
			C767.3,253.3,765.7,255.5,761.7,256.4L761.7,256.4z"/>
		<path class="st9" d="M800.3,248.9c0-0.1-0.1-0.2-0.2-0.2H800c-0.2,0.1-0.3,0.2-0.3,0.9c-0.3,4.6-1.6,7-4.7,8.5
			c-1.2,0.6-2.6,0.9-4,0.9c-4.4,0-8.7-3-11-7.7c-1.4-2.8-1.8-6.1-1-9.2c0.8-2.9,2.8-5.2,5.4-6.5c1.1-0.6,2.4-1,3.7-1
			c1.7,0.1,3.4,0.7,4.9,1.6c0.2,0.1,0.5,0.2,0.8,0.3c0.1,0,0.2,0,0.2-0.1c0.2-0.1,0.2-0.1,0.1-0.3L794,236l-1.6-2.4
			c-0.4-0.6-0.6-0.8-1-0.8c-0.2,0-0.4,0-0.7,0.1c-2.1,0.5-4.2,1.2-6.2,2.1c-8,3.9-11.8,11.9-8.8,18.3c2,3.6,5.5,6.1,9.6,6.6
			c0.7,0.1,1.5,0.2,2.2,0.2c2.6,0,5.2-0.7,7.5-1.8c2.3-1.1,4.4-2.7,6.1-4.6c0.6-0.8,0.6-1.1,0.4-1.7L800.3,248.9z"/>
		<path class="st9" d="M830.5,230.7c-0.4,0.1-0.7,0.4-1,0.6c-0.4,0.5-1,0.7-1.7,0.8c-0.8,0-1.4-0.6-2.3-1.5l-11.6-12.9
			c-1.5-1.7-1.8-2.5-0.3-4c0.8-0.9,0.8-1,0.7-1.1s-0.1-0.1-0.1-0.1s-0.2,0-0.5,0.3l-0.5,0.5l-0.8,0.8l-0.6,0.6
			c-0.6,0.6-1.1,1-1.6,1.5c-1.1,1-1.5,1.4-2.6,2.3l-0.9,0.8l-0.5,0.4c-0.4,0.4-0.4,0.5-0.2,0.6s0.1,0.1,0.1,0.1
			c0.4-0.1,0.7-0.4,1-0.6c0.4-0.4,1-0.7,1.7-0.8c0.8,0,1.4,0.6,2.3,1.5l3.9,4.3c0.4,0.5,0.7,0.8,0.6,1.1s-0.4,0.8-1,1.3l-6.7,6.1
			c-0.6,0.5-0.9,0.8-1.2,0.8s-0.6-0.3-1.1-0.8l-3.9-4.3c-1.5-1.7-1.8-2.5-0.4-4c0.8-0.9,0.7-1,0.7-1.1l-0.1-0.1c0,0-0.2,0-0.4,0.3
			l-0.2,0.2c-0.1,0.1-0.2,0.2-0.2,0.2l0,0l0,0c-2,2-2.1,2.1-3.2,3.1c-0.6,0.5-1.6,1.4-2.4,2.1l-1,0.8c-0.1,0.1-0.2,0.1-0.2,0.2
			l-0.2,0.2c-0.3,0.3-0.3,0.4-0.3,0.4c0,0.1,0,0.1,0.1,0.1l0.1,0.1c0.2,0,0.8-0.5,1-0.6c0.4-0.4,1-0.7,1.7-0.8
			c0.8,0,1.4,0.6,2.3,1.6l11.6,12.9c1.5,1.7,1.8,2.5,0.4,4c-0.9,0.9-0.8,1-0.7,1.1s0.1,0.1,0.1,0.1s0.2,0,0.4-0.3
			c0.1-0.1,0.3-0.3,0.6-0.6l0.7-0.7l0.7-0.6c0.6-0.5,1-1,1.5-1.4c1.1-1,1.5-1.4,2.6-2.3l0.9-0.8c0.2-0.1,0.3-0.2,0.4-0.4
			c0.4-0.4,0.4-0.4,0.2-0.6s-0.1-0.1-0.1-0.1c-0.2,0-0.8,0.5-1,0.6c-0.4,0.4-1,0.7-1.7,0.8c-0.8,0-1.4-0.6-2.3-1.5L808,236
			c-0.3-0.3-0.6-0.6-0.5-1.1s0.4-0.6,1-1.2l6.7-6.1c0.6-0.5,0.9-0.8,1.2-0.8c0.4,0.1,0.7,0.3,0.9,0.6l5.3,5.9c1.5,1.7,1.8,2.5,0.4,4
			c-0.9,0.9-0.8,1-0.7,1.1s0.1,0.1,0.1,0.1s0.2,0,0.5-0.3l0.2-0.2c0.1-0.1,0.2-0.2,0.2-0.2v-0.1l0,0c1.9-1.9,2.2-2.1,3.1-3l0.1-0.1
			c0.5-0.5,1.1-0.9,1.7-1.5l0.8-0.7c0.6-0.5,0.8-0.7,1-0.8c0.1-0.1,0.2-0.1,0.2-0.2l0.2-0.2c0.3-0.3,0.3-0.4,0.3-0.4
			C830.6,230.8,830.6,230.7,830.5,230.7L830.5,230.7z"/>
		<path class="st9" d="M846.5,207.1c-0.1,0-0.1,0-0.2,0c-0.1,0-0.1,0.1-0.1,0.1c-0.9,1-1.4,1.6-2.7,1.6c-1.2-0.1-2.4-0.2-3.5-0.5
			l-16.5-3.1c-1.2-0.2-2.3-0.5-3.3-0.7c-0.6-0.2-1.2-0.3-1.8-0.4c-0.2,0-0.2,0-0.3,0.1s-0.2,0.2,0.8,1.5c0.1,0.1,0.2,0.3,0.5,0.8
			s0.5,0.8,0.8,1.2l1.2,1.9l1.3,1.8c2.1,3,2.5,3.7,3.7,5.4l0.8,1.2c2.5,3.7,3.4,5.1,4.2,6.6c1.1,1.9,1.1,2.4,0.2,4
			c-0.5,0.8-0.3,0.9-0.3,1c0.1,0,0.1,0.1,0.2,0.1c0.1,0,0.2-0.1,0.3-0.2c0.2-0.2,0.3-0.4,0.4-0.7c0.5-0.8,1-1.6,1.6-2.5
			c0.4-0.5,0.9-1.2,1.4-1.9l0.3-0.5l0.7-0.9l0.2-0.4c0.2-0.2,0.3-0.4,0.3-0.7c0-0.1,0-0.1-0.1-0.1c0,0-0.1,0-0.1-0.1
			c-0.1,0-0.4,0.2-0.9,0.9c-0.7,1-1.2,1.4-1.8,1.4c-0.2,0-0.5-0.1-0.7-0.2c-0.5-0.4-0.9-0.9-1.3-1.4l-2.8-3.6c-0.7-1-0.7-1.1,0-2.3
			l2.9-4.3c0.5-0.7,0.7-1.1,1.3-1.1c0.3,0,0.7,0.1,1,0.2l5.1,1.2c0.4,0.1,0.9,0.3,1.3,0.5c0.1,0.1,0.2,0.1,0.3,0.2
			c0.1,0.1,0.1,0.2,0.2,0.3c0.1,0.6-0.1,1.2-0.5,1.6c-0.6,1.1-0.4,1.2-0.3,1.3h0.1c0,0,0.2,0,0.4-0.4c0.1-0.2,0.2-0.3,0.3-0.5
			c1.5-2.5,1.5-2.6,2.3-3.8s1.9-2.7,2.5-3.4c0.1-0.2,0.2-0.3,0.3-0.5c0.1-0.1,0.1-0.2,0.2-0.2c0.1-0.1,0.2-0.3,0.2-0.5V207
			C846.7,207.1,846.7,207.1,846.5,207.1C846.6,207,846.6,207.1,846.5,207.1z M831,212.3l-2.3,3.4c-0.4,0.6-0.6,0.9-1,0.9
			c-0.1,0-0.3,0-0.4-0.1c-0.2-0.2-0.5-0.4-0.6-0.7L822,209l8.3,1.6c0.7,0.2,0.8,0.2,0.9,0.3C831.6,211.4,831.3,211.9,831,212.3z"/>
		<path class="st9" d="M855.8,181.4l-20.1-7.1c-2-0.7-2.4-1.3-1.8-3.3c0.3-1.4,0.2-1.4,0-1.5h-0.1c-0.2,0-0.3,0.3-0.3,0.4
			s-0.2,0.7-0.3,1.1c-0.3,1-0.6,1.9-0.9,2.7c-0.4,1.1-0.8,2.1-1.1,2.8c-0.1,0.2-0.2,0.5-0.3,0.7s-0.1,0.2-0.1,0.2
			c-0.1,0.2-0.1,0.4-0.1,0.6c0,0.1,0,0.1,0.2,0.2s0.4-0.5,0.8-1.4s0.8-1.6,1.9-1.6c1.4,0.1,2.7,0.5,4,1l12.8,4.4l-22.5,8.1
			c-1.2,0.4-1.2,0.4-1.4,0.9l-0.9,2.6l-1.4,3.5c-0.3,0.8-0.2,0.9-0.1,0.9h0.1c0.1,0,0.3-0.1,0.6-1.1s0.7-1.8,1.8-1.8
			c0.9,0.1,1.8,0.3,2.6,0.7L842,199c5.1,1.8,5.8,2.1,5.2,4.4c-0.2,0.6-0.2,1.1-0.3,1.7h0.1h0.1c0.1,0,0.2-0.1,0.3-0.4
			c0.2-0.5,0.3-1,0.4-1.5c0.2-1,0.5-2,0.9-3c0.3-0.7,0.5-1.4,0.9-2.2v-0.1c0.2-0.5,0.4-1,0.5-1.2c0.2-0.6,0-0.7,0-0.7H850
			c-0.1,0-0.2,0.1-0.3,0.4c-0.8,1.7-1.2,2.8-2.8,2.8c-1.7-0.2-3.5-0.7-5.1-1.4l-14.2-4.9l27.4-10.2c0.7-0.3,1.1-0.5,1.2-0.8
			S856.6,181.7,855.8,181.4z"/>
		<path class="st9" d="M855.9,155l-18.8-0.9c-0.6,0-1-0.1-1.2-0.3s-0.3-1-0.2-2.7v-0.4c0.2-3.7,1.2-4.9,4.5-5.4
			c0.6-0.1,0.6-0.2,0.6-0.3s0-0.3-0.9-0.4l-5-0.5l-0.5-0.1H834c-0.2,0-0.6,0-0.6,0.3s0,0.2,0.3,0.3s0.5,0.3,0.7,0.5s0.3,0.5,0.4,0.8
			c0.2,1.4,0.2,2.7,0.1,4.1l-0.6,13.8c-0.1,1.2-0.3,1.9-1.5,2.1c-0.3,0-0.3,0.1-0.3,0.1v0.1c0,0.1,0,0.2,0.5,0.4l5.7,2
			c0.2,0.1,0.4,0.1,0.6,0.1c0,0,0.1,0,0.1-0.1v-0.1v-0.1c0-0.2,0-0.3-0.6-0.7c-1.3-0.9-2.3-1.9-3.1-3.2c-0.5-1-0.7-2.3-0.6-5
			c0-0.8,0.3-1.3,1.3-1.3h0.2l19,0.9c2.3,0.1,3,0.5,3.1,2.6c0,1.2,0.2,1.2,0.3,1.2s0.2,0,0.3-0.6c0-0.2,0-0.7,0-1.7s0-2.4,0-3
			c0-1,0.1-2.1,0.3-3.5c0.1-1.2,0.1-1.6,0.2-1.8c0-0.2,0-0.4-0.1-0.6c-0.1,0-0.1,0-0.2,0c-0.1,0-0.3,0-0.4,1.2
			c-0.2,1.8-0.8,2.3-2.6,2.3C856.2,155.1,856,155,855.9,155z"/>
		<path class="st9" d="M837.7,138.4c-2.2,0-3.9-1.6-4.3-4.2c-0.5-2.8,0.4-4.3,3.1-5.8c1.2-0.6,1.2-0.7,1.1-1s0-0.2-0.1-0.2h-0.1
			c-0.2,0-0.5,0-0.7,0.1l-1.2,0.2l-0.7,0.2l-0.4,0.1c-1,0.2-1.3,0.3-1.4,0.4c-0.3,0.4-0.4,3.5,0,5.7c0.7,4.2,3.4,6.8,6.8,6.8
			c0.4,0,0.8,0,1.2-0.1c3.2-0.6,4.6-2.5,5.8-7.8c1.1-4.7,2.5-6.8,5.2-7.2c0.3,0,0.5-0.1,0.8-0.1c2.5,0.1,4.6,1.9,5,4.4
			c0.6,3.3-1.6,6.7-5.2,8.2c-0.1,0-0.4,0.2-0.4,0.3s0,0.2,0.3,0.2h0.1c0.8-0.1,2.7-0.3,3.7-0.5c1.2-0.2,1.4-0.4,1.6-0.7
			c0.7-2.2,0.8-4.5,0.4-6.7c-0.8-4.5-4-7.6-7.9-7.6c-0.5,0-0.9,0-1.4,0.1c-3.3,0.6-5.2,3-6.2,7.9c-1,5.1-1.9,6.5-4.4,7
			C838.2,138.4,837.9,138.4,837.7,138.4z"/>
	</g>
	<g id="searsons">
		<path class="st10" d="M644.5,91.8c1.3,1.1,2.9,1.6,4.5,1.7c2.1,0,4.5-0.9,8.2-3c3.3-1.9,5.7-2.8,7.7-2.8c1.3,0,2.6,0.4,3.7,1.3
			c1.4,1,2.2,2.6,2.4,4.3c0.2,1.8-0.3,3.5-1.4,4.9c-1.8,2.3-4.5,3.5-7.4,3.4c-1.7,0-3.3-0.4-4.8-1.1c-0.2-0.1-0.3-0.1-0.5-0.2h-0.1
			l-0.1,0.1c-0.1,0.1-0.2,0.3,0.2,0.7c0.8,0.7,2.7,2.3,3.8,3.1c0.9,0.7,1.4,0.9,1.8,0.9c0.1,0,0.2,0,0.3,0c1.9-0.6,5-3.2,6.8-5.6
			c1.9-2.4,2.9-5.5,2.7-8.5c-0.1-1.4-0.5-2.8-1.2-4s-1.6-2.3-2.7-3.1c-1.4-1.1-3.2-1.7-5-1.7c-2.3,0-5,0.9-8.1,2.9
			c-3.7,2.3-5.7,3.2-7.4,3.2c-1.1,0-2.2-0.4-3-1.1c-0.6-0.4-1.1-1-1.5-1.7s-0.6-1.4-0.6-2.2c-0.1-1.7,0.5-3.3,1.5-4.6
			c1.5-1.9,3-2.8,4.8-2.8c1.1,0,2.2,0.3,3.3,0.7c0.5,0.2,1,0.3,1.6,0.4c0.1,0,0.2,0,0.2,0c0.1,0,0.1-0.1,0.2-0.2
			c0,0,0.2-0.2,0.2-0.3s-0.6-0.6-0.9-0.8l-1.3-1l-0.6-0.5l-0.5-0.3c-1.1-0.8-1.5-1-1.8-1c-0.6,0.1-3.7,2.8-5.5,5.2
			C640,83,640.3,88.7,644.5,91.8z M660,70.3c0.4-0.1,0.7-0.3,1-0.6c0.4-0.4,1-0.7,1.6-0.7c0.8,0,1.4,0.6,2.3,1.7L676,83.9
			c1.5,1.8,1.7,2.6,0.2,4c-0.9,0.8-0.8,1-0.7,1.1s0.1,0.1,0.1,0.1c0.2,0,0.3-0.1,0.5-0.3c0.2-0.1,0.3-0.3,0.5-0.5
			c0.3-0.2,0.6-0.5,0.8-0.8s0.6-0.5,0.7-0.6l11.4-9.5c1.1-0.9,1.1-0.9,0.3-2l-0.2-0.3c-0.5-0.6-0.9-1.3-1.3-1.9
			c-0.2-0.4-0.4-0.9-0.7-1.2l-0.1-0.1h-0.1l0,0l0,0c-0.1,0.1-0.1,0.2-0.1,0.5c0.9,4.5,0.5,5.9-2.6,8.5c-1.3,1.1-2.3,1.8-3.3,1.8
			s-1.7-0.7-2.6-1.7l-4.6-5.5c-1-1.2-0.6-1.5,1.3-3.1c1.6-1.3,2.7-2,3.8-2c1,0.1,2,0.5,2.7,1.2c0.2,0.2,0.5,0.3,0.7,0.3
			c0.1,0,0.1,0,0.2-0.1l0.1-0.1c0-0.1-0.1-0.2-0.2-0.3l-2.1-2.3l-0.1-0.2c-0.1-0.2-0.3-0.4-0.5-0.7l-0.5-0.7l-0.5-0.7l-0.5-0.7
			l-0.6-0.8c-0.1-0.2-0.2-0.2-0.2-0.2s-0.1,0-0.1,0.1c0,0-0.1,0.1,0,0.5c1,2.8,0.6,3.8-2.8,6.7c-0.9,0.7-1.4,1.1-1.8,1.1
			s-0.9-0.4-1.3-0.9l-3.9-4.7c-0.8-1-1.2-1.5-1.1-2.1s0.6-1.2,1.4-1.8c1.3-1.2,2.8-2.2,4.4-2.9c0.5-0.2,1.1-0.3,1.6-0.3
			c1,0.1,2,0.4,2.9,0.8c0.2,0.1,0.4,0.2,0.6,0.2c0.1,0,0.1,0,0.2,0c0,0,0.1-0.1-0.1-0.4l-2.4-2.9c-0.2-0.2-0.4-0.4-0.6-0.6
			c-0.1,0-0.1,0.1-0.2,0.1c-0.2,0.2-0.5,0.4-0.7,0.6c-0.6,0.5-1.2,1.2-2,1.8l-9.2,7.8c-0.2,0.2-0.5,0.4-0.8,0.6s-0.6,0.4-0.9,0.7
			c-0.2,0.1-0.3,0.2-0.5,0.4c-0.3,0.2-0.3,0.4-0.3,0.4c0,0.1,0,0.1,0.1,0.2C659.9,70.3,660,70.3,660,70.3z M692.5,74.8
			c0.1,0,0.2,0,0.3-0.1c0.2-0.1,0.5-0.2,0.7-0.3c0.8-0.4,1.7-0.8,2.7-1.2c0.5-0.2,1.3-0.5,2-0.8h0.2l0.5-0.2l1.1-0.4l0.4-0.2
			c0.2-0.1,0.7-0.3,0.6-0.5s-0.1-0.1-0.2-0.1c-0.4,0-0.8,0.1-1.1,0.3c-0.5,0.2-1,0.4-1.6,0.4c-0.5,0-1-0.3-1.1-0.7
			c-0.2-0.6-0.3-1.3-0.4-1.9l-0.5-4.6c-0.1-1.2,0-1.3,1.2-1.9l4.7-2.1c0.3-0.2,0.7-0.3,1.1-0.3c0.5,0,0.8,0.3,1.3,0.8l3.6,3.7
			c0.3,0.3,0.6,0.7,0.9,1.1c0.1,0.1,0.1,0.2,0.1,0.3c0,0.1,0,0.2,0,0.4c-0.1,0.4-0.5,0.8-1.2,1.1c-1.1,0.6-1,0.8-1,0.9
			s0.1,0.1,0.2,0.1c0.2,0,0.3-0.1,0.5-0.2s0.3-0.1,0.5-0.2l0,0l0,0c2.6-1.3,2.7-1.4,4-2s3-1.2,3.9-1.6c0.2-0.1,0.3-0.1,0.5-0.2
			l0.3-0.1c0.4-0.2,0.5-0.3,0.5-0.3v-0.1l-0.1-0.1H717h-0.1c-0.5,0.2-1.1,0.3-1.7,0.3c-1.2,0-2-0.8-4.2-2.8l-12.3-11.5
			c-0.8-0.8-1.7-1.6-2.4-2.3s-1.2-1.3-1.5-1.3h-0.1c-0.2,0.1-0.3,0.1-0.2,1.7c0,0.3,0.1,0.6,0.1,0.9c0,0.4,0,0.9,0.1,1.5v2.2
			l0.1,2.2c0.2,3.6,0.2,4.5,0.2,6.4v1.5c0.1,4.5,0.1,6.2,0,7.8c-0.1,2.2-0.3,2.6-2,3.5c-0.8,0.4-0.8,0.6-0.7,0.7
			S692.5,74.8,692.5,74.8z M701.5,58c0.5,0.5,0.5,0.5,0.6,0.7c0.1,0.6-0.5,0.8-0.9,1l-3.8,1.7c-0.3,0.2-0.6,0.3-1,0.3
			c-0.1,0-0.2,0-0.3-0.1s-0.2-0.2-0.2-0.3c-0.1-0.3-0.2-0.6-0.2-0.9l-0.3-8.1L701.5,58z M717.1,39.5h0.8c1.8,0,2.2,0.9,2.4,2.9
			l1.9,17.2c0.2,2.3,0,3.1-2,3.5c-1.2,0.2-1.2,0.4-1.2,0.5s0,0.2,0.3,0.2c0.1,0,0.2,0,0.3,0h0.2c0.2,0,0.3,0,0.5-0.1l2.1-0.3
			c1-0.1,1.5-0.2,2.1-0.3s1.7-0.2,2.7-0.2h0.6c0.7,0,1-0.1,1.2-0.1h0.3h0.2c0.5-0.1,0.5-0.2,0.5-0.3s0-0.2-0.8-0.2h-0.9
			c-1.8,0-2.2-0.9-2.4-2.9l-0.8-7.5c-0.1-1,0.1-1.2,1-1.4c0.3,0,0.7-0.1,1-0.1c1.1,0,1.6,0.5,2.5,1.8l6.1,8.6
			c0.6,0.8,0.8,0.9,1.1,0.9h0.2l2.7-0.4c0.3,0,0.5,0,0.8,0l1.8-0.1h0.6h0.1c0.2,0,0.3,0,0.5,0c0.3,0,0.3-0.2,0.3-0.2
			c0-0.1-0.1-0.1-0.2-0.2c-0.1,0-0.1-0.1-0.2-0.1c-2.5,0-2.6-0.1-4.3-2.4l-4.8-6.6c-0.5-0.9-1.3-1.6-2.2-2l-0.8-0.3l0.8-0.3
			c3.7-1.2,5.3-3.3,5-6.4c-0.4-3.3-2.9-5.3-7-5.3c-0.5,0-1,0-1.6,0.1c-0.4,0-1.8,0.2-3.1,0.4l-0.5,0.1c-1.2,0.2-2.2,0.3-3.3,0.4
			s-1.8,0.2-3,0.3l-1.2,0.1c-0.2,0-0.2,0-0.4,0h-0.2c-0.4,0-0.5,0.1-0.5,0.2c0,0.1,0,0.1,0,0.2C716.4,39.4,716.4,39.5,717.1,39.5z
			 M724.5,39.1c0.5-0.4,1.1-0.7,1.7-0.7c0.3,0,0.6-0.1,0.9-0.1c3.3,0,5.5,2.1,5.9,5.5c0.4,3.6-1.4,5.7-5.4,6.1
			c-0.6,0.1-1.1,0.1-1.4,0.1c-1.1,0-1.2-0.6-1.3-1.6l-0.7-6.8C724,40.8,724.1,39.9,724.5,39.1L724.5,39.1z M753.2,63.2
			c0.6,0.1,1.1,0.1,1.7,0.1c4.4,0,7.7-2.6,8.3-6.5c0.5-3.3-1.2-5.9-5.5-8.4c-4.5-2.6-5.5-3.9-5.2-6.4c0.3-2.2,2.3-3.8,4.5-3.6
			c0.3,0,0.7,0,1,0.1c2.7,0.4,4,1.7,4.5,4.8c0.2,1.3,0.3,1.3,0.5,1.4h0.2c0.1-0.3,0.2-0.6,0.2-0.9l0.2-1.3l0.1-0.7l0.1-0.4
			c0.1-1,0.1-1.3,0-1.5c-0.3-0.4-3.2-1.5-5.4-1.8c-0.6-0.1-1.1-0.1-1.7-0.1c-3.9,0-6.7,2.2-7.3,5.6c-0.5,3.2,0.8,5.2,5.5,8.1
			c4.1,2.6,5.6,4.6,5.2,7.2c-0.4,2.5-2.6,4.2-5.1,4.2c-0.3,0-0.6,0-0.8-0.1c-3.3-0.5-5.8-3.7-6.1-7.5c0-0.1,0-0.4-0.2-0.5
			c0,0-0.2,0-0.2,0.4c-0.2,0.8-0.6,2.6-0.7,3.7s-0.1,1.5,0.1,1.7C748.8,62,751,62.9,753.2,63.2z M776.6,69.9c1.9,0.8,3.9,1.3,6,1.3
			c5.2,0.1,10-2.8,12.3-7.5c2.8-6.2-0.8-13.9-7.9-17.1c-2.1-0.9-4.3-1.4-6.6-1.4c-5-0.1-9.6,2.7-11.7,7.3
			C765.8,58.9,769.4,66.7,776.6,69.9z M773.1,53.4c2.1-4.7,5.7-7.5,9.6-7.5c1.2,0,2.5,0.3,3.6,0.8c5.3,2.3,7.2,9,4.3,15.4
			c-2.2,5-6.4,8.3-10.5,8.3c-1.1,0-2.2-0.2-3.1-0.7C771.9,67.4,770.2,60.1,773.1,53.4L773.1,53.4z M806,57.4
			c1.6,1.5,1.3,2.3-0.7,4.6l-9,10.2c-2.6,2.9-3.5,3.9-4.5,3.9c-0.6-0.1-1.1-0.3-1.5-0.7c-0.5-0.4-0.9-0.7-1.5-0.9l-0.1,0.1
			c-0.1,0.1,0,0.2,0.2,0.4c0.4,0.4,0.8,0.7,1.2,1c0.8,0.6,1.6,1.2,2.4,1.9c0.6,0.5,1.2,1.1,1.9,1.7c0.3,0.4,0.8,0.8,0.9,0.9
			c0.3,0.3,0.5,0.3,0.5,0.3s0.1,0,0.1-0.1c0,0,0,0,0-0.1v-0.1c0-0.1-0.1-0.3-0.2-0.3c-2.7-2.7-2.4-3.2,1.6-7.8l9.8-11.4l-0.8,29.2
			c0,0.8,0.1,1.2,0.3,1.4c0.1,0.1,0.2,0.1,0.2,0.1c0.1,0,0.4-0.2,0.7-0.5l14-16.1c0.8-0.8,1.3-1.3,2-1.3c0.7,0.1,1.3,0.4,1.8,0.8
			c0.3,0.3,0.8,0.5,1.2,0.7c0,0,0.1,0,0.1-0.1c0,0,0,0,0-0.1c0,0,0,0,0-0.1c0,0,0-0.2-0.2-0.4s-0.6-0.4-0.9-0.7s-1.3-1.1-2.2-1.8
			s-1.6-1.5-2.2-2.1c-0.2-0.2-0.4-0.3-0.5-0.5c-0.1,0-0.1-0.1-0.2-0.2c-0.3-0.3-0.5-0.3-0.6-0.3h-0.1l0,0c-0.1,0.1-0.1,0.3,1,1.4
			c1.6,1.6,1.2,2.4-1.6,5.7l-8.8,10.3l0.9-23.9c0.1-1.3,0.1-1.3-0.3-1.7l-2.1-1.8l-2.8-2.6c-0.4-0.4-0.6-0.5-0.7-0.5s0,0-0.1,0.1
			S805.1,56.6,806,57.4z M823.5,94.3c0.9,4.8,0.4,7.2-1.8,8.7c-0.8,0.5-1.7,0.8-2.6,0.8c-1.8,0-3.4-0.9-4.4-2.4
			c-1.9-2.7-1.3-6.8,1.4-9.6c0.1-0.1,0.3-0.3,0.2-0.4s-0.1-0.1-0.1-0.1c-0.1,0-0.2,0-0.3,0.1c-0.7,0.4-2.3,1.4-3.1,1.9
			s-1.2,0.9-1.1,1.2c0.3,2.2,1.1,4.4,2.3,6.3c1.6,2.6,4.3,4.2,7.4,4.3c1.5,0,2.9-0.5,4.1-1.3c2.8-1.9,3.5-4.9,2.5-9.7
			c-1.1-5.1-0.9-6.8,1.2-8.1c0.7-0.5,1.5-0.7,2.3-0.8c1.7,0.1,3.2,1,4,2.4c1.6,2.3,1.4,4.1-0.5,6.6c-0.8,1-0.8,1.1-0.6,1.3
			s0.1,0.2,0.1,0.2c0.3-0.1,0.5-0.3,0.8-0.4l1.1-0.7l0.5-0.4l0.4-0.2c0.9-0.6,1.1-0.8,1.1-1c0.1-0.5-1.1-3.3-2.4-5.2
			c-1.7-2.5-4.1-4-6.5-4c-1.3,0-2.5,0.4-3.5,1.1C823,86.7,822.5,89,823.5,94.3z M644.1,115.6c3,0,5.4-2.4,5.4-5.4
			c0-0.7-0.1-1.4-0.4-2.1c-0.3-0.7-0.7-1.2-1.2-1.8c-1-1-2.4-1.6-3.8-1.6c-3,0-5.4,2.5-5.3,5.4c0,1.4,0.6,2.7,1.6,3.7
			c0.5,0.5,1.1,0.9,1.7,1.2C642.7,115.4,643.4,115.6,644.1,115.6z M831.7,110.2c0,3,2.4,5.4,5.3,5.4c3,0,5.4-2.4,5.4-5.3
			c0-0.7-0.1-1.4-0.4-2.1c-0.3-0.7-0.7-1.2-1.2-1.8c-2.1-2.1-5.5-2.1-7.6,0l0,0c-0.5,0.5-0.9,1.1-1.2,1.8
			C831.8,108.8,831.7,109.5,831.7,110.2z"/>
		<path class="st11" d="M643.8,91.5c1.3,1.1,2.9,1.6,4.5,1.7c2.1,0,4.5-0.9,8.2-3c3.3-1.9,5.7-2.8,7.7-2.8c1.3,0,2.6,0.4,3.7,1.3
			c0.7,0.5,1.2,1.2,1.6,1.9c0.4,0.7,0.7,1.6,0.7,2.4c0.2,1.8-0.3,3.5-1.4,4.9c-1.8,2.3-4.5,3.5-7.4,3.4c-1.7,0-3.3-0.4-4.8-1.1
			c-0.2-0.1-0.3-0.1-0.5-0.2H656c0,0-0.1,0-0.1,0.1c-0.1,0.1-0.2,0.3,0.2,0.7c0.8,0.7,2.7,2.3,3.7,3.1s1.4,1,1.8,1
			c0.1,0,0.2,0,0.3,0c1.9-0.6,5-3.2,6.8-5.6c1.9-2.4,2.9-5.5,2.7-8.5c-0.2-2.8-1.6-5.4-3.9-7.1c-1.4-1.1-3.2-1.7-5-1.7
			c-2.3,0-5,0.9-8.1,2.9c-3.7,2.3-5.7,3.2-7.4,3.2c-1.1,0-2.2-0.4-3-1.1c-0.6-0.4-1.1-1-1.5-1.7s-0.6-1.4-0.6-2.2
			c-0.1-1.7,0.5-3.3,1.5-4.6c1.5-2,3-2.8,4.8-2.8c1.1,0,2.2,0.3,3.3,0.7c0.5,0.2,1,0.3,1.6,0.4c0.1,0,0.2,0,0.2,0
			c0.1,0,0.1-0.1,0.2-0.2c0,0,0.2-0.2,0.2-0.3s-0.6-0.6-0.9-0.8l-1.3-1l-0.7-0.5l-0.5-0.3c-1.1-0.8-1.5-1-1.8-1
			c-0.6,0.1-3.7,2.8-5.5,5.2C639.4,82.7,639.7,88.4,643.8,91.5z M659.4,70c0.4-0.1,0.7-0.3,1-0.6c0.4-0.4,1-0.7,1.6-0.7
			c0.8,0,1.4,0.6,2.3,1.7l11.1,13.3c1.5,1.8,1.7,2.6,0.2,4c-0.9,0.8-0.8,1-0.7,1.1s0.1,0.1,0.1,0.1c0.2,0,0.3-0.1,0.5-0.3
			c0.2-0.1,0.3-0.3,0.5-0.5c0.3-0.2,0.6-0.5,0.8-0.8l0.7-0.6l11.4-9.5c1.1-0.9,1.1-0.9,0.3-2l-0.2-0.3c-0.5-0.6-0.9-1.3-1.2-1.9
			c-0.2-0.4-0.4-0.9-0.7-1.2l-0.1-0.1h-0.1l0,0l0,0c-0.1,0.1-0.1,0.2-0.1,0.5c0.9,4.5,0.5,5.9-2.6,8.5c-1.3,1.1-2.3,1.8-3.3,1.8
			s-1.7-0.7-2.5-1.7l-4.6-5.5c-1-1.2-0.6-1.5,1.3-3.1c1.6-1.3,2.7-2.1,3.8-2.1c1,0.1,1.9,0.5,2.7,1.2c0.2,0.2,0.5,0.3,0.7,0.3
			c0.1,0,0.1,0,0.2-0.1l0.1-0.1c0-0.1-0.1-0.2-0.2-0.3l-2.1-2.3c0-0.1-0.1-0.1-0.1-0.2c-0.1-0.2-0.3-0.4-0.5-0.7l-0.5-0.7l-0.5-0.7
			l-0.5-0.7l-0.6-0.8c0-0.1-0.1-0.1-0.2-0.2c0,0-0.1,0-0.1,0.1c0,0-0.1,0.1,0,0.5c1,2.8,0.6,3.8-2.8,6.7c-0.9,0.7-1.4,1.1-1.8,1.1
			s-0.9-0.4-1.3-0.9l-3.9-4.7c-0.8-1-1.2-1.5-1.1-2.1s0.6-1.2,1.4-1.8c1.3-1.2,2.8-2.1,4.4-2.8c0.5-0.2,1.1-0.3,1.6-0.3
			c1,0.1,2,0.4,2.9,0.8c0.2,0.1,0.4,0.2,0.6,0.2c0,0,0.1,0,0.2,0c0,0,0.1-0.1-0.1-0.4l-2.4-2.9c-0.2-0.2-0.4-0.4-0.6-0.6
			c-0.1,0-0.1,0.1-0.2,0.1c-0.2,0.2-0.5,0.4-0.7,0.6c-0.6,0.5-1.3,1.2-2,1.8l-9.3,7.8c-0.2,0.2-0.5,0.4-0.8,0.6
			c-0.2,0.2-0.6,0.4-0.9,0.7c-0.2,0.1-0.3,0.2-0.5,0.4c-0.3,0.2-0.3,0.4-0.3,0.4c0,0.1,0,0.1,0.1,0.2C659.3,70,659.3,70,659.4,70z
			 M691.9,74.5c0.1,0,0.2,0,0.3-0.1c0.2-0.1,0.5-0.2,0.7-0.3c0.8-0.4,1.7-0.8,2.7-1.2c0.5-0.2,1.3-0.5,2-0.8l0.1-0.1l0.5-0.2
			l1.1-0.4l0.4-0.2c0.2-0.1,0.7-0.3,0.6-0.5c0-0.1-0.1-0.1-0.2-0.1c-0.4,0-0.8,0.1-1.1,0.3c-0.5,0.2-1,0.4-1.6,0.4
			c-0.2,0-0.5-0.1-0.7-0.2s-0.4-0.3-0.4-0.6c-0.2-0.6-0.3-1.2-0.4-1.9l-0.4-4.6c-0.1-1.2,0-1.3,1.2-1.9l4.7-2.1
			c0.4-0.2,0.7-0.3,1.1-0.4c0.5,0,0.8,0.3,1.3,0.8l3.6,3.8c0.3,0.3,0.6,0.7,0.8,1.1c0.1,0.1,0.1,0.2,0.1,0.3c0,0.1,0,0.2,0,0.4
			c-0.1,0.4-0.5,0.8-1.2,1.1c-1.1,0.6-1,0.8-1,0.9s0.1,0.1,0.2,0.1c0.2,0,0.3-0.1,0.5-0.2s0.3-0.1,0.5-0.2l0,0l0,0
			c2.6-1.3,2.7-1.4,4-2s3.1-1.3,4-1.6c0.2-0.1,0.3-0.1,0.5-0.2l0.3-0.1c0.4-0.2,0.4-0.3,0.5-0.3v-0.1l-0.1-0.1h-0.1h-0.1
			c-0.5,0.2-1.1,0.3-1.7,0.3c-1.2,0-2-0.8-4.2-2.8l-12.3-11.5c-0.9-0.8-1.7-1.6-2.4-2.4s-1.3-1.3-1.5-1.3h-0.1
			c-0.2,0.1-0.3,0.1-0.2,1.7c0,0.3,0.1,0.6,0.1,0.9c0,0.4,0,0.9,0.1,1.5v2.2l0.1,2.2c0.2,3.6,0.2,4.5,0.2,6.4V62
			c0.1,4.5,0.1,6.2,0,7.8c-0.1,2.2-0.3,2.6-2,3.5c-0.8,0.5-0.8,0.6-0.7,0.7S691.9,74.5,691.9,74.5z M700.9,57.7
			c0.5,0.5,0.5,0.5,0.6,0.7c0.1,0.6-0.5,0.8-0.9,1l-3.7,1.7c-0.3,0.2-0.6,0.3-1,0.3c-0.1,0-0.2,0-0.3-0.1s-0.2-0.2-0.2-0.3
			c-0.1-0.3-0.2-0.6-0.2-0.9l-0.4-8.2L700.9,57.7z M716.5,39.2h0.8c1.8,0,2.2,0.9,2.4,2.9l1.9,17.2c0.2,2.3,0,3.1-2,3.5
			c-1.2,0.2-1.2,0.4-1.2,0.5s0,0.2,0.3,0.2c0.1,0,0.2,0,0.3,0h0.2c0.2,0,0.3,0,0.5-0.1l2.1-0.3c1-0.1,1.5-0.2,2.1-0.3
			s1.7-0.2,2.7-0.2h0.6c0.7,0,1-0.1,1.2-0.1h0.4h0.2c0.6-0.1,0.5-0.2,0.5-0.3s0-0.2-0.8-0.2H728c-1.8,0-2.2-0.9-2.4-2.9l-0.8-7.3
			c-0.1-1,0.1-1.2,1-1.4c0.3,0,0.7-0.1,1-0.1c1.1,0,1.6,0.5,2.5,1.8l6.1,8.5c0.6,0.8,0.8,0.9,1.1,0.9h0.2l2.7-0.4c0.3,0,0.5,0,0.8,0
			L742,61h0.6h0.1c0.2,0,0.3,0,0.5,0c0.3,0,0.3-0.2,0.3-0.2c0-0.1-0.1-0.1-0.2-0.2c-0.1,0-0.1,0-0.2,0c-2.5,0-2.6-0.1-4.3-2.4
			l-4.8-6.5c-0.5-0.8-1.3-1.5-2.2-2l-0.8-0.3l0.8-0.3c3.7-1.2,5.3-3.3,5-6.4c-0.4-3.3-2.9-5.3-7-5.3c-0.5,0-1,0-1.6,0.1
			c-0.4,0-1.8,0.2-3.1,0.4l-0.5,0.1c-1.2,0.2-2.2,0.3-3.3,0.4s-1.8,0.2-3,0.2l-1.2,0.1c-0.1,0-0.2,0-0.4,0h-0.2
			c-0.4,0-0.5,0.1-0.5,0.2c0,0.1,0,0.1,0,0.2C715.7,39.1,715.7,39.2,716.5,39.2z M723.9,38.8c0.5-0.5,1.1-0.7,1.7-0.7
			c0.3,0,0.6-0.1,0.9-0.1c3.3,0,5.5,2.1,5.9,5.5c0.4,3.6-1.4,5.7-5.4,6.1c-0.6,0.1-1.1,0.1-1.4,0.1c-1.1,0-1.2-0.6-1.3-1.6l-0.7-6.8
			C723.4,40.5,723.5,39.6,723.9,38.8L723.9,38.8z M752.6,62.9c0.6,0.1,1.1,0.1,1.7,0.1c4.4,0,7.7-2.6,8.3-6.5
			c0.5-3.3-1.2-5.9-5.5-8.4c-4.5-2.6-5.5-3.9-5.2-6.4c0.3-2.2,2.3-3.8,4.5-3.6c0.3,0,0.7,0,1,0.1c2.7,0.4,4,1.7,4.5,4.8
			c0.2,1.3,0.3,1.3,0.5,1.4h0.2c0.1-0.3,0.2-0.6,0.2-0.9l0.2-1.3l0.1-0.7l0.1-0.4c0.1-1.1,0.1-1.3,0-1.5c-0.3-0.4-3.2-1.5-5.4-1.8
			c-0.6-0.1-1.1-0.1-1.7-0.1c-3.9,0-6.7,2.2-7.3,5.6c-0.5,3.2,0.8,5.2,5.5,8.1c4.1,2.6,5.6,4.6,5.2,7.2c-0.4,2.5-2.6,4.2-5.1,4.1
			c-0.3,0-0.6,0-0.8-0.1c-3.3-0.5-5.8-3.7-6.1-7.5c0-0.1,0-0.4-0.2-0.5c-0.1,0-0.2,0-0.2,0.4c-0.2,0.8-0.6,2.6-0.7,3.6
			c-0.2,1.2-0.1,1.5,0.1,1.7C748.2,61.7,750.4,62.6,752.6,62.9z M776,69.6c1.9,0.8,3.9,1.3,6,1.3c5.2,0.1,10-2.8,12.3-7.5
			c2.8-6.2-0.8-13.9-7.9-17.1c-2.1-0.9-4.3-1.4-6.6-1.4c-5-0.1-9.6,2.7-11.7,7.3C765.2,58.6,768.8,66.4,776,69.6z M772.5,53.1
			c2.1-4.7,5.7-7.5,9.6-7.5c1.2,0,2.5,0.3,3.6,0.8c5.3,2.3,7.2,9,4.3,15.4c-2.2,5-6.4,8.2-10.5,8.2c-1.1,0-2.2-0.2-3.1-0.7
			C771.4,67.1,769.6,59.8,772.5,53.1z M805.4,57.1c1.6,1.5,1.3,2.3-0.7,4.6l-9,10.2c-2.6,2.9-3.5,3.9-4.5,3.9
			c-0.6-0.1-1.1-0.3-1.5-0.7c-0.5-0.3-0.9-0.6-1.5-0.9l-0.1,0.1c-0.1,0.1,0,0.2,0.2,0.4c0.4,0.4,0.8,0.7,1.2,1
			c0.8,0.6,1.6,1.2,2.4,1.9c0.6,0.5,1.2,1.1,1.9,1.7l0.9,0.9c0.3,0.3,0.5,0.3,0.5,0.3s0.1,0,0.1-0.1s0,0,0-0.1v-0.1
			c0-0.1-0.1-0.3-0.2-0.3c-2.7-2.7-2.4-3.2,1.6-7.8l9.8-11.4L805.7,90c0,0.8,0.1,1.2,0.3,1.4c0.1,0.1,0.2,0.1,0.2,0.1
			c0.1,0,0.4-0.2,0.7-0.5l14-16.1c0.8-0.8,1.3-1.3,2-1.3c0.7,0.1,1.3,0.4,1.8,0.8c0.3,0.3,0.8,0.5,1.2,0.7c0,0,0.1,0,0.1-0.1
			c0,0,0,0,0-0.1v-0.1c0,0,0-0.2-0.2-0.4s-0.6-0.4-0.9-0.7c-0.5-0.4-1.3-1.1-2.2-1.8s-1.6-1.5-2.2-2.1c-0.2-0.2-0.4-0.4-0.5-0.5
			l-0.2-0.2c-0.3-0.3-0.5-0.3-0.6-0.3h0.1l0,0c-0.1,0.1-0.1,0.3,1,1.4c1.6,1.6,1.2,2.4-1.6,5.7l-8.8,10.3l0.9-23.9
			c0.1-1.3,0.1-1.3-0.3-1.7l-2.1-1.8l-2.8-2.6c-0.4-0.4-0.6-0.5-0.7-0.5s0,0-0.1,0.1S804.5,56.3,805.4,57.1z M822.9,94
			c0.9,4.8,0.4,7.2-1.8,8.7c-0.8,0.5-1.7,0.8-2.6,0.8c-0.9,0-1.7-0.2-2.5-0.7c-0.8-0.4-1.4-1-1.9-1.8c-1.8-2.7-1.3-6.8,1.4-9.6
			c0.1-0.1,0.3-0.3,0.2-0.4s-0.1-0.1-0.1-0.1c-0.1,0-0.2,0-0.3,0.1c-0.7,0.4-2.3,1.4-3.1,2c-1,0.7-1.2,0.9-1.1,1.2
			c0.3,2.2,1.1,4.4,2.3,6.3c1.6,2.6,4.3,4.2,7.4,4.3c1.5,0,2.9-0.5,4.1-1.3c2.8-1.9,3.5-4.9,2.5-9.7c-1.1-5.1-0.9-6.8,1.2-8.1
			c0.7-0.5,1.5-0.8,2.3-0.8c1.7,0.1,3.2,1,4,2.4c1.6,2.3,1.4,4.1-0.5,6.5c-0.8,1.1-0.8,1.1-0.6,1.3s0.1,0.2,0.1,0.2
			c0.3-0.1,0.5-0.3,0.8-0.4l1.1-0.7l0.5-0.4l0.4-0.2c0.9-0.6,1.1-0.8,1.1-1c0.1-0.5-1.1-3.3-2.4-5.2c-1.7-2.5-4.1-4-6.5-4
			c-1.3,0-2.5,0.4-3.5,1.1C822.4,86.3,821.9,88.7,822.9,94z M643.5,115.3c1.4,0,2.8-0.6,3.8-1.6c2.1-2.1,2.1-5.5,0-7.6
			s-5.5-2.1-7.6,0c-1,1-1.6,2.4-1.6,3.8c0,0.7,0.1,1.4,0.4,2.1c0.3,0.7,0.7,1.3,1.2,1.8s1.1,0.9,1.7,1.2
			C642.1,115.1,642.8,115.3,643.5,115.3z M831.1,109.9c0,1.4,0.6,2.8,1.6,3.8c2.1,2.1,5.5,2.1,7.6,0c1.5-1.5,2-3.8,1.2-5.8
			c-0.3-0.7-0.7-1.2-1.2-1.8c-2.1-2.1-5.5-2.1-7.6,0l0,0c-0.5,0.5-0.9,1.1-1.2,1.8C831.2,108.5,831.1,109.2,831.1,109.9z"/>
		<path class="st9" d="M643.8,91.8c1.3,1.1,2.9,1.6,4.5,1.7c2.1,0,4.5-0.9,8.2-3c3.3-1.9,5.7-2.8,7.7-2.8c1.3,0,2.6,0.4,3.7,1.3
			c1.4,1,2.2,2.6,2.4,4.3c0.2,1.8-0.3,3.5-1.4,4.9c-1.8,2.3-4.5,3.5-7.4,3.4c-1.7,0-3.3-0.4-4.8-1.1c-0.2-0.1-0.3-0.1-0.5-0.2h-0.1
			l-0.1,0.1c-0.1,0.1-0.2,0.3,0.2,0.7c0.8,0.7,2.7,2.3,3.7,3.1s1.4,0.9,1.8,0.9c0.1,0,0.2,0,0.3,0c1.9-0.6,5-3.2,6.8-5.6
			c1.9-2.4,2.9-5.5,2.7-8.5c-0.1-1.4-0.5-2.8-1.2-4s-1.6-2.3-2.7-3.1c-1.4-1.1-3.2-1.7-5-1.7c-2.3,0-5,0.9-8.1,2.9
			c-3.7,2.3-5.7,3.2-7.4,3.2c-1.1,0-2.2-0.4-3-1.1c-0.6-0.4-1.1-1-1.5-1.7s-0.6-1.4-0.6-2.2c0-1.7,0.5-3.3,1.5-4.6
			c1.5-1.9,3-2.8,4.8-2.8c1.1,0,2.2,0.3,3.3,0.7c0.5,0.2,1,0.3,1.6,0.4c0.1,0,0.2,0,0.2,0c0.1,0,0.1-0.1,0.2-0.2
			c0,0,0.2-0.2,0.2-0.3s-0.6-0.6-0.9-0.8l-1.3-1l-0.7-0.5l-0.5-0.3c-1.1-0.8-1.5-1-1.8-1c-0.6,0.1-3.7,2.8-5.5,5.2
			C639.4,83,639.7,88.7,643.8,91.8z M659.4,70.3c0.4-0.1,0.7-0.3,1-0.6c0.4-0.4,1-0.7,1.6-0.7c0.8,0,1.4,0.6,2.3,1.7L675.4,84
			c1.5,1.8,1.7,2.6,0.2,4c-0.9,0.8-0.8,1-0.7,1.1s0.1,0.1,0.1,0.1c0.2,0,0.3-0.1,0.5-0.3c0.2-0.1,0.3-0.3,0.5-0.5
			c0.3-0.2,0.6-0.5,0.8-0.8s0.6-0.5,0.7-0.6l11.4-9.5c1.1-0.9,1.1-0.9,0.3-2l-0.2-0.3c-0.5-0.6-0.9-1.3-1.2-2
			c-0.2-0.4-0.4-0.9-0.7-1.2l-0.1-0.1h-0.1l0,0l0,0c-0.1,0.1-0.1,0.2-0.1,0.5c0.9,4.5,0.5,5.9-2.6,8.5c-1.3,1.1-2.3,1.8-3.3,1.8
			S679,82,678.2,81l-4.6-5.5c-1-1.2-0.6-1.5,1.3-3.1c1.6-1.3,2.7-2,3.8-2c1,0.1,1.9,0.5,2.7,1.1c0.2,0.2,0.5,0.3,0.7,0.3
			c0.1,0,0.1,0,0.2-0.1l0.1-0.1c0-0.1-0.1-0.2-0.2-0.3l-2.1-2.3c0-0.1-0.1-0.1-0.1-0.2c-0.1-0.2-0.3-0.4-0.5-0.7l-0.5-0.7l-0.5-0.7
			L678,66l-0.5-0.8c-0.1-0.2-0.2-0.2-0.2-0.2s-0.1,0-0.1,0.1c0,0-0.1,0.1,0,0.5c1,2.8,0.6,3.8-2.8,6.7c-0.9,0.7-1.4,1.1-1.8,1.1
			s-0.9-0.4-1.3-0.9l-3.9-4.7c-0.8-1-1.2-1.5-1.1-2.1s0.6-1.2,1.4-1.8c1.3-1.2,2.8-2.1,4.4-2.8c0.5-0.2,1.1-0.3,1.6-0.3
			c1,0.1,2,0.4,2.9,0.8c0.2,0.1,0.4,0.2,0.6,0.2c0.1,0,0.1,0,0.2,0c0,0,0.1-0.1-0.1-0.4l-2.4-2.9c-0.2-0.2-0.4-0.4-0.6-0.6
			c-0.1,0-0.1,0.1-0.2,0.1c-0.2,0.2-0.5,0.4-0.7,0.6c-0.6,0.5-1.3,1.2-2,1.8l-9.3,7.8c-0.2,0.2-0.5,0.4-0.8,0.6
			c-0.2,0.2-0.6,0.4-0.9,0.7c-0.2,0.1-0.3,0.2-0.5,0.4c-0.3,0.2-0.3,0.4-0.3,0.4C659.3,70.1,659.3,70.2,659.4,70.3
			C659.3,70.3,659.4,70.3,659.4,70.3z M691.9,74.8c0.1,0,0.2,0,0.3-0.1c0.2-0.1,0.5-0.2,0.7-0.3c0.8-0.4,1.7-0.8,2.7-1.2
			c0.5-0.2,1.3-0.5,2-0.8l0.1-0.1l0.5-0.2l1.1-0.4l0.4-0.2c0.2-0.1,0.7-0.3,0.6-0.5s-0.1-0.1-0.2-0.1c-0.4,0-0.8,0.1-1.1,0.3
			c-0.5,0.2-1,0.4-1.6,0.4c-0.5,0-1-0.3-1.1-0.7c-0.2-0.6-0.3-1.3-0.4-1.9l-0.4-4.6c-0.1-1.2,0-1.3,1.2-1.9l4.7-2.1
			c0.3-0.2,0.7-0.3,1.1-0.3c0.5,0,0.8,0.3,1.3,0.8l3.6,3.7c0.3,0.3,0.6,0.7,0.8,1.1c0.1,0.1,0.1,0.2,0.1,0.3c0,0.1,0,0.2,0,0.4
			c-0.1,0.4-0.5,0.8-1.2,1.1c-1.1,0.6-1,0.8-1,0.9s0.1,0.1,0.2,0.1c0.2,0,0.3-0.1,0.5-0.2s0.3-0.1,0.5-0.2l0,0l0,0
			c2.6-1.3,2.7-1.4,4-2s3-1.2,3.9-1.6c0.2-0.1,0.3-0.1,0.5-0.2l0.3-0.1c0.4-0.2,0.4-0.3,0.5-0.3v-0.1l-0.1-0.1h-0.1h-0.1
			c-0.5,0.2-1.1,0.3-1.7,0.3c-1.2,0-2-0.8-4.2-2.8L698,49.7c-0.9-0.8-1.7-1.6-2.4-2.3s-1.3-1.3-1.5-1.3H694
			c-0.2,0.1-0.3,0.1-0.2,1.7c0,0.3,0.1,0.6,0.1,0.9c0,0.4,0,0.9,0.1,1.5v2.2l0.1,2.2c0.2,3.6,0.2,4.5,0.2,6.4v1.5
			c0.1,4.5,0.1,6.2,0,7.8c-0.1,2.2-0.3,2.6-2,3.5c-0.8,0.4-0.8,0.6-0.7,0.7S691.9,74.8,691.9,74.8z M700.9,58
			c0.5,0.5,0.5,0.5,0.6,0.7c0.1,0.6-0.5,0.8-0.9,1l-3.7,1.6c-0.3,0.2-0.6,0.3-1,0.3c-0.1,0-0.2,0-0.3-0.1s-0.2-0.2-0.2-0.3
			c-0.1-0.3-0.2-0.6-0.2-0.9l-0.4-8.1L700.9,58z M716.5,39.5h0.8c1.8,0,2.2,0.9,2.4,2.9l1.9,17.2c0.2,2.3,0,3.1-2,3.5
			c-1.2,0.2-1.2,0.4-1.2,0.5s0,0.2,0.3,0.2c0.1,0,0.2,0,0.3,0h0.2c0.2,0,0.3,0,0.5-0.1l2.1-0.3c1-0.1,1.5-0.2,2.1-0.3
			s1.7-0.2,2.7-0.2h0.6c0.7,0,1-0.1,1.2-0.1h0.4h0.2c0.6-0.1,0.5-0.2,0.5-0.3s0-0.2-0.8-0.2H728c-1.8,0-2.2-0.9-2.4-2.9l-0.8-7.3
			c-0.1-1,0.1-1.2,1-1.4c0.3,0,0.7-0.1,1-0.1c1.1,0,1.6,0.5,2.5,1.8l6.1,8.5c0.6,0.8,0.8,0.9,1.1,0.9h0.2l2.7-0.4c0.3,0,0.5,0,0.8,0
			l1.8-0.1h0.6h0.1c0.2,0,0.3,0,0.5,0c0.3,0,0.3-0.2,0.3-0.2c0-0.1-0.1-0.1-0.2-0.2c-0.1,0-0.1-0.1-0.2-0.1c-2.5,0-2.6-0.1-4.3-2.4
			l-4.8-6.5c-0.5-0.9-1.3-1.6-2.2-2l-0.8-0.3l0.8-0.3c3.7-1.2,5.3-3.3,5-6.4c-0.4-3.3-2.9-5.3-7-5.3c-0.5,0-1,0-1.6,0.1
			c-0.4,0-1.8,0.2-3.1,0.4l-0.5,0.1c-1.2,0.2-2.2,0.3-3.3,0.4s-1.8,0.2-3,0.3l-1.2,0.1c-0.2,0-0.2,0-0.4,0h-0.2
			c-0.4,0-0.5,0.1-0.5,0.2c0,0.1,0,0.1,0,0.2C715.7,39.4,715.7,39.5,716.5,39.5z M723.9,39.1c0.5-0.4,1.1-0.7,1.7-0.7
			c0.3,0,0.6-0.1,0.9-0.1c3.3,0,5.5,2.1,5.9,5.5c0.4,3.6-1.4,5.7-5.4,6.1c-0.6,0.1-1.1,0.1-1.4,0.1c-1.1,0-1.2-0.6-1.3-1.6l-0.7-6.8
			C723.4,40.8,723.5,39.9,723.9,39.1L723.9,39.1z M752.6,63.2c0.6,0.1,1.2,0.1,1.7,0.1c4.4,0,7.7-2.6,8.3-6.5
			c0.5-3.3-1.2-5.9-5.5-8.4c-4.5-2.6-5.5-3.9-5.2-6.4c0.3-2.2,2.3-3.8,4.5-3.6c0.3,0,0.7,0,1,0.1c2.7,0.4,4,1.7,4.5,4.8
			c0.2,1.3,0.3,1.3,0.5,1.4h0.2c0.1-0.3,0.2-0.6,0.2-0.9l0.2-1.3l0.1-0.7l0.1-0.4c0.1-1,0.1-1.3,0-1.5c-0.3-0.4-3.2-1.5-5.4-1.8
			c-0.6-0.1-1.1-0.1-1.7-0.1c-3.9,0-6.7,2.2-7.3,5.6c-0.5,3.2,0.8,5.2,5.5,8.1c4.1,2.6,5.6,4.6,5.2,7.2c-0.4,2.5-2.6,4.2-5.1,4.2
			c-0.3,0-0.6,0-0.8-0.1c-3.3-0.5-5.8-3.7-6.1-7.5c0-0.1,0-0.4-0.2-0.5c-0.1,0-0.2,0-0.2,0.4c-0.2,0.8-0.6,2.6-0.7,3.7
			s-0.1,1.5,0.1,1.7C748.2,62,750.4,62.8,752.6,63.2z M776,69.9c1.9,0.8,3.9,1.3,6,1.3c5.2,0.1,10-2.8,12.3-7.5
			c2.8-6.2-0.8-13.9-7.9-17.1c-2.1-0.9-4.3-1.4-6.6-1.4c-5-0.1-9.6,2.7-11.7,7.3C765.2,58.9,768.8,66.7,776,69.9z M772.5,53.4
			c2.1-4.7,5.7-7.5,9.6-7.5c1.2,0,2.5,0.3,3.6,0.8c5.3,2.3,7.2,9,4.3,15.4c-2.2,5-6.4,8.3-10.5,8.3c-1.1,0-2.2-0.2-3.1-0.7
			C771.4,67.4,769.6,60.1,772.5,53.4z M805.4,57.4c1.6,1.5,1.3,2.3-0.7,4.6l-9,10.2c-2.6,2.9-3.5,3.9-4.5,3.9
			c-0.6-0.1-1.1-0.3-1.5-0.7c-0.5-0.3-0.9-0.6-1.5-0.9l-0.1,0.1c-0.1,0.1,0,0.2,0.2,0.4c0.4,0.4,0.8,0.7,1.2,1
			c0.8,0.6,1.6,1.2,2.4,1.9c0.6,0.5,1.2,1.1,1.9,1.7c0.3,0.4,0.8,0.8,0.9,0.9c0.3,0.3,0.5,0.3,0.5,0.3s0.1,0,0.1-0.1s0,0,0-0.1v-0.1
			c0-0.1-0.1-0.3-0.2-0.3c-2.7-2.7-2.4-3.2,1.6-7.8l9.8-11.4l-0.8,29.2c0,0.8,0.1,1.2,0.3,1.4c0.1,0.1,0.2,0.1,0.2,0.1
			c0.1,0,0.4-0.2,0.7-0.5l14-16.1c0.8-0.8,1.3-1.3,2-1.3c0.7,0.1,1.3,0.4,1.8,0.8c0.3,0.3,0.8,0.5,1.2,0.7c0,0,0.1,0,0.1-0.1
			c0,0,0,0,0-0.1c0,0,0,0,0-0.1c0,0,0-0.2-0.2-0.4s-0.6-0.4-0.9-0.7c-0.5-0.4-1.3-1.1-2.2-1.8s-1.6-1.5-2.2-2.1
			c-0.2-0.2-0.4-0.4-0.5-0.5l-0.2-0.2c-0.3-0.3-0.5-0.3-0.6-0.3h0.1l0,0c-0.1,0.1-0.1,0.3,1,1.4c1.6,1.6,1.2,2.4-1.6,5.7l-8.8,10.3
			l0.9-23.9c0.1-1.3,0.1-1.3-0.3-1.7l-2.1-1.8l-2.8-2.6c-0.4-0.4-0.6-0.5-0.7-0.5s0,0-0.1,0.1S804.5,56.6,805.4,57.4z M822.9,94.3
			c0.9,4.8,0.4,7.2-1.8,8.7c-0.8,0.5-1.7,0.8-2.6,0.8c-1.8,0-3.4-0.9-4.4-2.4c-1.8-2.7-1.3-6.8,1.4-9.6c0.1-0.1,0.3-0.3,0.2-0.4
			s-0.1-0.1-0.1-0.1c-0.1,0-0.2,0-0.3,0.1c-0.7,0.4-2.3,1.4-3.1,1.9c-1,0.7-1.2,0.9-1.1,1.2c0.3,2.2,1.1,4.4,2.3,6.3
			c1.6,2.6,4.3,4.2,7.4,4.3c1.5,0,2.9-0.5,4.1-1.3c2.8-1.9,3.5-4.9,2.5-9.7c-1.1-5.1-0.9-6.8,1.2-8.1c0.7-0.5,1.5-0.7,2.3-0.8
			c1.7,0.1,3.2,1,4,2.4c1.6,2.3,1.4,4.1-0.5,6.6c-0.8,1-0.8,1.1-0.6,1.3s0.1,0.2,0.1,0.2c0.3-0.1,0.5-0.3,0.8-0.4l1.1-0.7l0.5-0.4
			l0.4-0.2c0.9-0.6,1.1-0.8,1.1-1c0.1-0.5-1.1-3.3-2.4-5.2c-1.7-2.5-4.1-4-6.5-4c-1.3,0-2.5,0.4-3.5,1.1
			C822.4,86.7,821.9,89,822.9,94.3z M643.5,115.6c3,0,5.4-2.4,5.4-5.4c0-0.7-0.1-1.4-0.4-2.1c-0.3-0.7-0.7-1.2-1.2-1.8
			c-2.1-2.1-5.5-2.1-7.6,0c-1,1-1.6,2.4-1.6,3.8c0,0.7,0.1,1.4,0.4,2C639.4,114.2,641.4,115.6,643.5,115.6L643.5,115.6z
			 M831.1,110.2c0,3,2.4,5.3,5.4,5.3s5.3-2.4,5.3-5.4c0-0.7-0.1-1.4-0.4-2c-0.3-0.7-0.7-1.2-1.2-1.8c-2.1-2.1-5.5-2.1-7.6,0l0,0
			c-0.5,0.5-0.9,1.1-1.2,1.8C831.2,108.8,831.1,109.5,831.1,110.2z"/>
	</g>
	<g id="base_00000157307727346859113860000000181392250827700398_">
		<path class="st12" d="M825.2,153.5c-0.1,46.9-38.3,84.9-85.2,84.8c-46.9-0.1-84.9-38.3-84.8-85.2c0.1-46.9,38.1-84.8,85-84.8
			C787.2,68.4,825.3,106.5,825.2,153.5z M814.1,153.5c-0.1,40.8-33.2,73.8-74,73.8c-40.8-0.1-73.8-33.2-73.8-74
			c0.1-40.8,33.1-73.8,73.9-73.8C781,79.6,814.1,112.7,814.1,153.5z"/>
		
			<radialGradient id="SVGID_00000017475127394257646920000012395742860427930278_" cx="-168.6915" cy="-772.3242" r="1" gradientTransform="matrix(72.63 50.58 -50.62 72.69 -26110.5176 64821.3281)" gradientUnits="userSpaceOnUse">
			<stop  offset="0.91" style="stop-color:#000000;stop-opacity:0"/>
			<stop  offset="1" style="stop-color:#000000;stop-opacity:0.67"/>
		</radialGradient>
		<path style="fill-rule:evenodd;clip-rule:evenodd;fill:url(#SVGID_00000017475127394257646920000012395742860427930278_);" d="
			M825.2,153.5c-0.1,46.9-38.3,84.9-85.2,84.8c-46.9-0.1-84.9-38.3-84.8-85.2c0.1-46.9,38.1-84.8,85-84.8
			C787.2,68.4,825.3,106.5,825.2,153.5z M814.1,153.5c-0.1,40.8-33.2,73.8-74,73.8c-40.8-0.1-73.8-33.2-73.8-74
			c0.1-40.8,33.1-73.8,73.9-73.8C781,79.6,814.1,112.7,814.1,153.5z"/>
		
			<radialGradient id="SVGID_00000127041017758257051610000014665771698235783296_" cx="-201.1268" cy="-821.5228" r="1" gradientTransform="matrix(-73.57 -51.4 51.44 -73.63 28202.5586 -70665.2812)" gradientUnits="userSpaceOnUse">
			<stop  offset="0.93" style="stop-color:#FFFFFF;stop-opacity:0"/>
			<stop  offset="1" style="stop-color:#FFFFFF"/>
		</radialGradient>
		
			<path style="fill-rule:evenodd;clip-rule:evenodd;fill:url(#SVGID_00000127041017758257051610000014665771698235783296_);fill-opacity:0.61;" d="
			M825.2,153.5c-0.1,46.9-38.3,84.9-85.2,84.8c-46.9-0.1-84.9-38.3-84.8-85.2c0.1-46.9,38.1-84.8,85-84.8
			C787.2,68.4,825.3,106.5,825.2,153.5z M814.1,153.5c-0.1,40.8-33.2,73.8-74,73.8c-40.8-0.1-73.8-33.2-73.8-74
			c0.1-40.8,33.1-73.8,73.9-73.8C781,79.6,814.1,112.7,814.1,153.5z"/>
		
			<radialGradient id="SVGID_00000165934621369013877040000010758484769926437280_" cx="-166.5016" cy="-768.0797" r="1" gradientTransform="matrix(63.25 42.66 -42.7 63.3 -21521.7305 55883.125)" gradientUnits="userSpaceOnUse">
			<stop  offset="0.9" style="stop-color:#FFFFFF"/>
			<stop  offset="0.99" style="stop-color:#FFFFFF;stop-opacity:0"/>
		</radialGradient>
		
			<path style="fill-rule:evenodd;clip-rule:evenodd;fill:url(#SVGID_00000165934621369013877040000010758484769926437280_);fill-opacity:0.51;" d="
			M825.2,153.5c-0.1,46.9-38.3,84.9-85.2,84.8c-46.9-0.1-84.9-38.3-84.8-85.2c0.1-46.9,38.1-84.8,85-84.8
			C787.2,68.4,825.3,106.5,825.2,153.5z M814.1,153.5c-0.1,40.8-33.2,73.8-74,73.8c-40.8-0.1-73.8-33.2-73.8-74
			c0.1-40.8,33.1-73.8,73.9-73.8C781,79.6,814.1,112.7,814.1,153.5z"/>
		
			<radialGradient id="SVGID_00000040564344623941435250000002573257476878375846_" cx="-203.6961" cy="-825.5157" r="1" gradientTransform="matrix(-63.38 -44.14 44.18 -63.43 24295.8574 -61203.7148)" gradientUnits="userSpaceOnUse">
			<stop  offset="0.92" style="stop-color:#000000;stop-opacity:0.9"/>
			<stop  offset="1" style="stop-color:#000000;stop-opacity:0"/>
		</radialGradient>
		
			<path style="fill-rule:evenodd;clip-rule:evenodd;fill:url(#SVGID_00000040564344623941435250000002573257476878375846_);fill-opacity:0.85;" d="
			M825.2,153.5c-0.1,46.9-38.3,84.9-85.2,84.8c-46.9-0.1-84.9-38.3-84.8-85.2c0.1-46.9,38.1-84.8,85-84.8
			C787.2,68.4,825.3,106.5,825.2,153.5z M814.1,153.5c-0.1,40.8-33.2,73.8-74,73.8c-40.8-0.1-73.8-33.2-73.8-74
			c0.1-40.8,33.1-73.8,73.9-73.8C781,79.6,814.1,112.7,814.1,153.5z"/>
	</g>
</g>
<path id="wordmark" class="st10" d="M509.5,205.7h-25c-1.5-0.1-3-0.3-4.4-0.8l-2.1,9.4l0.6,0.4c1.6-1.9,2.6-3.9,3.9-5.7
	s1.6-2.1,3.5-2.1h8.3v29.8c0,2.2-1.1,2.7-4.6,2.8v1.1H504v-1.1c-3.7,0-4.7-0.7-4.7-2.8v-29.6h8.4c1.8,0,2.4,0.8,3.5,2.1
	c1.4,1.8,2.7,3.8,3.9,5.8l0.7-0.4l-1.9-9.4C512.6,205.5,511.1,205.8,509.5,205.7z M54,192.4c2.6,0.3,5.8,0,5.8,3.5
	c-1,6.2-2.6,12.3-4.7,18.2l-4.7,15.4l-9.3-26.8c-0.8-2.2-1.5-4.5-2.1-6.8c0-3.4,3.4-3.4,6.1-3.6v-1.5H24.7v1.5
	c1.6-0.2,3.3,0.2,4.7,1.1c1.3,1.3,2.3,2.9,2.7,4.7l2.3,6.5L25.5,230l-12.4-34.3c-0.2-0.4-0.3-0.8-0.4-1.3c0-1.9,2.5-2,5.5-2.1v-1.5
	H0.8v1.5c1.1,0,2.1,0.5,2.9,1.2c1.1,1.7,1.8,3.6,2.3,5.5l16.1,42.6h1.3L35,207.1l11.7,34.5H48l12-38.7c1-3.6,2.2-9.7,6.6-10.4V191
	H54V192.4z M70.6,206.9c2.8,0,4.6,0.2,4.6,2.8v27c0,2.6-1.8,2.8-4.6,2.8v1.1h14.3v-1.1c-2.9,0-4.7-0.3-4.7-2.8v-27.2
	c0-2.6,1.8-2.8,4.7-2.8v-1.1H70.6V206.9z M117.1,206.9c3,0.3,4.4,0.6,4.4,3.2v23.1l-24.9-27.4h-7.4v1.2c1.8,0,3,1.4,4.4,2.9v26.7
	c-0.2,2.6-2,2.6-4.3,2.8v1.1h10.4v-1.1c-3.4,0-4.6-1.1-4.6-2.8v-25.4l27.4,29.7h0.7V210c0-1.7,1.1-2.6,4.6-3.2v-1.1h-10.6
	L117.1,206.9L117.1,206.9z M156.6,237c-1.4,1.7-3.6,2.6-5.8,2.4h-5.6c-1.8,0-3.4,0-3.4-2.5v-13.3h3.4c4.9,0,7.1,1.1,7.6,6.8h0.7
	v-14.5h-0.8c-1.2,5.7-3.2,6.3-8.2,6.4h-2.7V207h7.8c3.1-0.1,6.1,1.4,7.8,3.9c0.8,1,1.6,2.1,2.3,3.2l1.1-0.2l-2.5-8.1h-25.6v1.2
	c2.3,0,3.9,0.2,3.9,2.8v27c0,2.6-1.5,2.8-3.9,2.8v1.1h27.4l2-9l-0.9-0.2C159.7,233.4,158.2,235.3,156.6,237z M465,206.9
	c3,0.3,4.4,0.6,4.4,3.2v23.1l-24.9-27.4H437v1.2c1.8,0,3,1.4,4.4,2.9v26.7c0,2.6-2,2.6-4.3,2.8v1.1h10.4v-1.1
	c-3.4,0-4.6-1.1-4.6-2.8v-25.4l27.4,29.7h0.7V210c0-1.7,1.1-2.6,4.6-3.2v-1.1h-10.3L465,206.9z M385.8,206.9c2.6,0,4.4,0.2,4.4,2.8
	v12.6h-18.4v-12.7c0-2.6,1.8-2.8,4.8-2.8v-1.1H363v1.2c1.9,0,3.9,0.2,3.9,2.8v27c0,2.6-1.8,2.8-3.9,2.8v1.1h13.1v-1.1
	c-3,0-4.2-0.3-4.2-2.8v-13.2h18.5v13c0,2.6-1.8,2.8-4.4,2.8v1.1h13.3v-1.1c-2.4,0-3.9-0.3-3.9-2.8v-27c0-2.6,1.8-2.8,3.9-2.8v-1.1
	h-13.4L385.8,206.9z M318.4,236.6c-2.3-4.5-5.2-8.7-8.6-12.4c4.7-1.6,7.8-3.9,7.8-9.2c0-7.1-6.8-9.4-12.8-9.4H291v1.4
	c2.3,0,3.5,0.2,3.5,2.8v27c0,2.6-0.9,2.8-3.7,2.8v1.1H304v-1.1c-3,0-4.3-0.3-4.3-2.8V225c2.2-0.1,4.4,0.6,6,2.1
	c3.5,4.2,6.5,8.8,9.1,13.6h8.3v-1.1c-1,0.1-2-0.2-2.9-0.7C319.4,238.4,318.7,237.5,318.4,236.6z M304.4,223.5h-4.5v-13.9
	c0-2.6,1.3-3,3.9-3c2.2-0.2,4.5,0.6,6.1,2.2c0.8,0.8,1.4,1.7,1.8,2.8c0.4,1,0.6,2.1,0.5,3.3c0.1,1.1,0,2.2-0.3,3.3s-0.9,2-1.6,2.8
	s-1.6,1.5-2.6,1.9C306.6,223.3,305.5,223.5,304.4,223.5z M343.5,240.1c-3.7-0.1-7.1-2.1-9-5.3c-2.2-3.3-3.3-7.1-3.2-11.1
	c-0.1-3.4,0.5-6.8,1.8-10c1.9-4.3,6-7.1,10.6-7.4c6.7,0.3,12,5.7,12.2,12.4h0.9v-11.8H356l-1.6,2.2c-3.1-2.3-6.9-3.6-10.7-3.7
	c-2.4-0.1-4.8,0.3-7,1.2c-6.9,2.8-11.3,9.6-11,17c-0.2,2.4,0.2,4.8,1,7s2.1,4.3,3.8,5.9c3.4,3.4,8.2,5.1,13,4.7
	c4-0.1,7.9-1.4,11.2-3.7l1.4,2.4h1.1v-11.2h-0.9C355.5,235.1,350.1,240.1,343.5,240.1L343.5,240.1z M217.7,231.5l-19-40.7h-12.3v1.5
	c2.7,0.3,5.5,0.3,5.7,3.4v39.2c0,3.6-2.6,3.9-6.4,3.9v1.5h14.9v-1.5c-3.9,0-6.6-1-6.6-3.9v-37.3l20.3,42.8h1.3l18.7-43.1v37.8
	c0,3.1-1,3.6-6.1,3.9v1.5h18.7V239c-3.4,0-5.3-0.4-5.3-3.9V197c0-3.9,1.6-4.4,5.3-4.7v-1.5h-11.4L217.7,231.5z M278.5,237
	c-1.4,1.7-3.6,2.6-5.8,2.4h-5.6c-1.9,0-3.5,0-3.5-2.5v-13.3h3.4c4.9,0,7.1,1.1,7.6,6.8h0.8v-14.5h-0.8c-1.1,5.7-3.2,6.3-8.2,6.4
	h-2.8V207h7.8c3.1-0.1,6.1,1.4,7.8,3.9c0.8,1,1.6,2.1,2.3,3.2l1.1-0.2l-2.5-8.1h-25.7v1.2c2.3,0,3.9,0.2,3.9,2.8v27
	c0,2.6-1.5,2.8-3.9,2.8v1.1h27.4l2-9l-0.9-0.2C281.7,233.4,280.2,235.3,278.5,237z M430.9,234.8l-11.7-30c-1.1,1.5-2.4,2.8-3.9,3.9
	l0.9,1.5L405.9,237c-0.3,0.7-0.7,1.2-1.3,1.7c-0.6,0.4-1.2,0.7-1.9,0.8v1.1h9.1v-1.1c-1.4,0-3.9,0-3.9-2.1c0-1.3,2.9-8.2,3.4-10h12
	c1.3,3.3,2.5,6.7,3.5,10.1c0,2-2.7,2-4.2,2v1.1h13.1v-1.1C432.6,239,432,237.6,430.9,234.8z M411.4,225.9l5.2-14.3l5.7,14.3H411.4z
	 M530.8,220.6c-3.5-1.1-6.8-2.1-6.8-6.5c-0.1-1,0-2,0.3-3s0.8-1.9,1.5-2.6c2.8-2.9,7.4-3,10.3-0.2c0.2,0.2,0.5,0.5,0.7,0.8
	c1.6,2.4,2.7,5.1,3.2,8h0.9V207h-0.7l-1.5,1.3c-2.3-1.9-5.1-2.9-8.1-2.9c-3.4-0.1-6.6,1.3-8.8,3.9c-1.3,1.7-2,3.8-2,6
	c-0.2,2.3,0.6,4.6,2,6.4c2.1,1.9,4.6,3.3,7.3,3.9c3.9,1.4,8.4,2,8.4,7.1c0,2.1-0.8,4.1-2.4,5.5c-1.6,1.4-3.6,2.1-5.7,1.8
	c-1.5,0.1-3-0.2-4.3-0.9s-2.5-1.7-3.3-3c-1.1-1.9-1.8-3.9-2-6.1h-1v10.5h0.7l1.9-1.9l0.5,0.3c2.4,1.5,5.2,2.3,8.1,2.3
	c6.5,0,12-2.8,12-9.9S536.3,222.3,530.8,220.6z"/>
<path id="wordmark_00000009577009469519374390000010964105444339562424_" class="st10" d="M541.5,145.8c0-12.4-9.6-17-19.6-20.2
	l-2.1-0.6c-6.9-2.1-13.4-4.2-13.4-12.7s5.2-15.1,14.3-15.1c0.4,0,0.7,0,1.1,0c3.8,0.4,7.3,2.3,9.7,5.3c3.4,3.9,4.9,10.8,6.3,15.7
	h1.8V98.1h-1.4l-2.9,2.6c-3.8-3.2-8.5-5.1-13.5-5.4h-2.4c-8.3-0.6-16.1,4.1-19.4,11.8c-1.1,2.5-1.6,5.2-1.6,7.8
	c0,13,6.8,16.5,18.1,20.2c1.7,0.6,3.6,1.2,5.3,1.8c5.8,2,11.1,4.5,11.1,12.1c0.2,6.7-4.5,12.5-11.1,13.8c-1.6,0.3-3.1,0.5-4.7,0.5
	c-12.3,0-17.5-9.5-18.8-19.9h-2V164h1.2l3.9-3.6c5,3.3,10.8,5,16.8,5h3.9C532.8,164.1,541.5,158.4,541.5,145.8z M133.3,145.8
	c-2.5,4.1-5.5,7.9-8.9,11.3c-2.8,3.3-7.1,5.1-11.4,4.8h-11.1c-3.6,0-6.8-0.4-6.8-4.8V131h6.7c9.5,0,13.8,2.3,14.8,13.3h1.6V116h-1.7
	c-2.3,11.1-6.2,12.3-16.1,12.4h-5.3V98H110c6.3-0.2,12.2,2.8,15.7,8.1c1.6,2,3.1,4,4.4,6.2l2.1-0.5l-4.8-15.7H77.2v2.1
	c4.5,0,7.8,0.5,7.8,5.5v52.6c0,5-2.9,5.5-7.8,5.5v2H131l3.9-17.6L133.3,145.8z M239.7,161.8c-6,0-8.3-0.5-8.3-5.5v-23.2
	c4.3-0.3,8.5,1.1,11.7,3.9c6.8,8.4,12.7,17.3,17.8,26.8h16.3v-2.1c-4,0.3-7.8-1.9-9.4-5.5c-4.5-8.8-10.1-17-16.8-24.3
	c9.2-3.1,15.6-7.8,15.6-18c0-14-13.3-18.6-25.1-18.6c-9,0-18.1,0.4-26.8,0.4v2.1c4.5,0,6.9,0.5,6.9,5.5v52.8c0.3,5-1.8,5.5-7.3,5.5
	v2h25.5L239.7,161.8z M231.4,103.5c0-5.1,2.5-5.9,7.5-5.9c10.3,0,16.9,6.2,16.9,16.3c0.6,6.7-3.2,13-9.4,15.6
	c-2,0.8-4.1,1.2-6.3,1.2c-3,0.2-5.9,0.4-8.8,0.4L231.4,103.5z M370.6,165.3c28.5,0,35.2-23.2,35.2-34.6
	c1.1-18.6-13.1-34.5-31.7-35.6c-1-0.1-1.9-0.1-2.9,0c-9.7,0-33.8,6.4-33.8,36C337.3,143.2,344.2,165.3,370.6,165.3z M371.8,97.2
	c8.6,0,23.5,9,23.5,33.5c0,14.6-7.8,32.6-24.6,32.6c-14.5,0-22.8-14.7-22.8-31.7C347.8,107.5,360,97.2,371.8,97.2z M7,158.6
	c7.1,4.7,15.5,7.2,24,7.2c18,0,33.4-7.8,33.4-27.7c0-18.8-15.7-25.2-31.1-29.8c-9.8-2.9-19.1-5.9-19.1-18.2s7.3-21.7,20.5-21.7
	c6.1,0.2,11.7,3,15.5,7.8c4.9,5.5,7,15.7,9,22.5h2.5v-29h-2l-4.3,3.9c-6.3-5.2-14.3-8-22.5-7.8c-16.6,0-30.1,11.1-30.1,28.3
	c0,18.5,9.7,23.5,25.9,28.8c10.5,3.9,23.5,5.6,23.5,19.8c0,7.1-3.9,20.4-22.6,20.4c-17.5,0-25-13.5-26.8-28.4H0v29.1h1.7L7,158.6z
	 M478.8,104.2c0-3.3,2.2-5.1,9-6.2v-2.1h-20.2V98c6,0.6,8.6,1.3,8.6,6.3v45.1l-48.7-53.5h-14.6V98c3.5,0,5.9,2.9,8.5,5.7V156
	c0,0.1,0,0.2,0,0.3c-0.4,5-3.9,5-8.6,5.5v2h20.3v-2.1c-6.6,0-9-2.2-9-5.5v-49.7l53.2,58.1h1.4L478.8,104.2z M328.5,145.8
	c0-13.2-11-17.6-21.7-20.9c-6.9-2-13.4-3.9-13.4-12.7s5.1-15,14.4-15c4.2,0.1,8.2,2.1,10.8,5.4c3.4,3.9,4.9,10.8,6.3,15.7h1.8V98.1
	h-1.4l-2.9,2.5c-4.4-3.6-10-5.6-15.7-5.6c-10.9-0.7-20.3,7.6-21,18.5c0,0.4,0,0.7,0,1.1c0,13,6.8,16.4,18.1,20.2
	c7.4,2.7,16.4,3.9,16.4,13.9c0,4.9-2.8,14.3-15.6,14.3c-12.3,0-17.5-9.4-18.7-19.9h-2v20.7h1l3.9-3.6c5,3.3,10.8,5,16.8,5
	C317.7,165.3,328.5,159.9,328.5,145.8z M181.7,161.8v2h25.7v-2.1c-5.3-0.8-6.5-3.4-8.6-9.1l-23-58.8c-2.1,3.1-4.8,5.7-7.8,7.8
	l1.8,2.9L149.5,157c-1,2.7-3.5,4.5-6.3,4.8v2H161v-2.1c-2.7-0.4-7.8-0.4-7.8-4.2c0-2.5,5.7-15.9,6.7-19.6h23.5
	c1.2,4.3,6.8,16.9,6.8,19.6C190,161.8,184.6,161.8,181.7,161.8z M160.8,135.4l10.2-27.9l11.1,27.9H160.8z"/>
</svg>
