<?xml version="1.0" standalone="no"?>
<!DOCTYPE svg PUBLIC "-//W3C//DTD SVG 20010904//EN"
 "http://www.w3.org/TR/2001/REC-SVG-20010904/DTD/svg10.dtd">
<svg version="1.0" xmlns="http://www.w3.org/2000/svg"
 width="260.000000pt" height="260.000000pt" viewBox="0 0 260.000000 260.000000"
 preserveAspectRatio="xMidYMid meet">
<metadata>
Created by potrace 1.14, written by Peter Selinger 2001-2017
</metadata>
<g transform="translate(0.000000,260.000000) scale(0.100000,-0.100000)"
fill="#000000" stroke="none">
<path d="M1148 2589 c-491 -61 -904 -391 -1072 -857 -95 -264 -95 -600 0 -864
155 -431 515 -744 967 -839 144 -31 370 -31 514 0 518 109 905 496 1014 1014
31 144 31 370 0 514 -95 452 -408 812 -839 967 -163 58 -413 86 -584 65z m26
-416 c4 -49 10 -96 12 -105 4 -14 0 -18 -18 -18 -22 0 -23 4 -26 73 -1 39 -7
87 -11 105 -9 29 -8 32 14 32 21 0 23 -5 29 -87z m84 75 c15 -15 15 -51 0 -66
-19 -19 -29 -14 -22 13 4 18 1 32 -11 45 -17 19 -17 20 1 20 11 0 25 -5 32
-12z m150 -9 c-12 -18 -8 -24 35 -61 48 -41 56 -63 37 -99 -16 -28 -27 -23
-22 9 3 24 -3 34 -37 61 -45 36 -56 81 -23 100 23 14 24 14 10 -10z m86 -10
c-3 -6 -7 -9 -8 -7 -1 2 -8 12 -16 22 -14 18 -14 19 8 7 12 -7 20 -17 16 -22z
m128 -44 c-53 -23 -73 -90 -48 -160 6 -15 2 -13 -18 8 -56 61 -14 168 66 167
l33 -1 -33 -14z m-582 -100 c14 -15 33 -30 43 -34 15 -6 12 -10 -17 -24 -25
-11 -34 -12 -30 -4 2 7 -6 23 -20 36 -23 22 -25 22 -55 7 -17 -9 -31 -20 -31
-24 1 -25 14 -51 29 -54 11 -3 6 -7 -14 -15 l-30 -10 3 114 3 114 47 -40 c26
-21 58 -51 72 -66z m704 54 c9 -15 16 -41 16 -59 0 -43 -49 -90 -94 -90 l-31
0 25 13 c33 16 70 73 70 107 0 15 -10 40 -22 55 -20 26 -20 27 -1 14 11 -7 28
-25 37 -40z m-493 4 c62 -69 62 -70 40 -76 -16 -4 -29 6 -55 43 -31 43 -36 60
-16 60 3 0 17 -12 31 -27z m133 -82 c-8 -10 -32 22 -27 35 4 12 8 10 18 -8 6
-13 10 -25 9 -27z m501 -93 c-4 -54 -3 -98 2 -97 19 1 84 93 79 111 -4 18 -3
19 13 4 16 -15 12 -20 -53 -92 l-71 -76 -5 121 -5 120 -48 -57 c-31 -37 -46
-64 -43 -75 4 -17 3 -17 -13 -3 -16 14 -13 20 47 83 45 48 62 73 58 86 -4 17
-2 16 21 -4 25 -24 25 -26 18 -121z m-1115 111 c0 -5 -9 -9 -19 -9 -10 0 -29
-8 -42 -19 l-22 -18 22 -32 c13 -18 29 -30 37 -27 8 3 11 0 8 -8 -7 -19 45
-78 64 -71 12 5 13 3 2 -10 -16 -20 -51 -39 -48 -27 4 13 -94 133 -114 141
-14 5 -6 15 40 53 53 43 72 50 72 27z m40 -78 c8 -15 6 -17 -14 -14 -17 4 -22
10 -19 24 6 21 18 17 33 -10z m59 -77 c-13 -13 -14 -10 -11 23 5 35 6 36 15
15 8 -17 7 -26 -4 -38z m-298 30 c11 -13 9 -14 -13 -9 -46 12 -88 -51 -56 -83
17 -17 43 -15 88 8 79 41 141 15 139 -57 -2 -32 -3 -33 -6 -10 -7 47 -42 55
-111 23 -71 -31 -82 -32 -110 -6 -31 29 -29 80 4 119 29 35 45 38 65 15z
m1504 -84 c3 -6 -1 -7 -10 -4 -31 12 -47 -15 -40 -71 8 -62 -9 -86 -58 -84
-30 1 -30 1 -7 8 23 6 25 12 28 71 2 35 8 70 14 77 12 15 64 17 73 3z m-698
-10 c20 0 33 -5 35 -15 2 -10 32 -26 72 -40 38 -13 92 -39 120 -58 51 -34 156
-135 156 -149 0 -5 15 -9 33 -10 17 -1 -20 -5 -83 -8 l-115 -6 117 -2 116 -2
11 -30 10 -30 -105 0 c-63 0 -104 -4 -104 -10 0 -6 43 -10 110 -10 67 0 110
-4 110 -10 0 -5 -4 -10 -10 -10 -5 0 -10 -11 -10 -25 0 -18 5 -25 20 -25 11 0
20 -4 20 -10 0 -5 -25 -10 -56 -10 -54 0 -55 0 -52 -27 3 -27 6 -28 68 -34 36
-3 50 -6 33 -7 -30 -2 -33 -5 -33 -32 0 -27 3 -30 31 -30 24 0 30 -3 25 -16
-3 -9 -6 -29 -6 -45 0 -24 -4 -29 -25 -29 -21 0 -25 -5 -25 -30 0 -21 5 -30
18 -32 9 0 -5 -4 -33 -7 -45 -5 -50 -8 -50 -31 0 -21 6 -26 37 -30 36 -5 36
-6 23 -30 -11 -19 -14 -21 -15 -7 0 14 -9 17 -55 17 -52 0 -55 -1 -55 -25 0
-23 3 -25 50 -25 28 0 50 -4 50 -10 0 -5 -9 -10 -20 -10 -13 0 -20 -7 -20 -19
0 -35 -12 -51 -36 -51 -19 0 -24 -6 -25 -27 l-2 -28 -4 28 c-4 22 -9 27 -34
27 -27 0 -30 -3 -27 -27 2 -19 10 -29 28 -34 23 -7 23 -7 3 -8 -12 -1 -27 -10
-33 -21 -6 -11 -33 -31 -60 -45 -57 -29 -60 -29 -60 -12 0 8 -23 19 -52 27
-29 7 -74 19 -100 27 l-48 14 0 429 c0 417 1 430 19 430 11 0 28 -15 41 -35
32 -51 116 -122 181 -153 l58 -27 4 -230 3 -230 1 257 2 258 -26 30 c-14 17
-22 37 -19 45 7 18 -42 56 -110 86 -41 19 -70 23 -174 25 -93 1 -135 -2 -165
-14 -53 -20 -151 -85 -137 -90 19 -6 14 -34 -10 -60 -22 -23 -23 -30 -26 -283
-2 -142 -1 -259 1 -259 3 0 12 3 21 6 14 5 16 34 16 219 0 129 -4 216 -10 220
-6 4 -11 -75 -13 -217 l-2 -223 -3 230 -2 231 35 13 c61 22 151 90 195 146 25
32 50 55 61 55 18 0 19 -16 19 -430 l0 -429 -34 -10 c-19 -5 -67 -17 -105 -27
-44 -11 -71 -24 -71 -32 0 -9 -19 -3 -60 19 -33 17 -60 38 -60 45 0 8 -10 15
-22 15 l-23 2 23 4 c17 3 22 11 22 34 0 24 -4 29 -25 29 -18 0 -25 -5 -25 -20
0 -11 -4 -20 -10 -20 -5 0 -10 9 -10 20 0 13 -7 20 -20 20 -11 0 -20 5 -20 10
0 6 25 10 55 10 52 0 55 1 55 25 0 24 -3 25 -60 25 -55 0 -60 -2 -61 -22 l-2
-23 -4 23 c-2 12 -11 22 -19 22 -8 0 -14 5 -14 10 0 6 20 10 45 10 42 0 45 2
45 26 0 25 -1 26 -60 22 -41 -2 -61 1 -65 10 -3 8 7 12 30 12 32 0 35 2 35 30
0 29 -1 30 -47 30 -38 1 -44 3 -30 11 9 5 17 21 17 34 0 20 -5 25 -25 25 -14
0 -25 5 -25 10 0 6 25 10 55 10 52 0 55 1 55 25 0 24 -3 25 -54 25 -34 0 -56
-5 -59 -12 -3 -7 -6 -3 -6 10 -1 18 4 22 30 22 27 0 30 3 27 27 -2 22 -10 29
-33 34 -22 5 -12 7 33 8 l62 1 0 30 c0 29 -1 30 -50 30 -27 0 -50 5 -50 10 0
6 9 10 20 10 15 0 20 7 20 25 0 14 -4 25 -10 25 -5 0 -10 5 -10 10 0 6 42 10
105 10 63 0 105 4 105 10 0 6 -40 10 -99 10 l-100 0 10 30 11 30 111 2 112 2
-110 6 c-60 3 -102 7 -93 8 9 1 50 35 90 75 76 76 182 139 255 153 22 4 37 13
40 25 5 19 65 30 133 23 19 -2 49 -4 67 -4z m730 -54 c-4 -9 -11 -16 -17 -16
-7 0 -8 6 -1 19 6 10 9 21 7 23 -1 3 2 2 7 -3 5 -4 7 -15 4 -23z m-185 2 c-7
-7 -12 -23 -13 -37 l0 -26 -12 24 c-9 19 -8 26 8 37 23 17 33 18 17 2z m-1214
-60 c-23 -34 -64 -46 -85 -25 -16 15 -14 16 21 15 23 -1 43 5 54 15 23 24 27
21 10 -5z m-173 -62 c19 -29 10 -54 -21 -62 -30 -8 -54 11 -54 40 0 47 49 62
75 22z m1599 5 c23 -25 13 -59 -20 -67 -30 -8 -54 11 -54 42 0 22 22 43 46 44
6 0 19 -9 28 -19z m-1568 -217 c-3 -7 -12 -11 -20 -8 -16 6 -166 -26 -166 -35
0 -3 38 -21 85 -39 47 -19 85 -37 85 -42 0 -5 -37 -21 -82 -35 -46 -15 -87
-31 -92 -35 -4 -5 29 -20 74 -35 66 -20 85 -23 92 -13 5 8 8 -2 8 -25 0 -34
-2 -37 -14 -24 -8 8 -59 31 -113 52 -104 40 -129 54 -116 65 4 4 46 20 91 35
46 15 80 31 75 35 -4 4 -41 20 -81 35 -69 27 -90 40 -79 51 2 2 58 20 123 39
65 18 121 40 124 47 3 7 6 -2 8 -20 2 -19 1 -40 -2 -48z m1692 63 c8 -9 3 -12
-21 -12 -28 0 -32 -5 -49 -49 -24 -67 -53 -83 -94 -50 -18 15 -18 15 4 9 25
-7 52 9 52 32 0 7 7 29 14 48 13 30 20 35 49 35 19 0 39 -6 45 -13z m-165 -35
c-20 -21 -28 -20 -20 3 4 8 13 15 22 15 13 0 12 -3 -2 -18z m187 -52 c0 -13
-7 -20 -20 -20 -19 0 -19 1 -2 19 22 25 22 25 22 1z m-162 -82 c-9 -7 -18 -22
-20 -33 -3 -14 -6 -11 -9 13 -5 29 -3 32 20 32 22 0 23 -2 9 -12z m175 -83
l-5 -31 -91 8 c-50 4 -94 5 -99 2 -4 -3 -8 5 -8 18 l0 24 93 -8 c77 -7 94 -6
102 6 12 20 14 17 8 -19z m-186 -84 c10 -16 9 -18 -8 -14 -10 3 -19 12 -19 19
0 20 13 17 27 -5z m71 -97 c45 -16 82 -32 82 -35 0 -3 -39 -21 -87 -39 -49
-18 -99 -37 -113 -43 -23 -9 -20 -11 44 -33 39 -13 79 -24 89 -24 13 0 17 -5
13 -16 -3 -9 -6 -21 -7 -27 0 -7 -4 -2 -9 9 -6 16 -31 29 -92 49 -46 15 -84
29 -86 31 -2 1 1 11 6 21 6 11 45 30 96 47 47 16 86 32 86 35 0 9 -93 41 -118
41 -15 0 -19 5 -15 20 5 17 7 18 17 7 6 -8 48 -27 94 -43z m-1630 -7 c9 -30 8
-36 -2 -28 -11 9 -107 -15 -177 -43 -12 -5 -18 -1 -21 16 -3 18 0 23 16 24 12
1 54 12 94 24 49 15 72 27 72 38 0 23 7 12 18 -31z m22 -190 c-15 -40 -31 -83
-35 -96 l-7 -24 48 28 c27 15 57 34 66 42 15 13 18 12 29 -9 10 -20 10 -21 -2
-11 -12 9 -31 2 -99 -37 -46 -27 -85 -48 -87 -46 -2 2 14 52 36 112 22 60 38
110 36 112 -8 8 -135 -74 -135 -87 0 -11 -4 -10 -14 5 -13 17 -12 20 12 27 15
4 56 24 92 46 55 32 67 36 76 24 9 -11 6 -30 -16 -86z m1592 -84 c-9 -15 -19
-20 -26 -15 -6 5 -23 12 -37 16 -22 5 -30 1 -44 -21 -16 -24 -16 -28 -2 -52 9
-14 23 -25 31 -25 13 1 13 -2 -1 -22 -15 -23 -31 -35 -18 -13 4 5 -10 36 -31
67 -20 31 -29 50 -20 42 16 -13 20 -12 32 5 11 15 11 20 1 27 -20 13 -59 10
-52 -4 9 -17 -24 23 -35 42 -7 13 7 13 105 -5 l112 -20 -15 -22z m-1365 -132
c-10 -12 -13 -11 -15 10 -4 28 -29 59 -48 59 -7 0 -22 -13 -33 -28 -11 -16
-39 -48 -62 -71 l-42 -42 -21 20 c-15 16 -17 21 -6 21 22 0 130 112 130 134 0
16 11 9 55 -34 45 -44 52 -56 42 -69z m1108 109 c-7 -11 102 -133 125 -140 14
-4 11 -10 -14 -30 -17 -14 -27 -20 -23 -13 4 7 -6 27 -24 48 l-32 36 -26 -23
-26 -22 22 23 21 24 -21 28 c-11 16 -27 29 -36 29 -10 0 -8 7 9 25 24 25 36
33 25 15z m-100 -92 c-2 -7 7 -26 21 -41 21 -25 27 -27 42 -15 15 12 16 11 3
-5 -13 -16 -10 -22 23 -56 l36 -37 -25 -24 c-19 -18 -24 -20 -19 -7 9 24 -102
151 -125 142 -9 -3 -3 8 13 24 33 34 37 37 31 19z m-1057 -42 c-2 -1 -12 -9
-23 -18 -19 -16 -20 -15 -21 6 -1 19 2 22 23 18 13 -2 23 -5 21 -6z m236 -49
c3 -16 6 -62 6 -101 l1 -71 67 73 c55 60 71 71 90 66 24 -7 27 -14 13 -30 -4
-5 -22 -50 -39 -101 -23 -69 -27 -94 -18 -104 8 -9 7 -10 -7 -5 -11 3 -30 9
-43 12 -20 5 -22 8 -11 18 14 11 70 166 63 173 -2 2 -34 -30 -72 -72 -47 -53
-70 -72 -76 -63 -4 7 -8 45 -9 83 -2 124 -10 130 -47 36 -27 -69 -30 -86 -20
-99 11 -13 10 -15 -5 -9 -10 4 -23 7 -29 7 -7 0 -7 5 1 14 6 7 29 55 50 107
36 85 38 94 23 106 -14 10 -10 10 20 1 28 -8 37 -17 42 -41z m757 16 c12 -15
12 -16 -4 -10 -10 4 -26 7 -35 7 -15 0 -15 2 -2 10 21 13 25 13 41 -7z m-111
-53 c-26 -48 11 -117 78 -146 l27 -12 -27 -1 c-62 -2 -118 42 -118 93 0 17 9
46 21 65 22 36 38 37 19 1z m-945 -10 c-13 -12 -17 -12 -30 0 -12 13 -11 15
15 15 26 0 28 -2 15 -15z m859 -32 c20 -29 20 -34 -3 -57 -19 -19 -19 -20 29
-65 48 -45 49 -46 22 -46 -19 0 -40 13 -67 41 -36 36 -38 41 -22 50 17 10 23
45 9 65 -4 6 -16 16 -27 22 -18 10 -17 11 12 12 22 0 37 -7 47 -22z m-88 -25
c0 -32 8 -78 26 -153 2 -7 -10 -16 -25 -21 -22 -6 -26 -5 -18 5 9 11 7 28 -24
164 -3 12 -13 23 -23 23 -9 1 -3 5 13 9 49 12 50 12 51 -27z m-194 -72 c-3
-89 -1 -100 15 -104 10 -3 -4 -5 -32 -6 -33 0 -45 2 -36 8 10 6 16 36 19 92 4
71 2 84 -14 96 -16 12 -15 13 17 13 l34 0 -3 -99z m98 73 c0 -14 -3 -14 -15
-4 -8 7 -15 14 -15 16 0 2 7 4 15 4 8 0 15 -7 15 -16z m439 -50 c-17 -21 -21
-11 -8 22 10 23 13 25 16 11 3 -10 -1 -25 -8 -33z m-459 -24 c0 -27 -2 -29
-19 -19 -17 11 -17 13 -2 30 21 23 21 23 21 -11z m20 -90 c0 -15 -6 -20 -27
-19 -27 0 -27 1 -5 9 12 5 22 14 22 20 0 5 2 10 5 10 3 0 5 -9 5 -20z"/>
<path d="M930 2107 c0 -38 11 -46 40 -27 13 8 11 14 -12 37 l-28 28 0 -38z"/>
<path d="M1232 1843 c-32 -4 -32 -5 -26 -41 17 -89 13 -85 90 -88 l70 -2 13
60 c7 33 11 62 9 63 -6 7 -124 13 -156 8z m5 -75 c-2 -13 -4 -5 -4 17 -1 22 1
32 4 23 2 -10 2 -28 0 -40z m51 31 c3 -11 1 -11 -8 1 -10 13 -11 13 -6 -2 3
-10 1 -18 -4 -18 -6 0 -10 -4 -10 -10 0 -21 18 -9 34 23 l16 32 -1 -40 c0 -22
-3 -34 -6 -27 -4 10 -8 10 -19 2 -25 -22 -36 3 -25 58 2 9 25 -6 29 -19z m82
17 c0 -2 -7 -6 -15 -10 -8 -3 -15 -1 -15 4 0 6 7 10 15 10 8 0 15 -2 15 -4z
m-43 -43 c-3 -10 -5 -4 -5 12 0 17 2 24 5 18 2 -7 2 -21 0 -30z m41 0 c-3 -19
-28 -31 -28 -13 0 6 5 8 12 4 8 -5 9 -2 5 9 -3 10 -2 17 4 17 6 0 9 -8 7 -17z"/>
<path d="M1104 1786 c-33 -12 -78 -33 -100 -46 -43 -27 -154 -128 -154 -142 0
-17 18 -6 71 45 56 54 153 111 223 132 22 7 42 17 44 23 5 17 -15 14 -84 -12z"/>
<path d="M1405 1801 c-7 -12 -1 -15 50 -31 74 -24 134 -60 199 -121 74 -69
106 -76 50 -11 -48 56 -139 117 -219 148 -75 28 -72 27 -80 15z"/>
<path d="M1408 1758 c5 -5 16 -8 23 -6 8 3 3 7 -10 11 -17 4 -21 3 -13 -5z"/>
<path d="M1075 1727 c-40 -20 -94 -57 -125 -87 l-55 -52 55 47 c53 46 120 85
190 111 19 7 28 13 20 13 -9 1 -47 -14 -85 -32z"/>
<path d="M1108 1716 c-55 -23 -143 -80 -168 -111 -23 -27 1 -16 48 24 52 43
92 65 166 92 28 9 42 18 31 18 -11 0 -46 -10 -77 -23z"/>
<path d="M1400 1731 c8 -6 22 -11 30 -11 25 0 126 -56 177 -96 l48 -38 -34 37
c-38 40 -147 101 -201 112 -26 4 -31 3 -20 -4z"/>
<path d="M1531 1709 c31 -17 77 -49 102 -73 26 -24 47 -39 47 -35 0 21 -166
139 -195 139 -5 0 15 -14 46 -31z"/>
<path d="M1221 1624 c-36 -52 -115 -120 -171 -146 -46 -21 -72 -48 -32 -34 72
28 199 135 233 197 17 33 -5 21 -30 -17z"/>
<path d="M1340 1657 c-1 -18 67 -101 113 -138 27 -21 70 -48 97 -60 l50 -22 3
-216 3 -216 -1 220 0 220 -64 35 c-66 36 -127 89 -173 150 -15 19 -27 31 -28
27z"/>
<path d="M1243 1600 c-16 -24 -17 -100 -3 -100 16 0 22 23 18 74 -3 42 -4 45
-15 26z"/>
<path d="M1332 1563 c2 -43 7 -58 18 -58 10 0 16 12 18 38 2 21 -1 37 -7 37
-6 0 -11 6 -11 14 0 8 -5 18 -11 21 -7 5 -9 -13 -7 -52z"/>
<path d="M1193 1539 c-16 -16 -17 -59 -3 -59 14 0 22 23 18 50 -2 17 -5 19
-15 9z"/>
<path d="M1390 1532 c0 -27 10 -52 21 -52 15 0 10 40 -6 56 -13 14 -15 13 -15
-4z"/>
<path d="M1131 1484 c-12 -14 -11 -16 4 -12 10 1 20 9 23 16 5 17 -10 15 -27
-4z"/>
<path d="M1440 1491 c0 -10 19 -25 25 -20 1 2 -3 10 -11 17 -8 7 -14 8 -14 3z"/>
<path d="M1231 1453 c0 -16 3 -22 6 -15 2 6 9 10 14 6 5 -3 9 4 9 15 0 12 -7
21 -15 21 -10 0 -15 -9 -14 -27z"/>
<path d="M1330 1465 c0 -8 8 -19 18 -24 15 -8 19 -6 19 7 0 16 -14 32 -29 32
-5 0 -8 -7 -8 -15z"/>
<path d="M770 1445 c0 -24 3 -25 55 -25 52 0 55 1 55 25 0 24 -3 25 -55 25
-52 0 -55 -1 -55 -25z"/>
<path d="M900 1445 c0 -20 5 -25 25 -25 20 0 25 5 25 25 0 20 -5 25 -25 25
-20 0 -25 -5 -25 -25z"/>
<path d="M1193 1463 c-15 -6 -17 -43 -3 -43 12 0 24 25 18 38 -1 5 -9 7 -15 5z"/>
<path d="M1390 1445 c0 -16 6 -25 15 -25 8 0 15 9 15 19 0 10 -7 21 -15 25
-11 4 -15 -1 -15 -19z"/>
<path d="M1640 1445 c0 -21 5 -25 30 -25 25 0 30 4 30 25 0 21 -5 25 -30 25
-25 0 -30 -4 -30 -25z"/>
<path d="M1710 1445 c0 -24 3 -25 55 -25 52 0 55 1 55 25 0 24 -3 25 -55 25
-52 0 -55 -1 -55 -25z"/>
<path d="M1130 1440 c-11 -7 -12 -12 -3 -21 13 -13 33 -4 33 17 0 16 -9 18
-30 4z"/>
<path d="M1442 1433 c5 -25 28 -28 28 -4 0 12 -6 21 -16 21 -9 0 -14 -7 -12
-17z"/>
<path d="M1084 1432 c-12 -7 -15 -42 -4 -42 11 0 30 24 30 37 0 14 -9 16 -26
5z"/>
<path d="M1492 1419 c1 -12 9 -24 16 -27 9 -3 13 3 10 19 -1 12 -9 24 -16 27
-9 3 -13 -3 -10 -19z"/>
<path d="M1019 1418 c-8 -27 -5 -38 12 -38 12 0 19 7 19 20 0 11 -7 20 -15 20
-8 0 -15 -1 -16 -2z"/>
<path d="M1230 1303 c0 -87 3 -114 13 -111 8 3 13 38 15 115 2 93 0 110 -13
110 -13 0 -15 -19 -15 -114z"/>
<path d="M1330 1311 c0 -84 3 -110 14 -114 8 -3 17 -3 20 0 3 4 6 52 6 109 0
99 -5 114 -36 114 -2 0 -4 -49 -4 -109z"/>
<path d="M1540 1405 c0 -8 9 -19 20 -25 18 -9 20 -8 20 15 0 18 -5 25 -20 25
-11 0 -20 -7 -20 -15z"/>
<path d="M1192 1401 c-9 -6 -12 -37 -10 -119 2 -88 6 -110 16 -103 9 6 12 37
10 119 -2 88 -6 110 -16 103z"/>
<path d="M1390 1306 c0 -105 5 -136 21 -136 5 0 9 51 9 114 0 92 -3 115 -15
120 -13 5 -15 -10 -15 -98z"/>
<path d="M834 1385 c-13 -33 4 -45 61 -45 54 0 55 0 55 30 0 30 -1 30 -55 30
-40 0 -57 -4 -61 -15z"/>
<path d="M1642 1373 c3 -27 6 -28 61 -31 l57 -3 0 31 0 30 -61 0 c-60 0 -60 0
-57 -27z"/>
<path d="M1133 1383 c-9 -3 -13 -34 -13 -104 0 -72 3 -99 13 -99 8 0 7 -4 -3
-11 -12 -8 -11 -10 5 -7 18 3 20 12 23 116 1 61 -1 112 -5 111 -4 0 -14 -3
-20 -6z"/>
<path d="M1442 1277 c2 -77 7 -112 16 -115 9 -3 12 24 12 111 0 95 -2 114 -15
114 -13 0 -15 -17 -13 -110z"/>
<path d="M1082 1371 c-10 -6 -13 -37 -11 -119 1 -106 2 -110 20 -99 17 10 19
25 19 119 0 107 -3 116 -28 99z"/>
<path d="M1490 1266 c0 -92 3 -115 15 -120 13 -5 15 11 15 108 0 92 -3 115
-15 120 -13 5 -15 -11 -15 -108z"/>
<path d="M1015 1350 c-3 -5 -5 -57 -4 -115 1 -96 3 -105 20 -105 18 0 19 9 19
115 0 93 -3 115 -14 115 -8 0 -18 -4 -21 -10z"/>
<path d="M1542 1247 c3 -97 5 -112 21 -115 15 -3 17 7 17 110 0 107 -1 114
-20 115 -20 2 -21 -3 -18 -110z"/>
<path d="M777 1323 c-4 -3 -7 -17 -7 -30 0 -21 4 -23 55 -23 54 0 55 0 55 30
0 29 -1 30 -48 30 -27 0 -52 -3 -55 -7z"/>
<path d="M900 1300 c0 -25 4 -30 25 -30 21 0 25 5 25 30 0 25 -4 30 -25 30
-21 0 -25 -5 -25 -30z"/>
<path d="M1647 1324 c-4 -4 -7 -18 -7 -31 0 -19 5 -23 31 -23 27 0 30 3 27 28
-3 26 -34 43 -51 26z"/>
<path d="M1717 1323 c-4 -3 -7 -17 -7 -30 0 -21 4 -23 55 -23 54 0 55 0 55 30
0 29 -1 30 -48 30 -27 0 -52 -3 -55 -7z"/>
<path d="M830 1225 c0 -24 3 -25 60 -25 57 0 60 1 60 25 0 24 -3 25 -60 25
-57 0 -60 -1 -60 -25z"/>
<path d="M1640 1225 c0 -24 3 -25 60 -25 57 0 60 1 60 25 0 24 -3 25 -60 25
-57 0 -60 -1 -60 -25z"/>
<path d="M1770 1225 c0 -24 3 -25 55 -25 52 0 55 1 55 25 0 24 -3 25 -55 25
-52 0 -55 -1 -55 -25z"/>
<path d="M772 1153 c3 -26 7 -28 56 -31 l52 -3 0 30 c0 31 0 31 -56 31 -54 0
-55 0 -52 -27z"/>
<path d="M900 1150 c0 -25 4 -30 25 -30 21 0 25 5 25 30 0 25 -4 30 -25 30
-21 0 -25 -5 -25 -30z"/>
<path d="M1642 1153 c2 -22 8 -28 28 -28 20 0 26 6 28 28 3 24 0 27 -28 27
-28 0 -31 -3 -28 -27z"/>
<path d="M1710 1155 c0 -24 3 -25 55 -25 52 0 55 1 55 25 0 24 -3 25 -55 25
-52 0 -55 -1 -55 -25z"/>
<path d="M1230 1162 c0 -5 7 -9 15 -9 8 0 15 4 15 9 0 4 -7 8 -15 8 -8 0 -15
-4 -15 -8z"/>
<path d="M1330 1165 c0 -7 30 -13 34 -7 3 4 -4 9 -15 9 -10 1 -19 0 -19 -2z"/>
<path d="M1394 1148 c3 -15 26 -23 26 -8 0 6 -4 9 -9 6 -5 -4 -12 -1 -14 4 -3
6 -4 5 -3 -2z"/>
<path d="M1135 1130 c-3 -6 1 -7 9 -4 18 7 21 14 7 14 -6 0 -13 -4 -16 -10z"/>
<path d="M1446 1128 c3 -4 9 -8 15 -8 5 0 9 4 9 8 0 5 -7 9 -15 9 -8 0 -12 -4
-9 -9z"/>
<path d="M1079 1113 c-13 -15 -12 -15 9 -4 23 12 28 21 13 21 -5 0 -15 -7 -22
-17z"/>
<path d="M1230 1037 c0 -77 3 -94 15 -94 12 0 15 17 15 94 0 76 -3 93 -15 93
-12 0 -15 -17 -15 -93z"/>
<path d="M1330 1040 c0 -66 3 -89 14 -93 23 -9 26 2 26 93 0 79 -2 86 -20 87
-19 2 -20 -4 -20 -87z"/>
<path d="M1490 1122 c0 -5 7 -13 16 -16 10 -4 14 -1 12 6 -5 15 -28 23 -28 10z"/>
<path d="M1040 1111 c0 -7 -4 -10 -9 -6 -5 3 -12 1 -16 -5 -3 -5 1 -10 9 -10
17 0 31 18 22 27 -3 4 -6 1 -6 -6z"/>
<path d="M1193 1113 c-16 -6 -18 -193 -3 -193 17 0 21 23 18 112 -2 62 -6 84
-15 81z"/>
<path d="M1392 1023 c2 -66 7 -98 16 -101 20 -6 17 184 -3 192 -14 5 -15 -7
-13 -91z"/>
<path d="M1540 1110 c0 -6 7 -13 15 -17 24 -9 27 1 5 15 -13 8 -20 8 -20 2z"/>
<path d="M834 1095 c-13 -33 4 -45 61 -45 54 0 55 0 55 30 0 30 -1 30 -55 30
-40 0 -57 -4 -61 -15z"/>
<path d="M1644 1095 c-13 -33 4 -45 61 -45 54 0 55 0 55 30 0 30 -1 30 -55 30
-40 0 -57 -4 -61 -15z"/>
<path d="M1122 1008 c2 -75 6 -93 18 -93 12 0 16 18 18 93 3 87 2 92 -18 92
-20 0 -21 -5 -18 -92z"/>
<path d="M1442 1008 c2 -62 7 -93 16 -96 9 -3 12 20 12 92 0 80 -3 96 -15 96
-13 0 -15 -15 -13 -92z"/>
<path d="M1082 1081 c-9 -6 -13 -33 -11 -99 1 -51 5 -92 8 -92 22 0 31 31 31
112 0 87 -3 95 -28 79z"/>
<path d="M1490 997 c0 -76 3 -96 15 -101 14 -5 15 7 13 91 -2 66 -7 98 -15
101 -10 3 -13 -20 -13 -91z"/>
<path d="M1028 1073 c-24 -6 -23 -60 2 -138 l19 -60 0 103 c1 56 0 101 -1 101
-2 -1 -11 -3 -20 -6z"/>
<path d="M1540 982 c0 -53 4 -92 8 -86 14 16 32 89 32 131 0 32 -4 42 -20 46
-19 5 -20 0 -20 -91z"/>
<path d="M1647 1034 c-4 -4 -7 -18 -7 -31 0 -19 5 -23 31 -23 27 0 30 3 27 28
-3 26 -34 43 -51 26z"/>
<path d="M900 1005 c0 -20 5 -25 25 -25 20 0 25 5 25 25 0 20 -5 25 -25 25
-20 0 -25 -5 -25 -25z"/>
<path d="M1640 935 c0 -24 3 -25 60 -25 57 0 60 1 60 25 0 24 -3 25 -60 25
-57 0 -60 -1 -60 -25z"/>
<path d="M1230 894 c0 -31 23 -28 28 4 2 15 -2 22 -12 22 -11 0 -16 -9 -16
-26z"/>
<path d="M1330 901 c0 -10 7 -22 15 -25 20 -7 32 23 14 35 -21 13 -29 11 -29
-10z"/>
<path d="M1193 903 c-7 -3 -13 -17 -13 -31 0 -24 1 -25 16 -10 18 18 16 47 -3
41z"/>
<path d="M1390 886 c0 -13 7 -26 15 -30 11 -4 15 1 15 18 0 13 -7 26 -15 30
-11 4 -15 -1 -15 -18z"/>
<path d="M1124 879 c-3 -6 0 -15 7 -20 12 -7 12 -9 0 -9 -8 0 -12 -2 -9 -5 11
-11 38 8 38 26 0 21 -25 26 -36 8z"/>
<path d="M1442 868 c5 -32 28 -35 28 -4 0 17 -5 26 -16 26 -10 0 -14 -7 -12
-22z"/>
<path d="M1081 871 c-18 -12 -6 -42 14 -35 8 3 15 15 15 25 0 21 -8 23 -29 10z"/>
<path d="M1490 856 c0 -17 5 -26 16 -26 10 0 14 7 12 22 -5 32 -28 35 -28 4z"/>
<path d="M1241 851 c-7 -5 -12 -14 -10 -20 3 -6 9 -7 18 -2 7 5 12 14 10 20
-3 6 -9 7 -18 2z"/>
<path d="M1330 841 c0 -11 26 -22 34 -14 12 12 5 23 -14 23 -11 0 -20 -4 -20
-9z"/>
<path d="M1181 818 c0 -13 3 -17 6 -10 2 6 9 10 14 6 5 -3 9 2 9 10 0 9 -7 16
-15 16 -9 0 -15 -9 -14 -22z"/>
<path d="M1390 826 c0 -8 7 -16 15 -20 9 -3 15 0 15 8 0 8 -7 16 -15 20 -9 3
-15 0 -15 -8z"/>
<path d="M1130 820 c-13 -9 -13 -10 0 -10 13 0 13 -2 0 -11 -12 -9 -12 -10 3
-5 10 3 21 6 23 6 2 0 4 7 4 15 0 17 -9 19 -30 5z"/>
<path d="M1442 813 c2 -9 9 -18 16 -21 18 -6 15 25 -4 32 -11 4 -14 1 -12 -11z"/>
<path d="M1073 789 c1 -14 5 -15 19 -8 24 13 23 28 -1 26 -12 -1 -19 -8 -18
-18z"/>
<path d="M1490 795 c0 -8 2 -15 4 -15 2 0 11 -3 19 -6 12 -4 14 0 10 15 -6 24
-33 29 -33 6z"/>
</g>
</svg>
